AllBirdsCombinations-Regular.ufo
<glyph name="exclamation" format="2">
  <advance width="274.05"/>
  <unicode hex="0021"/>
  <outline>
    <contour>
      <point x="47.025001525878906" y="208.3333282470703" type="line"/>
      <point x="227.0250015258789" y="208.3333282470703" type="line"/>
      <point x="227.0250015258789" y="800" type="line"/>
      <point x="47.025001525878906" y="800" type="line"/>
    </contour>
    <contour>
      <point x="232.025" y="83.75" type="curve" smooth="yes"/>
      <point x="232.025" y="136.18193"/>
      <point x="189.45693" y="178.75"/>
      <point x="137.025" y="178.75" type="curve" smooth="yes"/>
      <point x="84.59307" y="178.75"/>
      <point x="42.025" y="136.18193"/>
      <point x="42.025" y="83.75" type="curve" smooth="yes"/>
      <point x="42.025" y="31.31807"/>
      <point x="84.59307" y="-11.25"/>
      <point x="137.025" y="-11.25" type="curve" smooth="yes"/>
      <point x="189.45693" y="-11.25"/>
      <point x="232.025" y="31.31807"/>
    </contour>
  </outline>
</glyph>
<glyph name="numbersign" format="2">
  <advance width="904.0268050980754"/>
  <unicode hex="0023"/>
  <outline>
    <contour>
      <point x="149.14234924316406" y="-5" type="line"/>
      <point x="243.43129711983653" y="-5.0"/>
      <point x="338.66649768918563" y="67.6549309233402"/>
      <point x="368.9031448364258" y="160" type="curve"/>
      <point x="417.0250015258789" y="160" type="line"/>
      <point x="376.64234924316406" y="-5" type="line"/>
      <point x="472.23599106493657" y="-5.0"/>
      <point x="568.8022536820207" y="69.67952192961938"/>
      <point x="597.6207809448242" y="163.86224365234375" type="curve"/>
      <point x="683.3596968075028" y="180.98635318211245"/>
      <point x="762.381775173199" y="253.39079381650004"/>
      <point x="783.5788019117782" y="340.0" type="curve"/>
      <point x="641.0788040161133" y="340" type="line"/>
      <point x="671.4113998413086" y="463.9363327026367" type="line"/>
      <point x="757.0084615391687" y="481.19334575728635"/>
      <point x="835.8350735462824" y="553.5145773127"/>
      <point x="857.0018050980755" y="640.0" type="curve"/>
      <point x="714.5018081665039" y="640" type="line"/>
      <point x="754.8844604492188" y="805" type="line"/>
      <point x="660.5955079782389" y="805.0"/>
      <point x="565.3603074088896" y="732.3450690766598"/>
      <point x="535.1236572265625" y="640" type="curve"/>
      <point x="487.0018081665039" y="640" type="line"/>
      <point x="527.3844604492188" y="805" type="line"/>
      <point x="431.7908140331389" y="805.0"/>
      <point x="335.22455141605474" y="730.3204780703805"/>
      <point x="306.4060287475586" y="636.1377563476562" type="curve"/>
      <point x="220.66710829057263" y="619.0136468178877"/>
      <point x="141.64502992487647" y="546.6092061835001"/>
      <point x="120.44800318629719" y="460.0000000000001" type="curve"/>
      <point x="262.94800567626953" y="460" type="line"/>
      <point x="232.61540985107422" y="336.0636672973633" type="line"/>
      <point x="147.01834355890668" y="318.80665424271365"/>
      <point x="68.19173155179298" y="246.48542268730006"/>
      <point x="47.02500000000004" y="160.0" type="curve"/>
      <point x="189.5250015258789" y="160" type="line"/>
    </contour>
    <contour>
      <point x="490.44800567626953" y="460" type="line"/>
      <point x="461.0788040161133" y="340" type="line"/>
      <point x="413.5788040161133" y="340" type="line"/>
      <point x="442.94800567626953" y="460" type="line"/>
    </contour>
  </outline>
</glyph>
<glyph name="dollar" format="2">
  <advance width="501.55"/>
  <unicode hex="0024"/>
  <outline>
    <contour>
      <point x="47.025001525878906" y="490" type="line"/>
      <point x="47.025000000000006" y="390.65529999999995"/>
      <point x="127.68029999999996" y="310.0"/>
      <point x="227.025" y="310.0" type="curve"/>
      <point x="227.0250015258789" y="800" type="line"/>
      <point x="137.0250015258789" y="800" type="line"/>
      <point x="137.0250015258789" y="675.8662796020508" type="line"/>
      <point x="50.065354160608265" y="625.5508071769998"/>
      <point x="47.0249989825348" y="540.0041802144242"/>
      <point x="47.025001271565756" y="495.0" type="curve"/>
    </contour>
    <contour>
      <point x="268.9000015258789" y="740.0" type="line"/>
      <point x="268.9000015258789" y="543.6492569257045"/>
      <point x="395.47486570268296" y="520.0"/>
      <point x="448.9" y="520.0" type="curve"/>
      <point x="448.9000015258789" y="700" type="line"/>
      <point x="358.9000015258789" y="700" type="line"/>
      <point x="358.9000015258789" y="800" type="line"/>
      <point x="268.9000015258789" y="800" type="line"/>
    </contour>
    <contour>
      <point x="274.5250015258789" y="0" type="line"/>
      <point x="364.5250015258789" y="0" type="line"/>
      <point x="364.5250015258789" y="124.13372039794922" type="line"/>
      <point x="451.484647653612" y="174.4491949618219"/>
      <point x="454.5249989825347" y="259.9958197855758"/>
      <point x="454.52500127156577" y="305.0" type="curve"/>
      <point x="454.5250015258789" y="310" type="line"/>
      <point x="454.525" y="409.34470000000005"/>
      <point x="373.8697" y="490.0"/>
      <point x="274.525" y="490.0" type="curve"/>
    </contour>
    <contour>
      <point x="137.0250015258789" y="0" type="line"/>
      <point x="227.0250015258789" y="0" type="line"/>
      <point x="227.0250015258789" y="60.0" type="line"/>
      <point x="227.0250015258789" y="256.35074307429545"/>
      <point x="100.45013429731704" y="280.0"/>
      <point x="47.025" y="280.0" type="curve"/>
      <point x="47.025001525878906" y="100" type="line"/>
      <point x="137.0250015258789" y="100" type="line"/>
    </contour>
  </outline>
</glyph>
<glyph name="ampersand" format="2">
  <advance width="681.55"/>
  <unicode hex="0026"/>
  <outline>
    <contour>
      <point x="47.025001525878906" y="580" type="line"/>
      <point x="47.025000000000006" y="480.65529999999995"/>
      <point x="127.68029999999996" y="400.0"/>
      <point x="227.025" y="400.0" type="curve"/>
      <point x="227.0250015258789" y="800" type="line"/>
      <point x="161.42071978491273" y="800.0"/>
      <point x="47.024994499253864" y="764.1987595949363"/>
      <point x="47.02500133514404" y="585.0" type="curve"/>
    </contour>
    <contour>
      <point x="263.275" y="800.0" type="line"/>
      <point x="263.275" y="700.6553"/>
      <point x="343.9303" y="620.0"/>
      <point x="443.275" y="620.0" type="curve"/>
      <point x="443.275" y="800.0" type="line"/>
    </contour>
    <contour>
      <point x="274.5250015258789" y="-5" type="line"/>
      <point x="327.9501358231959" y="-5.0"/>
      <point x="454.5249983546737" y="18.64925692570455"/>
      <point x="454.5250004209321" y="215.0" type="curve"/>
      <point x="454.5250015258789" y="320" type="line"/>
      <point x="553.8697" y="320.0"/>
      <point x="634.525" y="400.6553"/>
      <point x="634.525" y="500.0" type="curve"/>
      <point x="494.5250015258789" y="500.0" type="line"/>
      <point x="413.8574560145796" y="500.0"/>
      <point x="274.5249991817561" y="494.27940663532087"/>
      <point x="274.52500018780046" y="280.0" type="curve"/>
    </contour>
    <contour>
      <point x="47.025001525878906" y="175" type="line"/>
      <point x="47.025000000000006" y="75.65529999999997"/>
      <point x="127.68029999999996" y="-4.999999999999988"/>
      <point x="227.025" y="-5.0" type="curve"/>
      <point x="227.0250015258789" y="400" type="line"/>
      <point x="173.5998672285619" y="400.0"/>
      <point x="47.0249946983933" y="376.35074307429534"/>
      <point x="47.02500135633681" y="180.00000000000003" type="curve"/>
    </contour>
  </outline>
</glyph>
<glyph name="parenleft" format="2">
  <advance width="274.05"/>
  <unicode hex="0028"/>
  <outline>
    <contour>
      <point x="47.02500143051147" y="120.0" type="line"/>
      <point x="47.02500189864813" y="-76.35074307429545"/>
      <point x="173.59986570268296" y="-100.0"/>
      <point x="227.025" y="-100.0" type="curve"/>
      <point x="227.0250015258789" y="900" type="line"/>
      <point x="173.5998672285619" y="900.0"/>
      <point x="47.024999627230756" y="876.3507430742955"/>
      <point x="47.02500009536743" y="680.0" type="curve"/>
    </contour>
  </outline>
</glyph>
<glyph name="parenright" format="2">
  <advance width="274.05"/>
  <unicode hex="0029"/>
  <outline>
    <contour>
      <point x="47.025001525878906" y="-100" type="line"/>
      <point x="100.45013582319592" y="-100.0"/>
      <point x="227.0249996272308" y="-76.35074307429545"/>
      <point x="227.02500009536743" y="120.0" type="curve"/>
      <point x="227.02500143051148" y="680.0" type="line"/>
      <point x="227.02500189864813" y="876.3507430742955"/>
      <point x="100.45013429731704" y="900.0"/>
      <point x="47.025" y="900.0" type="curve"/>
    </contour>
  </outline>
</glyph>
<glyph name="period" format="2">
  <advance width="274.05"/>
  <unicode hex="002E"/>
  <outline>
    <contour>
      <point x="232.025" y="83.75" type="curve" smooth="yes"/>
      <point x="232.025" y="136.18193"/>
      <point x="189.45693" y="178.75"/>
      <point x="137.025" y="178.75" type="curve" smooth="yes"/>
      <point x="84.59307" y="178.75"/>
      <point x="42.025" y="136.18193"/>
      <point x="42.025" y="83.75" type="curve" smooth="yes"/>
      <point x="42.025" y="31.31807"/>
      <point x="84.59307" y="-11.25"/>
      <point x="137.025" y="-11.25" type="curve" smooth="yes"/>
      <point x="189.45693" y="-11.25"/>
      <point x="232.025" y="31.31807"/>
    </contour>
  </outline>
</glyph>
<glyph name="two" format="2">
  <advance width="501.55"/>
  <unicode hex="0032"/>
  <outline>
    <contour>
      <point x="237.65" y="710.0" type="curve" smooth="yes"/>
      <point x="237.65" y="762.43193"/>
      <point x="195.08193" y="805.0"/>
      <point x="142.65" y="805.0" type="curve" smooth="yes"/>
      <point x="90.21807" y="805.0"/>
      <point x="47.65" y="762.43193"/>
      <point x="47.65" y="710.0" type="curve" smooth="yes"/>
      <point x="47.65" y="657.56807"/>
      <point x="90.21807" y="615.0"/>
      <point x="142.65" y="615.0" type="curve" smooth="yes"/>
      <point x="195.08193" y="615.0"/>
      <point x="237.65" y="657.56807"/>
    </contour>
    <contour>
      <point x="274.5250015258789" y="228.3333282470703" type="line"/>
      <point x="327.9501358231959" y="228.33332918975276"/>
      <point x="454.524998898897" y="251.98258692570454"/>
      <point x="454.5250002817007" y="448.33333" type="curve"/>
      <point x="454.5250012441782" y="585.0" type="line"/>
      <point x="454.5250026269818" y="781.3507430742955"/>
      <point x="327.950134297317" y="805.0"/>
      <point x="274.525" y="805.0" type="curve"/>
    </contour>
    <contour>
      <point x="47.025" y="0.0" type="curve"/>
      <point x="454.5250015258789" y="0" type="line"/>
      <point x="454.5250015258789" y="180" type="line"/>
      <point x="267.0250015258789" y="180.0" type="line"/>
      <point x="70.67425845158346" y="180.00000000000003"/>
      <point x="47.025" y="53.42513429731704"/>
    </contour>
  </outline>
</glyph>
<glyph name="three" format="2">
  <advance width="501.55"/>
  <unicode hex="0033"/>
  <outline>
    <contour>
      <point x="232.025" y="710.0" type="curve" smooth="yes"/>
      <point x="232.025" y="762.43193"/>
      <point x="189.45693" y="805.0"/>
      <point x="137.025" y="805.0" type="curve" smooth="yes"/>
      <point x="84.59307" y="805.0"/>
      <point x="42.025" y="762.43193"/>
      <point x="42.025" y="710.0" type="curve" smooth="yes"/>
      <point x="42.025" y="657.56807"/>
      <point x="84.59307" y="615.0"/>
      <point x="137.025" y="615.0" type="curve" smooth="yes"/>
      <point x="189.45693" y="615.0"/>
      <point x="232.025" y="657.56807"/>
    </contour>
    <contour>
      <point x="274.5250015258789" y="400" type="line"/>
      <point x="327.9501358231959" y="400.0"/>
      <point x="454.5249946983932" y="423.64925692570466"/>
      <point x="454.5250013563368" y="620.0" type="curve"/>
      <point x="454.5250015258789" y="625" type="line"/>
      <point x="454.525" y="724.3447"/>
      <point x="373.8697" y="805.0"/>
      <point x="274.525" y="805.0" type="curve"/>
    </contour>
    <contour>
      <point x="274.5250015258789" y="-5" type="line"/>
      <point x="327.9501358231959" y="-5.0"/>
      <point x="454.5249946983932" y="18.649256925704634"/>
      <point x="454.5250013563368" y="214.99999999999997" type="curve"/>
      <point x="454.5250015258789" y="220" type="line"/>
      <point x="454.525" y="319.34470000000005"/>
      <point x="373.8697" y="400.0"/>
      <point x="274.525" y="400.0" type="curve"/>
    </contour>
    <contour>
      <point x="232.025" y="90.0" type="curve" smooth="yes"/>
      <point x="232.025" y="142.43193"/>
      <point x="189.45693" y="185.0"/>
      <point x="137.025" y="185.0" type="curve" smooth="yes"/>
      <point x="84.59307" y="185.0"/>
      <point x="42.025" y="142.43193"/>
      <point x="42.025" y="90.0" type="curve" smooth="yes"/>
      <point x="42.025" y="37.56807"/>
      <point x="84.59307" y="-5.0"/>
      <point x="137.025" y="-5.0" type="curve" smooth="yes"/>
      <point x="189.45693" y="-5.0"/>
      <point x="232.025" y="37.56807"/>
    </contour>
  </outline>
</glyph>
<glyph name="four" format="2">
  <advance width="501.55"/>
  <unicode hex="0034"/>
  <outline>
    <contour>
      <point x="47.025001525878906" y="300" type="line"/>
      <point x="100.45013582319592" y="300.0"/>
      <point x="227.02499925446153" y="323.64925692570455"/>
      <point x="227.02500019073486" y="520.0" type="curve"/>
      <point x="227.0250015258789" y="800" type="line"/>
      <point x="47.025001525878906" y="800" type="line"/>
    </contour>
    <contour>
      <point x="274.5250015258789" y="0" type="line"/>
      <point x="454.5250015258789" y="0" type="line"/>
      <point x="454.5250015258789" y="500" type="line"/>
      <point x="274.5250015258789" y="500" type="line"/>
    </contour>
  </outline>
</glyph>
<glyph name="five" format="2">
  <advance width="501.55"/>
  <unicode hex="0035"/>
  <outline>
    <contour>
      <point x="52.650001525878906" y="530.0" type="line"/>
      <point x="52.65000152587892" y="333.64925692570455"/>
      <point x="179.22486570268296" y="310.0"/>
      <point x="232.65" y="310.0" type="curve"/>
      <point x="232.6500015258789" y="800" type="line"/>
      <point x="52.650001525878906" y="800" type="line"/>
    </contour>
    <contour>
      <point x="268.9" y="800.0" type="line"/>
      <point x="268.9" y="700.6553"/>
      <point x="349.5553" y="620.0"/>
      <point x="448.9" y="620.0" type="curve"/>
      <point x="448.9" y="800.0" type="line"/>
    </contour>
    <contour>
      <point x="274.5250015258789" y="-5" type="line"/>
      <point x="327.9501358231959" y="-5.0"/>
      <point x="454.5249982327977" y="18.649256925704577"/>
      <point x="454.52500045211224" y="215.0" type="curve"/>
      <point x="454.52500107376665" y="270.0" type="line"/>
      <point x="454.52500329308117" y="466.35074307429545"/>
      <point x="327.950134297317" y="490.0"/>
      <point x="274.525" y="490.0" type="curve"/>
    </contour>
    <contour>
      <point x="232.025" y="85.0" type="curve" smooth="yes"/>
      <point x="232.025" y="137.43193"/>
      <point x="189.45693" y="180.0"/>
      <point x="137.025" y="180.0" type="curve" smooth="yes"/>
      <point x="84.59307" y="180.0"/>
      <point x="42.025" y="137.43193"/>
      <point x="42.025" y="85.0" type="curve" smooth="yes"/>
      <point x="42.025" y="32.56807"/>
      <point x="84.59307" y="-10.0"/>
      <point x="137.025" y="-10.0" type="curve" smooth="yes"/>
      <point x="189.45693" y="-10.0"/>
      <point x="232.025" y="32.56807"/>
    </contour>
  </outline>
</glyph>
<glyph name="six" format="2">
  <advance width="501.55"/>
  <unicode hex="0036"/>
  <outline>
    <contour>
      <point x="47.02500139024522" y="215.0" type="line"/>
      <point x="47.02500205603959" y="18.64925692570455"/>
      <point x="173.59986570268296" y="-4.999999999999994"/>
      <point x="227.025" y="-5.0" type="curve"/>
      <point x="227.0250015258789" y="805" type="line"/>
      <point x="173.5998672285619" y="805.0"/>
      <point x="47.02499946983933" y="781.3507430742955"/>
      <point x="47.025000135633675" y="585.0" type="curve"/>
    </contour>
    <contour>
      <point x="448.9" y="715.0" type="curve" smooth="yes"/>
      <point x="448.9" y="764.67235"/>
      <point x="408.57235" y="805.0"/>
      <point x="358.9" y="805.0" type="curve" smooth="yes"/>
      <point x="309.22765" y="805.0"/>
      <point x="268.9" y="764.67235"/>
      <point x="268.9" y="715.0" type="curve" smooth="yes"/>
      <point x="268.9" y="665.32765"/>
      <point x="309.22765" y="625.0"/>
      <point x="358.9" y="625.0" type="curve" smooth="yes"/>
      <point x="408.57235" y="625.0"/>
      <point x="448.9" y="665.32765"/>
    </contour>
    <contour>
      <point x="274.5250015258789" y="-5" type="line"/>
      <point x="327.9501358231959" y="-5.0"/>
      <point x="454.5249983546737" y="18.64925692570455"/>
      <point x="454.5250004209321" y="215.0" type="curve"/>
      <point x="454.5250011049468" y="280.0" type="line"/>
      <point x="454.5250031712051" y="476.35074307429545"/>
      <point x="327.950134297317" y="500.0"/>
      <point x="274.525" y="500.0" type="curve"/>
    </contour>
  </outline>
</glyph>
<glyph name="eight" format="2">
  <advance width="501.55"/>
  <unicode hex="0038"/>
  <outline>
    <contour>
      <point x="47.025001525878906" y="580" type="line"/>
      <point x="47.025000000000006" y="480.65529999999995"/>
      <point x="127.68029999999996" y="400.0"/>
      <point x="227.025" y="400.0" type="curve"/>
      <point x="227.0250015258789" y="805" type="line"/>
      <point x="173.5998672285619" y="805.0"/>
      <point x="47.0249946983933" y="781.3507430742953"/>
      <point x="47.02500135633681" y="585.0" type="curve"/>
    </contour>
    <contour>
      <point x="274.5250015258789" y="400" type="line"/>
      <point x="327.9501358231959" y="400.0"/>
      <point x="454.5249946983932" y="423.64925692570466"/>
      <point x="454.5250013563368" y="620.0" type="curve"/>
      <point x="454.5250015258789" y="625" type="line"/>
      <point x="454.525" y="724.3447"/>
      <point x="373.8697" y="805.0"/>
      <point x="274.525" y="805.0" type="curve"/>
    </contour>
    <contour>
      <point x="47.025001525878906" y="175" type="line"/>
      <point x="47.025000000000006" y="75.65529999999997"/>
      <point x="127.68029999999996" y="-4.999999999999988"/>
      <point x="227.025" y="-5.0" type="curve"/>
      <point x="227.0250015258789" y="400" type="line"/>
      <point x="173.5998672285619" y="400.0"/>
      <point x="47.0249946983933" y="376.35074307429534"/>
      <point x="47.02500135633681" y="180.00000000000003" type="curve"/>
    </contour>
    <contour>
      <point x="274.5250015258789" y="-5" type="line"/>
      <point x="327.9501358231959" y="-5.0"/>
      <point x="454.5249946983932" y="18.649256925704634"/>
      <point x="454.5250013563368" y="214.99999999999997" type="curve"/>
      <point x="454.5250015258789" y="220" type="line"/>
      <point x="454.525" y="319.34470000000005"/>
      <point x="373.8697" y="400.0"/>
      <point x="274.525" y="400.0" type="curve"/>
    </contour>
  </outline>
</glyph>
<glyph name="nine" format="2">
  <advance width="501.55"/>
  <unicode hex="0039"/>
  <outline>
    <contour>
      <point x="47.025001104946796" y="520.0" type="line"/>
      <point x="47.02500317120511" y="323.64925692570455"/>
      <point x="173.59986570268296" y="300.0"/>
      <point x="227.025" y="300.0" type="curve"/>
      <point x="227.0250015258789" y="805" type="line"/>
      <point x="173.5998672285619" y="805.0"/>
      <point x="47.02499835467378" y="781.3507430742955"/>
      <point x="47.02500042093211" y="585.0" type="curve"/>
    </contour>
    <contour>
      <point x="274.5250015258789" y="-5" type="line"/>
      <point x="327.9501358231959" y="-5.0"/>
      <point x="454.5249994698393" y="18.64925692570455"/>
      <point x="454.52500013563366" y="215.0" type="curve"/>
      <point x="454.5250013902452" y="585.0" type="line"/>
      <point x="454.52500205603957" y="781.3507430742955"/>
      <point x="327.950134297317" y="805.0"/>
      <point x="274.525" y="805.0" type="curve"/>
    </contour>
    <contour>
      <point x="237.65" y="85.0" type="curve" smooth="yes"/>
      <point x="237.65" y="137.43193"/>
      <point x="195.08193" y="180.0"/>
      <point x="142.65" y="180.0" type="curve" smooth="yes"/>
      <point x="90.21807" y="180.0"/>
      <point x="47.65" y="137.43193"/>
      <point x="47.65" y="85.0" type="curve" smooth="yes"/>
      <point x="47.65" y="32.56807"/>
      <point x="90.21807" y="-10.0"/>
      <point x="142.65" y="-10.0" type="curve" smooth="yes"/>
      <point x="195.08193" y="-10.0"/>
      <point x="237.65" y="32.56807"/>
    </contour>
  </outline>
</glyph>
<glyph name="colon" format="2">
  <advance width="274.05"/>
  <unicode hex="003A"/>
  <outline>
    <contour>
      <point x="232.025" y="510.0" type="curve" smooth="yes"/>
      <point x="232.025" y="562.43193"/>
      <point x="189.45693" y="605.0"/>
      <point x="137.025" y="605.0" type="curve" smooth="yes"/>
      <point x="84.59307" y="605.0"/>
      <point x="42.025" y="562.43193"/>
      <point x="42.025" y="510.0" type="curve" smooth="yes"/>
      <point x="42.025" y="457.56807"/>
      <point x="84.59307" y="415.0"/>
      <point x="137.025" y="415.0" type="curve" smooth="yes"/>
      <point x="189.45693" y="415.0"/>
      <point x="232.025" y="457.56807"/>
    </contour>
    <contour>
      <point x="232.025" y="85.0" type="curve" smooth="yes"/>
      <point x="232.025" y="137.43193"/>
      <point x="189.45693" y="180.0"/>
      <point x="137.025" y="180.0" type="curve" smooth="yes"/>
      <point x="84.59307" y="180.0"/>
      <point x="42.025" y="137.43193"/>
      <point x="42.025" y="85.0" type="curve" smooth="yes"/>
      <point x="42.025" y="32.56807"/>
      <point x="84.59307" y="-10.0"/>
      <point x="137.025" y="-10.0" type="curve" smooth="yes"/>
      <point x="189.45693" y="-10.0"/>
      <point x="232.025" y="32.56807"/>
    </contour>
  </outline>
</glyph>
<glyph name="semicolon" format="2">
  <advance width="274.05"/>
  <unicode hex="003B"/>
  <outline>
    <contour>
      <point x="232.025" y="510.0" type="curve" smooth="yes"/>
      <point x="232.025" y="562.43193"/>
      <point x="189.45693" y="605.0"/>
      <point x="137.025" y="605.0" type="curve" smooth="yes"/>
      <point x="84.59307" y="605.0"/>
      <point x="42.025" y="562.43193"/>
      <point x="42.025" y="510.0" type="curve" smooth="yes"/>
      <point x="42.025" y="457.56807"/>
      <point x="84.59307" y="415.0"/>
      <point x="137.025" y="415.0" type="curve" smooth="yes"/>
      <point x="189.45693" y="415.0"/>
      <point x="232.025" y="457.56807"/>
    </contour>
    <contour>
      <point x="47.025001525878906" y="-100" type="line"/>
      <point x="130.7039737888112" y="-100.0"/>
      <point x="227.02499084072522" y="-40.052446713696256"/>
      <point x="227.02500114440917" y="95.00000000000001" type="curve"/>
      <point x="227.0250015258789" y="100" type="line"/>
      <point x="47.025001525878906" y="100" type="line"/>
    </contour>
  </outline>
</glyph>
<glyph name="less" format="2">
  <advance width="454.05"/>
  <unicode hex="003C"/>
  <outline>
    <contour>
      <point x="47.025001271565756" y="320.0" type="line"/>
      <point x="47.02500262688178" y="106.82722190492791"/>
      <point x="184.59738334346858" y="100.00000000000001"/>
      <point x="267.025" y="100.0" type="curve"/>
      <point x="407.0250015258789" y="100" type="line"/>
      <point x="407.025" y="199.3447"/>
      <point x="326.36969999999997" y="280.0"/>
      <point x="227.025" y="280.0" type="curve"/>
      <point x="227.0250015258789" y="520" type="line"/>
      <point x="326.36969999999997" y="520.0"/>
      <point x="407.025" y="600.6553"/>
      <point x="407.025" y="700.0" type="curve"/>
      <point x="267.0250015258789" y="700.0" type="line"/>
      <point x="186.3574560145796" y="700.0"/>
      <point x="47.02499889196136" y="694.2794066353208"/>
      <point x="47.025000254313156" y="480.0" type="curve"/>
    </contour>
  </outline>
</glyph>
<glyph name="greater" format="2">
  <advance width="454.05"/>
  <unicode hex="003E"/>
  <outline>
    <contour>
      <point x="187.0250015258789" y="100.0" type="line"/>
      <point x="400.197779620951" y="100.0"/>
      <point x="407.02499973025243" y="237.5723833434686"/>
      <point x="407.0250002543131" y="320.0" type="curve"/>
      <point x="407.02500127156577" y="480.0" type="line"/>
      <point x="407.0250026268818" y="693.1727780950721"/>
      <point x="269.4526166565314" y="700.0"/>
      <point x="187.025" y="700.0" type="curve"/>
      <point x="47.025001525878906" y="700" type="line"/>
      <point x="47.025" y="600.6553"/>
      <point x="127.68030000000002" y="520.0"/>
      <point x="227.025" y="520.0" type="curve"/>
      <point x="227.0250015258789" y="280" type="line"/>
      <point x="127.68030000000002" y="280.0"/>
      <point x="47.025" y="199.3447"/>
      <point x="47.025" y="100.0" type="curve"/>
    </contour>
  </outline>
</glyph>
<glyph name="question" format="2">
  <advance width="501.55"/>
  <unicode hex="003F"/>
  <outline>
    <contour>
      <point x="232.025" y="722.5" type="curve" smooth="yes"/>
      <point x="232.025" y="774.93193"/>
      <point x="189.45693" y="817.5"/>
      <point x="137.025" y="817.5" type="curve" smooth="yes"/>
      <point x="84.59307" y="817.5"/>
      <point x="42.025" y="774.93193"/>
      <point x="42.025" y="722.5" type="curve" smooth="yes"/>
      <point x="42.025" y="670.06807"/>
      <point x="84.59307" y="627.5"/>
      <point x="137.025" y="627.5" type="curve" smooth="yes"/>
      <point x="189.45693" y="627.5"/>
      <point x="232.025" y="670.06807"/>
    </contour>
    <contour>
      <point x="274.5250015258789" y="405" type="line"/>
      <point x="340.12928326684505" y="405.0"/>
      <point x="454.52499449925375" y="440.8012404050637"/>
      <point x="454.52500133514405" y="620.0" type="curve"/>
      <point x="454.5250015258789" y="625" type="line"/>
      <point x="454.525" y="724.3447"/>
      <point x="373.8697" y="805.0"/>
      <point x="274.525" y="805.0" type="curve"/>
    </contour>
    <contour>
      <point x="47.025001525878906" y="208.3333282470703" type="line"/>
      <point x="227.0250015258789" y="208.3333282470703" type="line"/>
      <point x="227.0250015258789" y="580" type="line"/>
      <point x="173.5998672285619" y="580.0"/>
      <point x="47.02499875527499" y="556.3507430742955"/>
      <point x="47.02500031844428" y="360.0" type="curve"/>
    </contour>
    <contour>
      <point x="232.025" y="83.75" type="curve" smooth="yes"/>
      <point x="232.025" y="136.18193"/>
      <point x="189.45693" y="178.75"/>
      <point x="137.025" y="178.75" type="curve" smooth="yes"/>
      <point x="84.59307" y="178.75"/>
      <point x="42.025" y="136.18193"/>
      <point x="42.025" y="83.75" type="curve" smooth="yes"/>
      <point x="42.025" y="31.31807"/>
      <point x="84.59307" y="-11.25"/>
      <point x="137.025" y="-11.25" type="curve" smooth="yes"/>
      <point x="189.45693" y="-11.25"/>
      <point x="232.025" y="31.31807"/>
    </contour>
  </outline>
</glyph>
<glyph name="at" format="2">
  <advance width="1081.2674399999999"/>
  <unicode hex="0040"/>
  <outline>
    <contour>
      <point x="944.2424399999999" y="400.0" type="curve" smooth="yes"/>
      <point x="944.2424399999999" y="622.75772"/>
      <point x="763.39144" y="803.60872"/>
      <point x="540.63372" y="803.60872" type="curve" smooth="yes"/>
      <point x="317.876" y="803.60872"/>
      <point x="137.025" y="622.75772"/>
      <point x="137.025" y="400.0" type="curve" smooth="yes"/>
      <point x="137.025" y="177.24228"/>
      <point x="317.876" y="-3.60872"/>
      <point x="540.63372" y="-3.60872" type="curve" smooth="yes"/>
      <point x="763.39144" y="-3.60872"/>
      <point x="944.2424399999999" y="177.24228"/>
    </contour>
    <contour>
      <point x="325.6337203482056" y="415.0" type="curve"/>
      <point x="325.6337203979492" y="420" type="line"/>
      <point x="325.63372000000004" y="519.3447000000001"/>
      <point x="406.28902" y="600.0"/>
      <point x="505.63372000000004" y="600.0" type="curve"/>
      <point x="505.6337203979492" y="200" type="line"/>
      <point x="440.0294386569831" y="200.0"/>
      <point x="325.63371856540556" y="235.8012404050636"/>
    </contour>
    <contour>
      <point x="553.1337200723544" y="420.0" type="curve"/>
      <point x="553.1337203979492" y="600" type="line"/>
      <point x="733.1337203979492" y="600" type="line"/>
      <point x="733.1337203979492" y="200" type="line"/>
      <point x="679.7085861006323" y="200.0"/>
      <point x="553.1337197171835" y="223.64925692570455"/>
    </contour>
  </outline>
</glyph>
<glyph name="A" format="2">
  <advance width="501.55"/>
  <unicode hex="0041"/>
  <outline>
    <contour>
      <point x="47.025001525878906" y="0" type="line"/>
      <point x="227.0250015258789" y="0" type="line"/>
      <point x="227.0250015258789" y="805" type="line"/>
      <point x="173.5998672285619" y="805.0"/>
      <point x="47.024999618284305" y="781.3507430742955"/>
      <point x="47.02500009765625" y="585.0" type="curve"/>
    </contour>
    <contour>
      <point x="274.5250015258789" y="0" type="line"/>
      <point x="454.5250015258789" y="0" type="line"/>
      <point x="454.5250015258789" y="585.0" type="line"/>
      <point x="454.5250015258789" y="781.3507430742955"/>
      <point x="327.950134297317" y="805.0"/>
      <point x="274.525" y="805.0" type="curve"/>
    </contour>
  </outline>
</glyph>
<glyph name="B" format="2">
  <advance width="501.55"/>
  <unicode hex="0042"/>
  <outline>
    <contour>
      <point x="47.025001525878906" y="0" type="line"/>
      <point x="227.0250015258789" y="0" type="line"/>
      <point x="227.0250015258789" y="800" type="line"/>
      <point x="47.025001525878906" y="800" type="line"/>
    </contour>
    <contour>
      <point x="274.5250015258789" y="400" type="line"/>
      <point x="340.12928326684505" y="400.0"/>
      <point x="454.52499449925375" y="435.8012404050637"/>
      <point x="454.52500133514405" y="615.0" type="curve"/>
      <point x="454.5250015258789" y="620" type="line"/>
      <point x="454.525" y="719.3447"/>
      <point x="373.8697" y="800.0"/>
      <point x="274.525" y="800.0" type="curve"/>
    </contour>
    <contour>
      <point x="274.5250015258789" y="0" type="line"/>
      <point x="340.12928326684505" y="0.0"/>
      <point x="454.52499449925375" y="35.80124040506374"/>
      <point x="454.52500133514405" y="215.0" type="curve"/>
      <point x="454.5250015258789" y="220" type="line"/>
      <point x="454.525" y="319.34470000000005"/>
      <point x="373.8697" y="400.0"/>
      <point x="274.525" y="400.0" type="curve"/>
    </contour>
  </outline>
</glyph>
<glyph name="D" format="2">
  <advance width="501.55"/>
  <unicode hex="0044"/>
  <outline>
    <contour>
      <point x="47.025001525878906" y="0" type="line"/>
      <point x="227.0250015258789" y="0" type="line"/>
      <point x="227.0250015258789" y="800" type="line"/>
      <point x="47.025001525878906" y="800" type="line"/>
    </contour>
    <contour>
      <point x="274.5250015258789" y="0" type="line"/>
      <point x="327.9501358231959" y="0.0"/>
      <point x="454.5249994577902" y="23.64925692570455"/>
      <point x="454.5250001387162" y="220.0" type="curve"/>
      <point x="454.52500138716266" y="580.0" type="line"/>
      <point x="454.52500206808867" y="776.3507430742955"/>
      <point x="327.950134297317" y="800.0"/>
      <point x="274.525" y="800.0" type="curve"/>
    </contour>
  </outline>
</glyph>
<glyph name="F" format="2">
  <advance width="501.55"/>
  <unicode hex="0046"/>
  <outline>
    <contour>
      <point x="47.025001525878906" y="0" type="line"/>
      <point x="227.0250015258789" y="0" type="line"/>
      <point x="227.0250015258789" y="800" type="line"/>
      <point x="47.025001525878906" y="800" type="line"/>
    </contour>
    <contour>
      <point x="274.525" y="800.0" type="line"/>
      <point x="274.525" y="700.6553"/>
      <point x="355.1803" y="620.0"/>
      <point x="454.525" y="620.0" type="curve"/>
      <point x="454.525" y="800.0" type="line"/>
    </contour>
    <contour>
      <point x="274.525" y="490.0" type="line"/>
      <point x="274.525" y="390.6553"/>
      <point x="355.1803" y="310.0"/>
      <point x="454.525" y="310.0" type="curve"/>
      <point x="454.525" y="490.0" type="line"/>
    </contour>
  </outline>
</glyph>
<glyph name="J" format="2">
  <advance width="501.55"/>
  <unicode hex="004A"/>
  <outline>
    <contour>
      <point x="274.5250015258789" y="-5" type="line"/>
      <point x="327.9501358231959" y="-5.0"/>
      <point x="454.52499961828426" y="18.64925692570455"/>
      <point x="454.52500009765623" y="215.0" type="curve"/>
      <point x="454.5250015258789" y="800" type="line"/>
      <point x="274.5250015258789" y="800" type="line"/>
    </contour>
    <contour>
      <point x="232.025" y="85.0" type="curve" smooth="yes"/>
      <point x="232.025" y="137.43193"/>
      <point x="189.45693" y="180.0"/>
      <point x="137.025" y="180.0" type="curve" smooth="yes"/>
      <point x="84.59307" y="180.0"/>
      <point x="42.025" y="137.43193"/>
      <point x="42.025" y="85.0" type="curve" smooth="yes"/>
      <point x="42.025" y="32.56807"/>
      <point x="84.59307" y="-10.0"/>
      <point x="137.025" y="-10.0" type="curve" smooth="yes"/>
      <point x="189.45693" y="-10.0"/>
      <point x="232.025" y="32.56807"/>
    </contour>
  </outline>
</glyph>
<glyph name="M" format="2">
  <advance width="729.05"/>
  <unicode hex="004D"/>
  <outline>
    <contour>
      <point x="47.025001525878906" y="0" type="line"/>
      <point x="227.0250015258789" y="0" type="line"/>
      <point x="227.0250015258789" y="800" type="line"/>
      <point x="47.025001525878906" y="800" type="line"/>
    </contour>
    <contour>
      <point x="274.5250015258789" y="0" type="line"/>
      <point x="454.5250015258789" y="0" type="line"/>
      <point x="454.5250015258789" y="800" type="line"/>
      <point x="274.5250015258789" y="800" type="line"/>
    </contour>
    <contour>
      <point x="502.0250015258789" y="0" type="line"/>
      <point x="682.0250015258789" y="0" type="line"/>
      <point x="682.0250015258789" y="580.0" type="line"/>
      <point x="682.0250015258789" y="776.3507430742955"/>
      <point x="555.450134297317" y="800.0"/>
      <point x="502.025" y="800.0" type="curve"/>
    </contour>
  </outline>
</glyph>
<glyph name="P" format="2">
  <advance width="501.55"/>
  <unicode hex="0050"/>
  <outline>
    <contour>
      <point x="47.025001525878906" y="0" type="line"/>
      <point x="227.0250015258789" y="0" type="line"/>
      <point x="227.0250015258789" y="800" type="line"/>
      <point x="47.025001525878906" y="800" type="line"/>
    </contour>
    <contour>
      <point x="274.5250015258789" y="200" type="line"/>
      <point x="327.9501358231959" y="200.0"/>
      <point x="454.5249990059487" y="223.64925692570455"/>
      <point x="454.5250002543131" y="420.0" type="curve"/>
      <point x="454.52500127156577" y="580.0" type="line"/>
      <point x="454.5250025199302" y="776.3507430742955"/>
      <point x="327.950134297317" y="800.0"/>
      <point x="274.525" y="800.0" type="curve"/>
    </contour>
  </outline>
</glyph>
<glyph name="Q" format="2">
  <advance width="501.55"/>
  <unicode hex="0051"/>
  <outline>
    <contour>
      <point x="47.02500139024522" y="215.0" type="line"/>
      <point x="47.02500205603959" y="18.64925692570455"/>
      <point x="173.59986570268296" y="-4.999999999999994"/>
      <point x="227.025" y="-5.0" type="curve"/>
      <point x="227.0250015258789" y="805" type="line"/>
      <point x="173.5998672285619" y="805.0"/>
      <point x="47.02499946983933" y="781.3507430742955"/>
      <point x="47.025000135633675" y="585.0" type="curve"/>
    </contour>
    <contour>
      <point x="274.5611522048902" y="35.00057978989654" type="line"/>
      <point x="274.57059674810165" y="-166.15707626575593"/>
      <point x="415.25666884726115" y="-180.0"/>
      <point x="454.525" y="-180.0" type="curve"/>
      <point x="454.5250015258789" y="0" type="line"/>
      <point x="316.7406921386719" y="0" type="line"/>
      <point x="450.23699333416823" y="32.11141599261523"/>
      <point x="454.5249999544751" y="161.57413762642295"/>
      <point x="454.5250001356338" y="215.0" type="curve"/>
      <point x="454.5250013902452" y="585.0" type="line"/>
      <point x="454.52500205603957" y="781.3507430742955"/>
      <point x="327.950134297317" y="805.0"/>
      <point x="274.525" y="805.0" type="curve"/>
    </contour>
  </outline>
</glyph>
<glyph name="V" format="2">
  <advance width="501.55"/>
  <unicode hex="0056"/>
  <outline>
    <contour>
      <point x="47.02500142822266" y="215.0" type="line"/>
      <point x="47.02500190759459" y="18.64925692570455"/>
      <point x="173.59986570268296" y="-4.999999999999994"/>
      <point x="227.025" y="-5.0" type="curve"/>
      <point x="227.02500142822265" y="580.0" type="line"/>
      <point x="227.02500190759457" y="776.3507430742955"/>
      <point x="100.45013429731704" y="800.0"/>
      <point x="47.025" y="800.0" type="curve"/>
    </contour>
    <contour>
      <point x="274.5250015258789" y="-5" type="line"/>
      <point x="327.9501358231959" y="-5.0"/>
      <point x="454.52499961828426" y="18.64925692570455"/>
      <point x="454.52500009765623" y="215.0" type="curve"/>
      <point x="454.5250015258789" y="800" type="line"/>
      <point x="274.5250015258789" y="800" type="line"/>
    </contour>
  </outline>
</glyph>
<glyph name="X" format="2">
  <advance width="501.55"/>
  <unicode hex="0058"/>
  <outline>
    <contour>
      <point x="47.025001525878906" y="620.0" type="line"/>
      <point x="47.02500152587892" y="423.64925692570455"/>
      <point x="173.59986570268296" y="400.0"/>
      <point x="227.025" y="400.0" type="curve"/>
      <point x="227.0250015258789" y="800" type="line"/>
      <point x="47.025001525878906" y="800" type="line"/>
    </contour>
    <contour>
      <point x="274.5250015258789" y="400" type="line"/>
      <point x="327.9501358231959" y="400.0"/>
      <point x="454.5249989155804" y="423.64925692570455"/>
      <point x="454.5250002774325" y="620.0" type="curve"/>
      <point x="454.5250015258789" y="800" type="line"/>
      <point x="274.5250015258789" y="800" type="line"/>
    </contour>
    <contour>
      <point x="47.025001525878906" y="0" type="line"/>
      <point x="227.0250015258789" y="0" type="line"/>
      <point x="227.0250015258789" y="400" type="line"/>
      <point x="173.5998672285619" y="400.0"/>
      <point x="47.02499891558045" y="376.35074307429545"/>
      <point x="47.025000277432525" y="180.0" type="curve"/>
    </contour>
    <contour>
      <point x="274.5250015258789" y="0" type="line"/>
      <point x="454.5250015258789" y="0" type="line"/>
      <point x="454.5250015258789" y="180.0" type="line"/>
      <point x="454.5250015258789" y="376.35074307429545"/>
      <point x="327.950134297317" y="400.0"/>
      <point x="274.525" y="400.0" type="curve"/>
    </contour>
  </outline>
</glyph>
<glyph name="bracketleft" format="2">
  <advance width="454.05"/>
  <unicode hex="005B"/>
  <outline>
    <contour>
      <point x="47.025001525878906" y="-100" type="line"/>
      <point x="407.0250015258789" y="-100" type="line"/>
      <point x="407.025" y="-0.6553"/>
      <point x="326.36969999999997" y="80.0"/>
      <point x="227.025" y="80.0" type="curve"/>
      <point x="227.0250015258789" y="720" type="line"/>
      <point x="326.36969999999997" y="720.0"/>
      <point x="407.025" y="800.6553"/>
      <point x="407.025" y="900.0" type="curve"/>
      <point x="47.025001525878906" y="900" type="line"/>
    </contour>
  </outline>
</glyph>
<glyph name="backslash" format="2">
  <advance width="513.3191659323846"/>
  <unicode hex="005C"/>
  <outline>
    <contour>
      <point x="237.92480497243173" y="106.48848734807613" type="line"/>
      <point x="285.9803416526888" y="-83.89081746261083"/>
      <point x="414.4938021683427" y="-75.84249500230308"/>
      <point x="466.29416593238466" y="-62.76704898316888" type="curve"/>
      <point x="275.3943557398844" y="693.5115127152536" type="line"/>
      <point x="227.33881782806466" y="883.8908172150695"/>
      <point x="98.82536376404195" y="875.842495002303"/>
      <point x="47.025" y="862.7670489831689" type="curve"/>
    </contour>
  </outline>
</glyph>
<glyph name="bracketright" format="2">
  <advance width="454.05"/>
  <unicode hex="005D"/>
  <outline>
    <contour>
      <point x="227.0250015258789" y="80" type="line"/>
      <point x="127.68030000000002" y="80.0"/>
      <point x="47.025" y="-0.6553"/>
      <point x="47.025" y="-100.0" type="curve"/>
      <point x="407.0250015258789" y="-100" type="line"/>
      <point x="407.0250015258789" y="900" type="line"/>
      <point x="47.025001525878906" y="900" type="line"/>
      <point x="47.025" y="800.6553"/>
      <point x="127.68030000000002" y="720.0"/>
      <point x="227.025" y="720.0" type="curve"/>
    </contour>
  </outline>
</glyph>
<glyph name="b" format="2">
  <advance width="501.55"/>
  <unicode hex="0062"/>
  <outline>
    <contour>
      <point x="47.025001525878906" y="0" type="line"/>
      <point x="227.0250015258789" y="0" type="line"/>
      <point x="227.0250015258789" y="800" type="line"/>
      <point x="47.025001525878906" y="800" type="line"/>
    </contour>
    <contour>
      <point x="274.5250015258789" y="0" type="line"/>
      <point x="327.9501358231959" y="0.0"/>
      <point x="454.52499902623543" y="23.64925692570455"/>
      <point x="454.5250002491231" y="220.0" type="curve"/>
      <point x="454.5250012767558" y="385.0" type="line"/>
      <point x="454.5250024996434" y="581.3507430742955"/>
      <point x="327.950134297317" y="605.0"/>
      <point x="274.525" y="605.0" type="curve"/>
    </contour>
  </outline>
</glyph>
<glyph name="c" format="2">
  <advance width="501.55"/>
  <unicode hex="0063"/>
  <outline>
    <contour>
      <point x="47.025001276755816" y="220.0" type="line"/>
      <point x="47.025002499643406" y="23.64925692570455"/>
      <point x="173.59986570268296" y="6.542691971122679e-15"/>
      <point x="227.025" y="0.0" type="curve"/>
      <point x="227.0250015258789" y="605" type="line"/>
      <point x="173.5998672285619" y="605.0"/>
      <point x="47.02499902623551" y="581.3507430742955"/>
      <point x="47.02500024912308" y="385.0" type="curve"/>
    </contour>
    <contour>
      <point x="459.525" y="510.0" type="curve" smooth="yes"/>
      <point x="459.525" y="562.43193"/>
      <point x="416.95693" y="605.0"/>
      <point x="364.525" y="605.0" type="curve" smooth="yes"/>
      <point x="312.09306999999995" y="605.0"/>
      <point x="269.525" y="562.43193"/>
      <point x="269.525" y="510.0" type="curve" smooth="yes"/>
      <point x="269.525" y="457.56807"/>
      <point x="312.09306999999995" y="415.0"/>
      <point x="364.525" y="415.0" type="curve" smooth="yes"/>
      <point x="416.95693" y="415.0"/>
      <point x="459.525" y="457.56807"/>
    </contour>
    <contour>
      <point x="451.7125" y="180.0" type="line"/>
      <point x="352.3678" y="180.0"/>
      <point x="271.7125" y="99.3447"/>
      <point x="271.7125" y="0.0" type="curve"/>
      <point x="451.7125" y="0.0" type="line"/>
    </contour>
  </outline>
</glyph>
<glyph name="d" format="2">
  <advance width="501.55"/>
  <unicode hex="0064"/>
  <outline>
    <contour>
      <point x="274.5250015258789" y="0" type="line"/>
      <point x="454.5250015258789" y="0" type="line"/>
      <point x="454.5250015258789" y="800" type="line"/>
      <point x="274.5250015258789" y="800" type="line"/>
    </contour>
    <contour>
      <point x="47.025001276755816" y="220.0" type="line"/>
      <point x="47.025002499643406" y="23.64925692570455"/>
      <point x="173.59986570268296" y="6.542691971122679e-15"/>
      <point x="227.025" y="0.0" type="curve"/>
      <point x="227.0250015258789" y="605" type="line"/>
      <point x="173.5998672285619" y="605.0"/>
      <point x="47.02499902623551" y="581.3507430742955"/>
      <point x="47.02500024912308" y="385.0" type="curve"/>
    </contour>
  </outline>
</glyph>
<glyph name="f" format="2">
  <advance width="501.55"/>
  <unicode hex="0066"/>
  <outline>
    <contour>
      <point x="47.025001525878906" y="0" type="line"/>
      <point x="227.0250015258789" y="0" type="line"/>
      <point x="227.0250015258789" y="800" type="line"/>
      <point x="173.5998672285619" y="800.0"/>
      <point x="47.02499961520596" y="776.3507430742955"/>
      <point x="47.0250000984438" y="580.0" type="curve"/>
    </contour>
    <contour>
      <point x="274.525" y="800.0" type="line"/>
      <point x="274.525" y="700.6553"/>
      <point x="355.1803" y="620.0"/>
      <point x="454.525" y="620.0" type="curve"/>
      <point x="454.525" y="800.0" type="line"/>
    </contour>
    <contour>
      <point x="274.525" y="587.5" type="line"/>
      <point x="274.525" y="488.1553"/>
      <point x="355.1803" y="407.5"/>
      <point x="454.525" y="407.5" type="curve"/>
      <point x="454.525" y="587.5" type="line"/>
    </contour>
  </outline>
</glyph>
<glyph name="l" format="2">
  <advance width="274.05"/>
  <unicode hex="006C"/>
  <outline>
    <contour>
      <point x="47.025001525878906" y="215.0" type="line"/>
      <point x="47.02500152587892" y="18.64925692570455"/>
      <point x="173.59986570268296" y="-4.999999999999994"/>
      <point x="227.025" y="-5.0" type="curve"/>
      <point x="227.0250015258789" y="800" type="line"/>
      <point x="47.025001525878906" y="800" type="line"/>
    </contour>
  </outline>
</glyph>
<glyph name="n" format="2">
  <advance width="501.55"/>
  <unicode hex="006E"/>
  <outline>
    <contour>
      <point x="47.025001525878906" y="0" type="line"/>
      <point x="227.0250015258789" y="0" type="line"/>
      <point x="227.0250015258789" y="600" type="line"/>
      <point x="47.025001525878906" y="600" type="line"/>
    </contour>
    <contour>
      <point x="274.5250015258789" y="0" type="line"/>
      <point x="454.5250015258789" y="0" type="line"/>
      <point x="454.5250015258789" y="380.0" type="line"/>
      <point x="454.5250015258789" y="576.3507430742955"/>
      <point x="327.950134297317" y="600.0"/>
      <point x="274.525" y="600.0" type="curve"/>
    </contour>
  </outline>
</glyph>
<glyph name="p" format="2">
  <advance width="501.55"/>
  <unicode hex="0070"/>
  <outline>
    <contour>
      <point x="47.025001525878906" y="-200" type="line"/>
      <point x="227.0250015258789" y="-200" type="line"/>
      <point x="227.0250015258789" y="600" type="line"/>
      <point x="47.025001525878906" y="600" type="line"/>
    </contour>
    <contour>
      <point x="274.5250015258789" y="0" type="line"/>
      <point x="327.9501358231959" y="0.0"/>
      <point x="454.5249990059487" y="23.64925692570455"/>
      <point x="454.5250002543131" y="220.0" type="curve"/>
      <point x="454.52500127156577" y="380.0" type="line"/>
      <point x="454.5250025199302" y="576.3507430742955"/>
      <point x="327.950134297317" y="600.0"/>
      <point x="274.525" y="600.0" type="curve"/>
    </contour>
  </outline>
</glyph>
<glyph name="q" format="2">
  <advance width="501.55"/>
  <unicode hex="0071"/>
  <outline>
    <contour>
      <point x="47.025001271565756" y="220.0" type="line"/>
      <point x="47.02500251993016" y="23.64925692570455"/>
      <point x="173.59986570268296" y="6.542691971122679e-15"/>
      <point x="227.025" y="0.0" type="curve"/>
      <point x="227.0250015258789" y="600" type="line"/>
      <point x="173.5998672285619" y="600.0"/>
      <point x="47.024999005948736" y="576.3507430742955"/>
      <point x="47.025000254313156" y="380.0" type="curve"/>
    </contour>
    <contour>
      <point x="274.5250015258789" y="-200" type="line"/>
      <point x="454.5250015258789" y="-200" type="line"/>
      <point x="454.5250015258789" y="600" type="line"/>
      <point x="274.5250015258789" y="600" type="line"/>
    </contour>
  </outline>
</glyph>
<glyph name="v" format="2">
  <advance width="501.55"/>
  <unicode hex="0076"/>
  <outline>
    <contour>
      <point x="47.02500138393668" y="215.0" type="line"/>
      <point x="47.025002080698194" y="18.64925692570455"/>
      <point x="173.59986570268296" y="-4.999999999999994"/>
      <point x="227.025" y="-5.0" type="curve"/>
      <point x="227.02500138393668" y="385.0" type="line"/>
      <point x="227.0250020806982" y="581.3507430742955"/>
      <point x="100.45013429731704" y="605.0"/>
      <point x="47.025" y="605.0" type="curve"/>
    </contour>
    <contour>
      <point x="274.5250015258789" y="-5" type="line"/>
      <point x="327.9501358231959" y="-5.0"/>
      <point x="454.52499943865337" y="18.64925692570455"/>
      <point x="454.5250001436121" y="215.0" type="curve"/>
      <point x="454.5250015258789" y="600" type="line"/>
      <point x="274.5250015258789" y="600" type="line"/>
    </contour>
  </outline>
</glyph>
<glyph name="x" format="2">
  <advance width="501.55"/>
  <unicode hex="0078"/>
  <outline>
    <contour>
      <point x="47.025001525878906" y="520.0" type="line"/>
      <point x="47.02500152587892" y="323.64925692570455"/>
      <point x="173.59986570268296" y="300.0"/>
      <point x="227.025" y="300.0" type="curve"/>
      <point x="227.0250015258789" y="600" type="line"/>
      <point x="47.025001525878906" y="600" type="line"/>
    </contour>
    <contour>
      <point x="274.5250015258789" y="300" type="line"/>
      <point x="327.9501358231959" y="300.0"/>
      <point x="454.5249980118974" y="323.64925692570455"/>
      <point x="454.5250005086263" y="520.0" type="curve"/>
      <point x="454.5250015258789" y="600" type="line"/>
      <point x="274.5250015258789" y="600" type="line"/>
    </contour>
    <contour>
      <point x="47.025001525878906" y="0" type="line"/>
      <point x="227.0250015258789" y="0" type="line"/>
      <point x="227.0250015258789" y="300" type="line"/>
      <point x="173.5998672285619" y="300.0"/>
      <point x="47.02499801189749" y="276.35074307429545"/>
      <point x="47.0250005086263" y="80.0" type="curve"/>
    </contour>
    <contour>
      <point x="274.5250015258789" y="0" type="line"/>
      <point x="454.5250015258789" y="0" type="line"/>
      <point x="454.5250015258789" y="80.0" type="line"/>
      <point x="454.5250015258789" y="276.35074307429545"/>
      <point x="327.950134297317" y="300.0"/>
      <point x="274.525" y="300.0" type="curve"/>
    </contour>
  </outline>
</glyph>
<glyph name="z" format="2">
  <advance width="501.55"/>
  <unicode hex="007A"/>
  <outline>
    <contour>
      <point x="47.025" y="420.0" type="line"/>
      <point x="146.3697" y="420.0"/>
      <point x="227.025" y="500.6553"/>
      <point x="227.025" y="600.0" type="curve"/>
      <point x="47.025" y="600.0" type="line"/>
    </contour>
    <contour>
      <point x="274.5250015258789" y="210" type="line"/>
      <point x="327.9501358231959" y="210.0"/>
      <point x="454.5249988639414" y="233.64925692570455"/>
      <point x="454.52500029064356" y="430.0" type="curve"/>
      <point x="454.5250015258789" y="600" type="line"/>
      <point x="274.5250015258789" y="600" type="line"/>
    </contour>
    <contour>
      <point x="47.025001525878906" y="0" type="line"/>
      <point x="227.0250015258789" y="0" type="line"/>
      <point x="227.0250015258789" y="390" type="line"/>
      <point x="173.5998672285619" y="390.0"/>
      <point x="47.02499886394141" y="366.35074307429545"/>
      <point x="47.025000290643604" y="170.0" type="curve"/>
    </contour>
    <contour>
      <point x="454.525" y="180.0" type="line"/>
      <point x="355.1803" y="180.0"/>
      <point x="274.525" y="99.3447"/>
      <point x="274.525" y="0.0" type="curve"/>
      <point x="454.525" y="0.0" type="line"/>
    </contour>
  </outline>
</glyph>
<glyph name="braceright" format="2">
  <advance width="274.05"/>
  <unicode hex="007D"/>
  <outline>
    <contour>
      <point x="47.02500133514405" y="620.0" type="line"/>
      <point x="47.02500227141734" y="423.64925692570455"/>
      <point x="173.59986570268296" y="400.0"/>
      <point x="227.025" y="400.0" type="curve"/>
      <point x="227.02500133514405" y="680.0" type="line"/>
      <point x="227.02500227141735" y="876.3507430742955"/>
      <point x="100.45013429731704" y="900.0"/>
      <point x="47.025" y="900.0" type="curve"/>
    </contour>
    <contour>
      <point x="47.025001525878906" y="-100" type="line"/>
      <point x="100.45013582319592" y="-100.0"/>
      <point x="227.02499925446153" y="-76.35074307429545"/>
      <point x="227.02500019073486" y="120.0" type="curve"/>
      <point x="227.0250015258789" y="400" type="line"/>
      <point x="173.5998672285619" y="400.0"/>
      <point x="47.02499925446155" y="376.35074307429545"/>
      <point x="47.025000190734865" y="180.0" type="curve"/>
    </contour>
  </outline>
</glyph>
<glyph name="tilde" format="2">
  <advance width="501.55"/>
  <unicode hex="007E"/>
  <outline>
    <contour>
      <point x="234.5250015258789" y="310.0" type="line"/>
      <point x="430.87574460017436" y="310.0"/>
      <point x="454.525" y="436.574865702683"/>
      <point x="454.525" y="490.0" type="curve"/>
      <point x="267.0250015258789" y="490.0" type="line"/>
      <point x="70.67425845158346" y="490.0"/>
      <point x="47.025" y="363.425134297317"/>
      <point x="47.025" y="310.0" type="curve"/>
    </contour>
  </outline>
</glyph>
<glyph name="invexclamation" format="2">
  <advance width="274.05"/>
  <unicode hex="00A1"/>
  <outline>
    <contour>
      <point x="232.025" y="516.25" type="curve" smooth="yes"/>
      <point x="232.025" y="568.68193"/>
      <point x="189.45693" y="611.25"/>
      <point x="137.025" y="611.25" type="curve" smooth="yes"/>
      <point x="84.59307" y="611.25"/>
      <point x="42.025" y="568.68193"/>
      <point x="42.025" y="516.25" type="curve" smooth="yes"/>
      <point x="42.025" y="463.81807"/>
      <point x="84.59307" y="421.25"/>
      <point x="137.025" y="421.25" type="curve" smooth="yes"/>
      <point x="189.45693" y="421.25"/>
      <point x="232.025" y="463.81807"/>
    </contour>
    <contour>
      <point x="47.025001525878906" y="-200" type="line"/>
      <point x="227.0250015258789" y="-200" type="line"/>
      <point x="227.0250015258789" y="391.6666717529297" type="line"/>
      <point x="47.025001525878906" y="391.6666717529297" type="line"/>
    </contour>
  </outline>
</glyph>
<glyph name="cent" format="2">
  <advance width="501.55"/>
  <unicode hex="00A2"/>
  <outline>
    <contour>
      <point x="137.0250015258789" y="0" type="line"/>
      <point x="227.0250015258789" y="0" type="line"/>
      <point x="227.0250015258789" y="600" type="line"/>
      <point x="137.0250015258789" y="600" type="line"/>
      <point x="137.0250015258789" y="475.8662796020508" type="line"/>
      <point x="52.83623705643471" y="427.15405979085165"/>
      <point x="47.024998911230405" y="348.54144224828235"/>
      <point x="47.02500133514405" y="285.0" type="curve"/>
      <point x="47.025001525878906" y="280" type="line"/>
      <point x="47.02499999999993" y="213.4313987139797"/>
      <point x="83.2394891175201" y="155.25440163840662"/>
      <point x="137.0250015258789" y="124.13048553466797" type="curve"/>
    </contour>
    <contour>
      <point x="274.5250015258789" y="540.0" type="line"/>
      <point x="274.5250015258789" y="343.64925692570455"/>
      <point x="401.09986570268296" y="320.0"/>
      <point x="454.525" y="320.0" type="curve"/>
      <point x="454.5250015258789" y="500" type="line"/>
      <point x="364.5250015258789" y="500" type="line"/>
      <point x="364.5250015258789" y="600" type="line"/>
      <point x="274.5250015258789" y="600" type="line"/>
    </contour>
    <contour>
      <point x="274.5250015258789" y="0" type="line"/>
      <point x="364.5250015258789" y="0" type="line"/>
      <point x="364.5250015258789" y="100" type="line"/>
      <point x="454.5250015258789" y="100" type="line"/>
      <point x="454.5250015258789" y="280" type="line"/>
      <point x="401.0998672285619" y="280.0"/>
      <point x="274.5249976142769" y="256.35074307429545"/>
      <point x="274.5250006103515" y="60.00000000000001" type="curve"/>
    </contour>
  </outline>
</glyph>
<glyph name="pound" format="2">
  <advance width="644.05"/>
  <unicode hex="00A3"/>
  <outline>
    <contour>
      <point x="184.5250015258789" y="0" type="line"/>
      <point x="364.5250015258789" y="0" type="line"/>
      <point x="364.5250015258789" y="805" type="line"/>
      <point x="311.0998672285619" y="805.0"/>
      <point x="184.5249996182843" y="781.3507430742955"/>
      <point x="184.52500009765626" y="585.0" type="curve"/>
    </contour>
    <contour>
      <point x="597.025" y="710.0" type="curve" smooth="yes"/>
      <point x="597.025" y="762.43193"/>
      <point x="554.4569299999999" y="805.0"/>
      <point x="502.025" y="805.0" type="curve" smooth="yes"/>
      <point x="449.59306999999995" y="805.0"/>
      <point x="407.025" y="762.43193"/>
      <point x="407.025" y="710.0" type="curve" smooth="yes"/>
      <point x="407.025" y="657.56807"/>
      <point x="449.59306999999995" y="615.0"/>
      <point x="502.025" y="615.0" type="curve" smooth="yes"/>
      <point x="554.4569299999999" y="615.0"/>
      <point x="597.025" y="657.56807"/>
    </contour>
    <contour>
      <point x="47.025" y="355.0" type="line"/>
      <point x="137.025" y="355.0" type="line"/>
      <point x="137.025" y="445.0" type="line"/>
      <point x="47.025" y="445.0" type="line"/>
    </contour>
    <contour>
      <point x="412.0250015258789" y="355" type="line"/>
      <point x="547.0250015258789" y="355" type="line"/>
      <point x="547.0250015258789" y="445" type="line"/>
      <point x="412.0250015258789" y="445" type="line"/>
    </contour>
    <contour>
      <point x="592.025" y="180.0" type="line"/>
      <point x="492.6803" y="180.0"/>
      <point x="412.025" y="99.3447"/>
      <point x="412.025" y="0.0" type="curve"/>
      <point x="592.025" y="0.0" type="line"/>
    </contour>
    <contour>
      <point x="47.025" y="0" type="line"/>
      <point x="137.025" y="0" type="line"/>
      <point x="137.025" y="90.0" type="line"/>
      <point x="47.025" y="90.0" type="line"/>
    </contour>
  </outline>
</glyph>
<glyph name="currency" format="2">
  <advance width="501.55"/>
  <unicode hex="00A4"/>
  <outline>
    <contour>
      <point x="47.025001525878906" y="205" type="line"/>
      <point x="137.0250015258789" y="205" type="line"/>
      <point x="137.0250015258789" y="234.13048553466797" type="line"/>
      <point x="163.50712305930145" y="218.77926374585928"/>
      <point x="194.2488985419" y="210.0"/>
      <point x="227.025" y="210.0" type="curve"/>
      <point x="227.0250015258789" y="590" type="line"/>
      <point x="194.2488985419" y="590.0"/>
      <point x="163.50712305930145" y="581.2207362541408"/>
      <point x="137.0250015258789" y="565.8662796020508" type="curve"/>
      <point x="137.0250015258789" y="595" type="line"/>
      <point x="47.025001525878906" y="595" type="line"/>
      <point x="47.025001525878906" y="505" type="line"/>
      <point x="74.16313934326172" y="505" type="line"/>
      <point x="48.77423009494903" y="464.32503837484086"/>
      <point x="47.0249985390453" y="429.1490259837158"/>
      <point x="47.02500114440918" y="395.0" type="curve"/>
      <point x="47.025001525878906" y="390" type="line"/>
      <point x="47.0250010582059" y="379.3116376817183"/>
      <point x="47.196361089814616" y="338.2084539370502"/>
      <point x="74.16022491455078" y="295" type="curve"/>
      <point x="47.025001525878906" y="295" type="line"/>
    </contour>
    <contour>
      <point x="274.5250015258789" y="210" type="line"/>
      <point x="307.3011014581" y="210.0"/>
      <point x="338.04287694069853" y="218.77926374585928"/>
      <point x="364.5250015258789" y="234.13372039794922" type="curve"/>
      <point x="364.5250015258789" y="205" type="line"/>
      <point x="454.5250015258789" y="205" type="line"/>
      <point x="454.5250015258789" y="295" type="line"/>
      <point x="427.38685607910156" y="295" type="line"/>
      <point x="452.77577019037676" y="335.6749585897456"/>
      <point x="454.5249985390451" y="370.8509740162842"/>
      <point x="454.52500114440915" y="405.0" type="curve"/>
      <point x="454.5250015258789" y="410" type="line"/>
      <point x="454.5250010582059" y="420.6883623182817"/>
      <point x="454.35363949840144" y="461.79154928665616"/>
      <point x="427.3897705078125" y="505" type="curve"/>
      <point x="454.5250015258789" y="505" type="line"/>
      <point x="454.5250015258789" y="595" type="line"/>
      <point x="364.5250015258789" y="595" type="line"/>
      <point x="364.5250015258789" y="565.869514465332" type="line"/>
      <point x="338.04287694069853" y="581.2207362541408"/>
      <point x="307.3011014581" y="590.0"/>
      <point x="274.525" y="590.0" type="curve"/>
    </contour>
  </outline>
</glyph>
<glyph name="yen" format="2">
  <advance width="776.55"/>
  <unicode hex="00A5"/>
  <outline>
    <contour>
      <point x="184.52500138226677" y="420.0" type="line"/>
      <point x="184.52500208722546" y="223.64925692570455"/>
      <point x="311.09986570268296" y="200.0"/>
      <point x="364.525" y="200.0" type="curve"/>
      <point x="364.5250013822668" y="585.0" type="line"/>
      <point x="364.5250020872255" y="781.3507430742955"/>
      <point x="237.95013429731705" y="805.0"/>
      <point x="184.525" y="805.0" type="curve"/>
    </contour>
    <contour>
      <point x="412.0250015258789" y="-5" type="line"/>
      <point x="465.4501358231959" y="-5.0"/>
      <point x="592.0249996182843" y="18.64925692570455"/>
      <point x="592.0250000976562" y="215.0" type="curve"/>
      <point x="592.0250015258789" y="800" type="line"/>
      <point x="412.0250015258789" y="800" type="line"/>
    </contour>
    <contour>
      <point x="47.025" y="530.0" type="line"/>
      <point x="137.025" y="530.0" type="line"/>
      <point x="137.025" y="620.0" type="line"/>
      <point x="47.025" y="620.0" type="line"/>
    </contour>
    <contour>
      <point x="639.525" y="530.0" type="line"/>
      <point x="729.525" y="530.0" type="line"/>
      <point x="729.525" y="620.0" type="line"/>
      <point x="639.525" y="620.0" type="line"/>
    </contour>
    <contour>
      <point x="47.025" y="380.0" type="line"/>
      <point x="137.025" y="380.0" type="line"/>
      <point x="137.025" y="470.0" type="line"/>
      <point x="47.025" y="470.0" type="line"/>
    </contour>
    <contour>
      <point x="639.525" y="380.0" type="line"/>
      <point x="729.525" y="380.0" type="line"/>
      <point x="729.525" y="470.0" type="line"/>
      <point x="639.525" y="470.0" type="line"/>
    </contour>
  </outline>
</glyph>
<glyph name="section" format="2">
  <advance width="501.55"/>
  <unicode hex="00A7"/>
  <outline>
    <contour>
      <point x="47.025001525878906" y="280" type="line"/>
      <point x="47.025000000000006" y="180.65529999999995"/>
      <point x="127.68029999999996" y="100.00000000000001"/>
      <point x="227.025" y="100.0" type="curve"/>
      <point x="227.0250015258789" y="800" type="line"/>
      <point x="151.05565517134167" y="800.0"/>
      <point x="47.02499333449993" y="751.0490635893432"/>
      <point x="47.025001271565756" y="595.0" type="curve"/>
      <point x="47.025001525878906" y="590" type="line"/>
      <point x="47.025" y="536.2520336825"/>
      <point x="70.63345563557453" y="487.97460520635093"/>
      <point x="108.03732299804688" y="454.9945983886719" type="curve"/>
      <point x="48.16100591667309" y="402.2173155145335"/>
      <point x="47.02499918315527" y="341.4130949440204"/>
      <point x="47.02500133514405" y="285.0" type="curve"/>
    </contour>
    <contour>
      <point x="274.525" y="800.0" type="line"/>
      <point x="274.525" y="700.6553"/>
      <point x="355.1803" y="620.0"/>
      <point x="454.525" y="620.0" type="curve"/>
      <point x="454.525" y="800.0" type="line"/>
    </contour>
    <contour>
      <point x="274.5250015258789" y="-200" type="line"/>
      <point x="350.49434788041617" y="-200.0"/>
      <point x="454.5249933344998" y="-151.04906358934315"/>
      <point x="454.52500127156577" y="5.000000000000007" type="curve"/>
      <point x="454.5250015258789" y="10" type="line"/>
      <point x="454.525" y="63.74796631749998"/>
      <point x="430.9165417890194" y="112.02539706445438"/>
      <point x="393.5126724243164" y="145.00540161132812" type="curve"/>
      <point x="453.3889927096905" y="197.78268085049817"/>
      <point x="454.5249991831552" y="258.58690505597957"/>
      <point x="454.52500133514405" y="315.0" type="curve"/>
      <point x="454.5250015258789" y="320" type="line"/>
      <point x="454.525" y="419.34470000000005"/>
      <point x="373.8697" y="500.0"/>
      <point x="274.525" y="500.0" type="curve"/>
    </contour>
    <contour>
      <point x="227.025" y="-200" type="line"/>
      <point x="227.025" y="-100.6553"/>
      <point x="146.3697" y="-20.0"/>
      <point x="47.025" y="-20.0" type="curve"/>
      <point x="47.025" y="-200" type="line"/>
    </contour>
  </outline>
</glyph>
<glyph name="registered" format="2">
  <advance width="1081.2674399999999"/>
  <unicode hex="00AE"/>
  <outline>
    <contour>
      <point x="944.2424399999999" y="400.0" type="curve" smooth="yes"/>
      <point x="944.2424399999999" y="622.75772"/>
      <point x="763.39144" y="803.60872"/>
      <point x="540.63372" y="803.60872" type="curve" smooth="yes"/>
      <point x="317.876" y="803.60872"/>
      <point x="137.025" y="622.75772"/>
      <point x="137.025" y="400.0" type="curve" smooth="yes"/>
      <point x="137.025" y="177.24228"/>
      <point x="317.876" y="-3.60872"/>
      <point x="540.63372" y="-3.60872" type="curve" smooth="yes"/>
      <point x="763.39144" y="-3.60872"/>
      <point x="944.2424399999999" y="177.24228"/>
    </contour>
    <contour>
      <point x="359.3837203979492" y="200" type="line"/>
      <point x="359.3837203979492" y="600" type="line"/>
      <point x="539.3837203979492" y="600" type="line"/>
      <point x="539.3837203979492" y="200" type="line"/>
    </contour>
    <contour>
      <point x="766.8837199999999" y="510.0" type="curve" smooth="yes"/>
      <point x="766.8837199999999" y="460.32765"/>
      <point x="726.55607" y="420.0"/>
      <point x="676.8837199999999" y="420.0" type="curve" smooth="yes"/>
      <point x="627.21137" y="420.0"/>
      <point x="586.88372" y="460.32765"/>
      <point x="586.88372" y="510.0" type="curve" smooth="yes"/>
      <point x="586.88372" y="559.67235"/>
      <point x="627.21137" y="600.0"/>
      <point x="676.8837199999999" y="600.0" type="curve" smooth="yes"/>
      <point x="726.55607" y="600.0"/>
      <point x="766.8837199999999" y="559.67235"/>
    </contour>
  </outline>
</glyph>
<glyph name="sup_two" format="2">
  <advance width="501.55"/>
  <unicode hex="00B2"/>
  <outline>
    <contour>
      <point x="237.65" y="710.0" type="curve" smooth="yes"/>
      <point x="237.65" y="762.43193"/>
      <point x="195.08193" y="805.0"/>
      <point x="142.65" y="805.0" type="curve" smooth="yes"/>
      <point x="90.21807" y="805.0"/>
      <point x="47.65" y="762.43193"/>
      <point x="47.65" y="710.0" type="curve" smooth="yes"/>
      <point x="47.65" y="657.56807"/>
      <point x="90.21807" y="615.0"/>
      <point x="142.65" y="615.0" type="curve" smooth="yes"/>
      <point x="195.08193" y="615.0"/>
      <point x="237.65" y="657.56807"/>
    </contour>
    <contour>
      <point x="274.5250015258789" y="393" type="line"/>
      <point x="327.9501358231959" y="393.0"/>
      <point x="454.52499541207106" y="416.64925692570466"/>
      <point x="454.525001173753" y="613.0" type="curve"/>
      <point x="454.52500132047214" y="618.0" type="line"/>
      <point x="454.52500471402647" y="733.6479935999298"/>
      <point x="367.0463559575857" y="805.0"/>
      <point x="274.525" y="805.0" type="curve"/>
    </contour>
    <contour>
      <point x="47.025" y="200.0" type="curve"/>
      <point x="454.5250015258789" y="200" type="line"/>
      <point x="454.5250015258789" y="380" type="line"/>
      <point x="267.0250015258789" y="380.0" type="line"/>
      <point x="70.67425845158346" y="380.0"/>
      <point x="47.025" y="253.42513429731704"/>
    </contour>
  </outline>
</glyph>
<glyph name="sup_three" format="2">
  <advance width="501.55"/>
  <unicode hex="00B3"/>
  <outline>
    <contour>
      <point x="232.025" y="710.0" type="curve" smooth="yes"/>
      <point x="232.025" y="762.43193"/>
      <point x="189.45693" y="805.0"/>
      <point x="137.025" y="805.0" type="curve" smooth="yes"/>
      <point x="84.59307" y="805.0"/>
      <point x="42.025" y="762.43193"/>
      <point x="42.025" y="710.0" type="curve" smooth="yes"/>
      <point x="42.025" y="657.56807"/>
      <point x="84.59307" y="615.0"/>
      <point x="137.025" y="615.0" type="curve" smooth="yes"/>
      <point x="189.45693" y="615.0"/>
      <point x="232.025" y="657.56807"/>
    </contour>
    <contour>
      <point x="274.5250015258789" y="600" type="line"/>
      <point x="358.2039737888112" y="600.0"/>
      <point x="454.524990840725" y="659.9475532863037"/>
      <point x="454.52500114440915" y="795.0" type="curve"/>
      <point x="454.5250015258789" y="800" type="line"/>
      <point x="274.5250015258789" y="800" type="line"/>
    </contour>
    <contour>
      <point x="274.5250015258789" y="195" type="line"/>
      <point x="327.9501358231959" y="195.0"/>
      <point x="454.5249946983932" y="218.64925692570466"/>
      <point x="454.5250013563368" y="415.0" type="curve"/>
      <point x="454.5250015258789" y="420" type="line"/>
      <point x="454.525" y="519.3447"/>
      <point x="373.8697" y="600.0"/>
      <point x="274.525" y="600.0" type="curve"/>
    </contour>
    <contour>
      <point x="232.025" y="290.0" type="curve" smooth="yes"/>
      <point x="232.025" y="342.43193"/>
      <point x="189.45693" y="385.0"/>
      <point x="137.025" y="385.0" type="curve" smooth="yes"/>
      <point x="84.59307" y="385.0"/>
      <point x="42.025" y="342.43193"/>
      <point x="42.025" y="290.0" type="curve" smooth="yes"/>
      <point x="42.025" y="237.56807"/>
      <point x="84.59307" y="195.0"/>
      <point x="137.025" y="195.0" type="curve" smooth="yes"/>
      <point x="189.45693" y="195.0"/>
      <point x="232.025" y="237.56807"/>
    </contour>
  </outline>
</glyph>
<glyph name="mu" format="2">
  <advance width="549.05"/>
  <unicode hex="00B5"/>
  <outline>
    <contour>
      <point x="47.025001525878906" y="-200" type="line"/>
      <point x="227.0250015258789" y="-200" type="line"/>
      <point x="227.0250015258789" y="600" type="line"/>
      <point x="47.025001525878906" y="600" type="line"/>
    </contour>
    <contour>
      <point x="274.5250015258789" y="220.0" type="line"/>
      <point x="274.5250015258789" y="6.82722190492791"/>
      <point x="412.09738334346855" y="5.1958844933872105e-15"/>
      <point x="494.525" y="-4.898587196589413e-15" type="curve"/>
      <point x="502.0250015258789" y="0" type="line"/>
      <point x="502.0250015258789" y="180" type="line"/>
      <point x="454.5250015258789" y="180" type="line"/>
      <point x="454.5250015258789" y="600" type="line"/>
      <point x="274.5250015258789" y="600" type="line"/>
    </contour>
  </outline>
</glyph>
<glyph name="periodcentered" format="2">
  <advance width="274.05"/>
  <unicode hex="00B7"/>
  <outline>
    <contour>
      <point x="232.025" y="400.0" type="curve" smooth="yes"/>
      <point x="232.025" y="452.43193"/>
      <point x="189.45693" y="495.0"/>
      <point x="137.025" y="495.0" type="curve" smooth="yes"/>
      <point x="84.59307" y="495.0"/>
      <point x="42.025" y="452.43193"/>
      <point x="42.025" y="400.0" type="curve" smooth="yes"/>
      <point x="42.025" y="347.56807"/>
      <point x="84.59307" y="305.0"/>
      <point x="137.025" y="305.0" type="curve" smooth="yes"/>
      <point x="189.45693" y="305.0"/>
      <point x="232.025" y="347.56807"/>
    </contour>
  </outline>
</glyph>
<glyph name="cedilla" format="2">
  <advance width="274.05"/>
  <unicode hex="00B8"/>
  <outline>
    <contour>
      <point x="305.775" y="-180.0" type="line"/>
      <point x="305.775" y="-80.6553"/>
      <point x="225.1197" y="0.0"/>
      <point x="125.775" y="0.0" type="curve"/>
      <point x="125.775" y="-180.0" type="line"/>
    </contour>
  </outline>
</glyph>
<glyph name="ordinalmasculine" format="2">
  <advance width="501.55"/>
  <unicode hex="00BA"/>
  <outline>
    <contour>
      <point x="47.025001525878906" y="580" type="line"/>
      <point x="47.025000000000006" y="480.65529999999995"/>
      <point x="127.68029999999996" y="400.0"/>
      <point x="227.025" y="400.0" type="curve"/>
      <point x="227.0250015258789" y="800" type="line"/>
      <point x="161.42071978491273" y="800.0"/>
      <point x="47.024994499253864" y="764.1987595949363"/>
      <point x="47.02500133514404" y="585.0" type="curve"/>
    </contour>
    <contour>
      <point x="274.5250015258789" y="400" type="line"/>
      <point x="340.12928326684505" y="400.0"/>
      <point x="454.52499449925375" y="435.8012404050637"/>
      <point x="454.52500133514405" y="615.0" type="curve"/>
      <point x="454.5250015258789" y="620" type="line"/>
      <point x="454.525" y="719.3447"/>
      <point x="373.8697" y="800.0"/>
      <point x="274.525" y="800.0" type="curve"/>
    </contour>
  </outline>
</glyph>
<glyph name="one_over_four" format="2">
  <advance width="956.55"/>
  <unicode hex="00BC"/>
  <outline>
    <contour>
      <point x="23.275001525878906" y="200" type="line"/>
      <point x="203.2750015258789" y="200" type="line"/>
      <point x="203.2750015258789" y="800" type="line"/>
      <point x="23.275001525878906" y="800" type="line"/>
    </contour>
    <contour>
      <point x="274.5250015258789" y="-200" type="line"/>
      <point x="327.9501358231959" y="-200.0"/>
      <point x="454.52499970905814" y="-176.35074307429545"/>
      <point x="454.5250000744331" y="20.0" type="curve"/>
      <point x="454.5250015258789" y="800" type="line"/>
      <point x="401.0998672285619" y="800.0"/>
      <point x="274.52499970905814" y="776.3507430742955"/>
      <point x="274.5250000744331" y="580.0" type="curve"/>
    </contour>
    <contour>
      <point x="525.7750015258789" y="0" type="line"/>
      <point x="579.2001358231959" y="0.0"/>
      <point x="705.7749989155803" y="23.64925692570455"/>
      <point x="705.7750002774325" y="220.0" type="curve"/>
      <point x="705.7750015258789" y="400" type="line"/>
      <point x="525.7750015258789" y="400" type="line"/>
    </contour>
    <contour>
      <point x="753.2750015258789" y="-200" type="line"/>
      <point x="933.2750015258789" y="-200" type="line"/>
      <point x="933.2750015258789" y="200" type="line"/>
      <point x="753.2750015258789" y="200" type="line"/>
    </contour>
  </outline>
</glyph>
<glyph name="one_over_two" format="2">
  <advance width="956.55"/>
  <unicode hex="00BD"/>
  <outline>
    <contour>
      <point x="23.275001525878906" y="200" type="line"/>
      <point x="203.2750015258789" y="200" type="line"/>
      <point x="203.2750015258789" y="800" type="line"/>
      <point x="23.275001525878906" y="800" type="line"/>
    </contour>
    <contour>
      <point x="274.5250015258789" y="-200" type="line"/>
      <point x="327.9501358231959" y="-200.0"/>
      <point x="454.52499970905814" y="-176.35074307429545"/>
      <point x="454.5250000744331" y="20.0" type="curve"/>
      <point x="454.5250015258789" y="800" type="line"/>
      <point x="401.0998672285619" y="800.0"/>
      <point x="274.52499970905814" y="776.3507430742955"/>
      <point x="274.5250000744331" y="580.0" type="curve"/>
    </contour>
    <contour>
      <point x="716.4" y="310.0" type="curve" smooth="yes"/>
      <point x="716.4" y="362.43193"/>
      <point x="673.8319299999999" y="405.0"/>
      <point x="621.4" y="405.0" type="curve" smooth="yes"/>
      <point x="568.96807" y="405.0"/>
      <point x="526.4" y="362.43193"/>
      <point x="526.4" y="310.0" type="curve" smooth="yes"/>
      <point x="526.4" y="257.56807"/>
      <point x="568.96807" y="215.0"/>
      <point x="621.4" y="215.0" type="curve" smooth="yes"/>
      <point x="673.8319299999999" y="215.0"/>
      <point x="716.4" y="257.56807"/>
    </contour>
    <contour>
      <point x="753.2750015258789" y="-7" type="line"/>
      <point x="806.7001358231959" y="-7.0"/>
      <point x="933.274995412071" y="16.649256925704634"/>
      <point x="933.275001173753" y="213.0" type="curve"/>
      <point x="933.2750013204721" y="218.0" type="line"/>
      <point x="933.2750047140264" y="333.6479935999298"/>
      <point x="845.7963559575857" y="405.0"/>
      <point x="753.275" y="405.0" type="curve"/>
    </contour>
    <contour>
      <point x="525.775" y="-200.0" type="curve"/>
      <point x="933.2750015258789" y="-200" type="line"/>
      <point x="933.2750015258789" y="-20" type="line"/>
      <point x="745.7750015258789" y="-20.000000000000004" type="line"/>
      <point x="549.4242584515835" y="-19.99999999999998"/>
      <point x="525.775" y="-146.57486570268296"/>
    </contour>
  </outline>
</glyph>
<glyph name="three_over_four" format="2">
  <advance width="1184.05"/>
  <unicode hex="00BE"/>
  <outline>
    <contour>
      <point x="208.275" y="710.0" type="curve" smooth="yes"/>
      <point x="208.275" y="762.43193"/>
      <point x="165.70693" y="805.0"/>
      <point x="113.275" y="805.0" type="curve" smooth="yes"/>
      <point x="60.84307" y="805.0"/>
      <point x="18.275" y="762.43193"/>
      <point x="18.275" y="710.0" type="curve" smooth="yes"/>
      <point x="18.275" y="657.56807"/>
      <point x="60.84307" y="615.0"/>
      <point x="113.275" y="615.0" type="curve" smooth="yes"/>
      <point x="165.70693" y="615.0"/>
      <point x="208.275" y="657.56807"/>
    </contour>
    <contour>
      <point x="250.7750015258789" y="600" type="line"/>
      <point x="334.4539737888112" y="600.0"/>
      <point x="430.774990840725" y="659.9475532863037"/>
      <point x="430.77500114440915" y="795.0" type="curve"/>
      <point x="430.7750015258789" y="800" type="line"/>
      <point x="250.7750015258789" y="800" type="line"/>
    </contour>
    <contour>
      <point x="502.0250015258789" y="-200" type="line"/>
      <point x="555.4501358231959" y="-200.0"/>
      <point x="682.0249997090582" y="-176.35074307429545"/>
      <point x="682.0250000744331" y="20.0" type="curve"/>
      <point x="682.0250015258789" y="800" type="line"/>
      <point x="628.599867228562" y="800.0"/>
      <point x="502.02499970905814" y="776.3507430742955"/>
      <point x="502.0250000744331" y="580.0" type="curve"/>
    </contour>
    <contour>
      <point x="250.7750015258789" y="195" type="line"/>
      <point x="304.2001358231959" y="195.0"/>
      <point x="430.7749946983932" y="218.64925692570466"/>
      <point x="430.7750013563368" y="415.0" type="curve"/>
      <point x="430.7750015258789" y="420" type="line"/>
      <point x="430.775" y="519.3447"/>
      <point x="350.1197000000001" y="600.0"/>
      <point x="250.775" y="600.0" type="curve"/>
    </contour>
    <contour>
      <point x="753.2750015258789" y="0" type="line"/>
      <point x="806.7001358231959" y="0.0"/>
      <point x="933.2749989155803" y="23.64925692570455"/>
      <point x="933.2750002774325" y="220.0" type="curve"/>
      <point x="933.2750015258789" y="400" type="line"/>
      <point x="753.2750015258789" y="400" type="line"/>
    </contour>
    <contour>
      <point x="208.275" y="290.0" type="curve" smooth="yes"/>
      <point x="208.275" y="342.43193"/>
      <point x="165.70693" y="385.0"/>
      <point x="113.275" y="385.0" type="curve" smooth="yes"/>
      <point x="60.84307" y="385.0"/>
      <point x="18.275" y="342.43193"/>
      <point x="18.275" y="290.0" type="curve" smooth="yes"/>
      <point x="18.275" y="237.56807"/>
      <point x="60.84307" y="195.0"/>
      <point x="113.275" y="195.0" type="curve" smooth="yes"/>
      <point x="165.70693" y="195.0"/>
      <point x="208.275" y="237.56807"/>
    </contour>
    <contour>
      <point x="980.7750015258789" y="-200" type="line"/>
      <point x="1160.775001525879" y="-200" type="line"/>
      <point x="1160.775001525879" y="200" type="line"/>
      <point x="980.7750015258789" y="200" type="line"/>
    </contour>
  </outline>
</glyph>
<glyph name="invquestion" format="2">
  <advance width="501.55"/>
  <unicode hex="00BF"/>
  <outline>
    <contour>
      <point x="459.525" y="516.25" type="curve" smooth="yes"/>
      <point x="459.525" y="568.68193"/>
      <point x="416.95693" y="611.25"/>
      <point x="364.525" y="611.25" type="curve" smooth="yes"/>
      <point x="312.09306999999995" y="611.25"/>
      <point x="269.525" y="568.68193"/>
      <point x="269.525" y="516.25" type="curve" smooth="yes"/>
      <point x="269.525" y="463.81807"/>
      <point x="312.09306999999995" y="421.25"/>
      <point x="364.525" y="421.25" type="curve" smooth="yes"/>
      <point x="416.95693" y="421.25"/>
      <point x="459.525" y="463.81807"/>
    </contour>
    <contour>
      <point x="274.5250015258789" y="20" type="line"/>
      <point x="327.9501358231959" y="20.0"/>
      <point x="454.52499875527496" y="43.64925692570455"/>
      <point x="454.52500031844426" y="240.0" type="curve"/>
      <point x="454.5250015258789" y="391.6666717529297" type="line"/>
      <point x="274.5250015258789" y="391.6666717529297" type="line"/>
    </contour>
    <contour>
      <point x="47.025001525878906" y="-25" type="line"/>
      <point x="47.025000000000006" y="-124.34470000000003"/>
      <point x="127.68029999999996" y="-205.0"/>
      <point x="227.025" y="-205.0" type="curve"/>
      <point x="227.0250015258789" y="195" type="line"/>
      <point x="161.42071978491273" y="195.0"/>
      <point x="47.024994499253864" y="159.19875959493626"/>
      <point x="47.02500133514404" y="-20.0" type="curve"/>
    </contour>
    <contour>
      <point x="459.525" y="-122.5" type="curve" smooth="yes"/>
      <point x="459.525" y="-70.06807"/>
      <point x="416.95693" y="-27.5"/>
      <point x="364.525" y="-27.5" type="curve" smooth="yes"/>
      <point x="312.09306999999995" y="-27.5"/>
      <point x="269.525" y="-70.06807"/>
      <point x="269.525" y="-122.5" type="curve" smooth="yes"/>
      <point x="269.525" y="-174.93193"/>
      <point x="312.09306999999995" y="-217.5"/>
      <point x="364.525" y="-217.5" type="curve" smooth="yes"/>
      <point x="416.95693" y="-217.5"/>
      <point x="459.525" y="-174.93193"/>
    </contour>
  </outline>
</glyph>
<glyph name="A_with_grave" format="2">
  <advance width="501.55"/>
  <unicode hex="00C0"/>
  <outline>
    <contour>
      <point x="82.025" y="1016.1111111111111" type="line"/>
      <point x="82.025" y="916.7664111111111"/>
      <point x="162.68030000000002" y="836.1111111111111"/>
      <point x="262.025" y="836.1111111111111" type="curve"/>
      <point x="262.025" y="1016.1111111111111" type="line"/>
    </contour>
    <contour>
      <point x="47.025001525878906" y="0" type="line"/>
      <point x="227.0250015258789" y="0" type="line"/>
      <point x="227.0250015258789" y="805" type="line"/>
      <point x="173.5998672285619" y="805.0"/>
      <point x="47.024999618284305" y="781.3507430742955"/>
      <point x="47.02500009765625" y="585.0" type="curve"/>
    </contour>
    <contour>
      <point x="274.5250015258789" y="0" type="line"/>
      <point x="454.5250015258789" y="0" type="line"/>
      <point x="454.5250015258789" y="585.0" type="line"/>
      <point x="454.5250015258789" y="781.3507430742955"/>
      <point x="327.950134297317" y="805.0"/>
      <point x="274.525" y="805.0" type="curve"/>
    </contour>
  </outline>
</glyph>
<glyph name="A_with_circumflex" format="2">
  <advance width="501.55"/>
  <unicode hex="00C2"/>
  <outline>
    <contour>
      <point x="65.15" y="836.1111111111111" type="line"/>
      <point x="164.49470000000002" y="836.1111111111111"/>
      <point x="245.15" y="916.7664111111111"/>
      <point x="245.15" y="1016.1111111111111" type="curve"/>
      <point x="65.15" y="1016.1111111111111" type="line"/>
    </contour>
    <contour>
      <point x="256.4" y="1016.1111111111111" type="line"/>
      <point x="256.4" y="916.7664111111111"/>
      <point x="337.0553" y="836.1111111111111"/>
      <point x="436.4" y="836.1111111111111" type="curve"/>
      <point x="436.4" y="1016.1111111111111" type="line"/>
    </contour>
    <contour>
      <point x="47.025001525878906" y="0" type="line"/>
      <point x="227.0250015258789" y="0" type="line"/>
      <point x="227.0250015258789" y="805" type="line"/>
      <point x="173.5998672285619" y="805.0"/>
      <point x="47.024999618284305" y="781.3507430742955"/>
      <point x="47.02500009765625" y="585.0" type="curve"/>
    </contour>
    <contour>
      <point x="274.5250015258789" y="0" type="line"/>
      <point x="454.5250015258789" y="0" type="line"/>
      <point x="454.5250015258789" y="585.0" type="line"/>
      <point x="454.5250015258789" y="781.3507430742955"/>
      <point x="327.950134297317" y="805.0"/>
      <point x="274.525" y="805.0" type="curve"/>
    </contour>
  </outline>
</glyph>
<glyph name="A_with_smalltilde" format="2">
  <advance width="501.55"/>
  <unicode hex="00C3"/>
  <outline>
    <contour>
      <point x="210.7750015258789" y="836.1111137484327" type="line"/>
      <point x="407.1257446001743" y="836.1111174472902"/>
      <point x="430.775" y="962.685976813794"/>
      <point x="430.775" y="1016.1111111111111" type="curve"/>
      <point x="290.7750015258789" y="1016.1111137484327" type="line"/>
      <point x="94.42425845158351" y="1016.1111174472902"/>
      <point x="70.775" y="889.5362454084282"/>
      <point x="70.775" y="836.1111111111111" type="curve"/>
    </contour>
    <contour>
      <point x="47.025001525878906" y="0" type="line"/>
      <point x="227.0250015258789" y="0" type="line"/>
      <point x="227.0250015258789" y="805" type="line"/>
      <point x="173.5998672285619" y="805.0"/>
      <point x="47.024999618284305" y="781.3507430742955"/>
      <point x="47.02500009765625" y="585.0" type="curve"/>
    </contour>
    <contour>
      <point x="274.5250015258789" y="0" type="line"/>
      <point x="454.5250015258789" y="0" type="line"/>
      <point x="454.5250015258789" y="585.0" type="line"/>
      <point x="454.5250015258789" y="781.3507430742955"/>
      <point x="327.950134297317" y="805.0"/>
      <point x="274.525" y="805.0" type="curve"/>
    </contour>
  </outline>
</glyph>
<glyph name="A_with_diaeresis" format="2">
  <advance width="501.55"/>
  <unicode hex="00C4"/>
  <outline>
    <contour>
      <point x="232.025" y="926.1111111111111" type="curve" smooth="yes"/>
      <point x="232.025" y="978.543041111111"/>
      <point x="189.45693" y="1021.1111111111111"/>
      <point x="137.025" y="1021.1111111111111" type="curve" smooth="yes"/>
      <point x="84.59307000000001" y="1021.1111111111111"/>
      <point x="42.025000000000006" y="978.543041111111"/>
      <point x="42.025000000000006" y="926.1111111111111" type="curve" smooth="yes"/>
      <point x="42.025000000000006" y="873.6791811111111"/>
      <point x="84.59307000000001" y="831.1111111111111"/>
      <point x="137.025" y="831.1111111111111" type="curve" smooth="yes"/>
      <point x="189.45693" y="831.1111111111111"/>
      <point x="232.025" y="873.6791811111111"/>
    </contour>
    <contour>
      <point x="459.525" y="926.1111111111111" type="curve" smooth="yes"/>
      <point x="459.525" y="978.543041111111"/>
      <point x="416.95693000000006" y="1021.1111111111111"/>
      <point x="364.525" y="1021.1111111111111" type="curve" smooth="yes"/>
      <point x="312.09307" y="1021.1111111111111"/>
      <point x="269.525" y="978.543041111111"/>
      <point x="269.525" y="926.1111111111111" type="curve" smooth="yes"/>
      <point x="269.525" y="873.6791811111111"/>
      <point x="312.09307" y="831.1111111111111"/>
      <point x="364.525" y="831.1111111111111" type="curve" smooth="yes"/>
      <point x="416.95693000000006" y="831.1111111111111"/>
      <point x="459.525" y="873.6791811111111"/>
    </contour>
    <contour>
      <point x="47.025001525878906" y="0" type="line"/>
      <point x="227.0250015258789" y="0" type="line"/>
      <point x="227.0250015258789" y="805" type="line"/>
      <point x="173.5998672285619" y="805.0"/>
      <point x="47.024999618284305" y="781.3507430742955"/>
      <point x="47.02500009765625" y="585.0" type="curve"/>
    </contour>
    <contour>
      <point x="274.5250015258789" y="0" type="line"/>
      <point x="454.5250015258789" y="0" type="line"/>
      <point x="454.5250015258789" y="585.0" type="line"/>
      <point x="454.5250015258789" y="781.3507430742955"/>
      <point x="327.950134297317" y="805.0"/>
      <point x="274.525" y="805.0" type="curve"/>
    </contour>
  </outline>
</glyph>
<glyph name="A_with_ring" format="2">
  <advance width="501.55"/>
  <unicode hex="00C5"/>
  <outline>
    <contour>
      <point x="227.025" y="1021.1111111111111" type="line"/>
      <point x="174.59307" y="1021.1111111111111"/>
      <point x="132.025" y="978.543041111111"/>
      <point x="132.025" y="926.1111111111111" type="curve" smooth="yes"/>
      <point x="132.025" y="873.6791811111111"/>
      <point x="174.59307" y="831.1111111111111"/>
      <point x="227.025" y="831.1111111111111" type="curve"/>
    </contour>
    <contour>
      <point x="274.525" y="831.1111111111111" type="line"/>
      <point x="326.95693000000006" y="831.1111111111111"/>
      <point x="369.525" y="873.6791811111111"/>
      <point x="369.525" y="926.1111111111111" type="curve" smooth="yes"/>
      <point x="369.525" y="978.543041111111"/>
      <point x="326.95693000000006" y="1021.1111111111111"/>
      <point x="274.525" y="1021.1111111111111" type="curve"/>
    </contour>
    <contour>
      <point x="47.025001525878906" y="0" type="line"/>
      <point x="227.0250015258789" y="0" type="line"/>
      <point x="227.0250015258789" y="805" type="line"/>
      <point x="173.5998672285619" y="805.0"/>
      <point x="47.024999618284305" y="781.3507430742955"/>
      <point x="47.02500009765625" y="585.0" type="curve"/>
    </contour>
    <contour>
      <point x="274.5250015258789" y="0" type="line"/>
      <point x="454.5250015258789" y="0" type="line"/>
      <point x="454.5250015258789" y="585.0" type="line"/>
      <point x="454.5250015258789" y="781.3507430742955"/>
      <point x="327.950134297317" y="805.0"/>
      <point x="274.525" y="805.0" type="curve"/>
    </contour>
  </outline>
</glyph>
<glyph name="C_with_cedilla" format="2">
  <advance width="501.55"/>
  <unicode hex="00C7"/>
  <outline>
    <contour>
      <point x="47.02500138716264" y="220.0" type="line"/>
      <point x="47.025002068088696" y="23.64925692570455"/>
      <point x="173.59986570268296" y="6.542691971122679e-15"/>
      <point x="227.025" y="0.0" type="curve"/>
      <point x="227.0250015258789" y="800" type="line"/>
      <point x="173.5998672285619" y="800.0"/>
      <point x="47.02499945779023" y="776.3507430742955"/>
      <point x="47.02500013871626" y="580.0" type="curve"/>
    </contour>
    <contour>
      <point x="274.5250015258789" y="640.0" type="line"/>
      <point x="274.5250015258789" y="443.64925692570455"/>
      <point x="401.09986570268296" y="420.0"/>
      <point x="454.525" y="420.0" type="curve"/>
      <point x="454.5250015258789" y="800" type="line"/>
      <point x="274.5250015258789" y="800" type="line"/>
    </contour>
    <contour>
      <point x="454.525" y="180.0" type="line"/>
      <point x="355.1803" y="180.0"/>
      <point x="274.525" y="99.3447"/>
      <point x="274.525" y="0.0" type="curve"/>
      <point x="454.525" y="0.0" type="line"/>
    </contour>
    <contour>
      <point x="419.525" y="-205.0" type="line"/>
      <point x="419.525" y="-105.6553"/>
      <point x="338.86969999999997" y="-25.0"/>
      <point x="239.525" y="-25.0" type="curve"/>
      <point x="239.525" y="-205.0" type="line"/>
    </contour>
  </outline>
</glyph>
<glyph name="ETH" format="2">
  <advance width="729.05"/>
  <unicode hex="00D0"/>
  <outline>
    <contour>
      <point x="274.5250015258789" y="0" type="line"/>
      <point x="454.5250015258789" y="0" type="line"/>
      <point x="454.5250015258789" y="800" type="line"/>
      <point x="274.5250015258789" y="800" type="line"/>
      <point x="274.5250015258789" y="477.86995697021484" type="line"/>
      <point x="207.2640808686072" y="451.7984252303344"/>
      <point x="159.525" y="386.4302488768"/>
      <point x="159.52500000000003" y="310.0" type="curve"/>
      <point x="274.5250015258789" y="310" type="line"/>
    </contour>
    <contour>
      <point x="502.0250015258789" y="0" type="line"/>
      <point x="555.4501358231959" y="0.0"/>
      <point x="682.0249994577902" y="23.64925692570455"/>
      <point x="682.0250001387162" y="220.0" type="curve"/>
      <point x="682.0250013871627" y="580.0" type="line"/>
      <point x="682.0250020680887" y="776.3507430742955"/>
      <point x="555.450134297317" y="800.0"/>
      <point x="502.025" y="800.0" type="curve"/>
    </contour>
  </outline>
</glyph>
<glyph name="O_with_smalltilde" format="2">
  <advance width="501.55"/>
  <unicode hex="00D5"/>
  <outline>
    <contour>
      <point x="210.7750015258789" y="836.1111137484327" type="line"/>
      <point x="407.1257446001743" y="836.1111174472902"/>
      <point x="430.775" y="962.685976813794"/>
      <point x="430.775" y="1016.1111111111111" type="curve"/>
      <point x="290.7750015258789" y="1016.1111137484327" type="line"/>
      <point x="94.42425845158351" y="1016.1111174472902"/>
      <point x="70.775" y="889.5362454084282"/>
      <point x="70.775" y="836.1111111111111" type="curve"/>
    </contour>
    <contour>
      <point x="47.02500139024522" y="215.0" type="line"/>
      <point x="47.02500205603959" y="18.64925692570455"/>
      <point x="173.59986570268296" y="-4.999999999999994"/>
      <point x="227.025" y="-5.0" type="curve"/>
      <point x="227.0250015258789" y="805" type="line"/>
      <point x="173.5998672285619" y="805.0"/>
      <point x="47.02499946983933" y="781.3507430742955"/>
      <point x="47.025000135633675" y="585.0" type="curve"/>
    </contour>
    <contour>
      <point x="274.5250015258789" y="-5" type="line"/>
      <point x="327.9501358231959" y="-5.0"/>
      <point x="454.5249994698393" y="18.64925692570455"/>
      <point x="454.52500013563366" y="215.0" type="curve"/>
      <point x="454.5250013902452" y="585.0" type="line"/>
      <point x="454.52500205603957" y="781.3507430742955"/>
      <point x="327.950134297317" y="805.0"/>
      <point x="274.525" y="805.0" type="curve"/>
    </contour>
  </outline>
</glyph>
<glyph name="multiply" format="2">
  <advance width="501.55"/>
  <unicode hex="00D7"/>
  <outline>
    <contour>
      <point x="47.025001525878906" y="595.0" type="line"/>
      <point x="47.02500152587891" y="459.94755328630345"/>
      <point x="143.34602773706774" y="400.0"/>
      <point x="227.025" y="400.0" type="curve"/>
      <point x="227.0250015258789" y="600" type="line"/>
      <point x="47.025001525878906" y="600" type="line"/>
    </contour>
    <contour>
      <point x="274.5250015258789" y="400" type="line"/>
      <point x="358.2039737888112" y="400.0"/>
      <point x="454.524990840725" y="459.94755328630373"/>
      <point x="454.52500114440915" y="595.0" type="curve"/>
      <point x="454.5250015258789" y="600" type="line"/>
      <point x="274.5250015258789" y="600" type="line"/>
    </contour>
    <contour>
      <point x="47.025001525878906" y="200" type="line"/>
      <point x="227.0250015258789" y="200" type="line"/>
      <point x="227.0250015258789" y="400" type="line"/>
      <point x="143.34602926294662" y="400.0"/>
      <point x="47.024990840725195" y="340.05244671369627"/>
      <point x="47.02500114440918" y="205.0" type="curve"/>
    </contour>
    <contour>
      <point x="274.5250015258789" y="200" type="line"/>
      <point x="454.5250015258789" y="200" type="line"/>
      <point x="454.5250015258789" y="205.0" type="line"/>
      <point x="454.5250015258789" y="340.05244671369655"/>
      <point x="358.20397226293227" y="400.0"/>
      <point x="274.525" y="400.0" type="curve"/>
    </contour>
  </outline>
</glyph>
<glyph name="O_with_stroke" format="2">
  <advance width="501.55"/>
  <unicode hex="00D8"/>
  <outline>
    <contour>
      <point x="274.5250015258789" y="-5" type="line"/>
      <point x="327.9501358231959" y="-5.0"/>
      <point x="454.5249994698393" y="18.64925692570455"/>
      <point x="454.52500013563366" y="215.0" type="curve"/>
      <point x="454.5250013902452" y="585.0" type="line"/>
      <point x="454.52500156718673" y="637.1821754226933"/>
      <point x="454.5249994413156" y="688.2124664956185"/>
      <point x="415.0310821533203" y="737.4464797973633" type="curve"/>
      <point x="465.76739243803445" y="769.2805835715889"/>
      <point x="499.525" y="825.7291450243999"/>
      <point x="499.52500000000003" y="890.0" type="curve"/>
      <point x="319.5250015258789" y="890" type="line"/>
      <point x="319.5250015258789" y="799.3162155151367" type="line"/>
      <point x="305.14016168353334" y="803.0274471227933"/>
      <point x="290.0611202542" y="805.0"/>
      <point x="274.525" y="805.0" type="curve"/>
    </contour>
    <contour>
      <point x="47.02500139024522" y="215.0" type="line"/>
      <point x="47.025001567186735" y="162.8178260169349"/>
      <point x="47.02499944927212" y="111.7875326107624"/>
      <point x="86.5189208984375" y="62.55352020263672" type="curve"/>
      <point x="35.78260756196552" y="30.71941642841107"/>
      <point x="2.0249999999999915" y="-25.7291450244"/>
      <point x="2.0249999999999986" y="-90.00000000000001" type="curve"/>
      <point x="182.0250015258789" y="-90" type="line"/>
      <point x="182.0250015258789" y="0.6837844848632812" type="line"/>
      <point x="196.40983831646665" y="-3.027447122793332"/>
      <point x="211.4888797458" y="-5.000000000000011"/>
      <point x="227.025" y="-5.000000000000011" type="curve"/>
      <point x="227.0250015258789" y="805" type="line"/>
      <point x="173.5998672285619" y="805.0"/>
      <point x="47.02499946983933" y="781.3507430742955"/>
      <point x="47.025000135633675" y="585.0" type="curve"/>
    </contour>
  </outline>
</glyph>
<glyph name="THORN" format="2">
  <advance width="501.55"/>
  <unicode hex="00DE"/>
  <outline>
    <contour>
      <point x="47.025001525878906" y="0" type="line"/>
      <point x="227.0250015258789" y="0" type="line"/>
      <point x="227.0250015258789" y="800" type="line"/>
      <point x="47.025001525878906" y="800" type="line"/>
    </contour>
    <contour>
      <point x="274.5250015258789" y="100" type="line"/>
      <point x="327.9501358231959" y="100.0"/>
      <point x="454.5249990059487" y="123.64925692570455"/>
      <point x="454.5250002543131" y="320.0" type="curve"/>
      <point x="454.52500127156577" y="480.0" type="line"/>
      <point x="454.5250025199302" y="676.3507430742955"/>
      <point x="327.950134297317" y="700.0"/>
      <point x="274.525" y="700.0" type="curve"/>
    </contour>
  </outline>
</glyph>
<glyph name="eszett" format="2">
  <advance width="501.55"/>
  <unicode hex="00DF"/>
  <outline>
    <contour>
      <point x="47.025001525878906" y="0" type="line"/>
      <point x="227.0250015258789" y="0" type="line"/>
      <point x="227.0250015258789" y="800" type="line"/>
      <point x="173.5998672285619" y="800.0"/>
      <point x="47.02499961520596" y="776.3507430742955"/>
      <point x="47.0250000984438" y="580.0" type="curve"/>
    </contour>
    <contour>
      <point x="274.5250015258789" y="400" type="line"/>
      <point x="340.12928326684505" y="400.0"/>
      <point x="454.52499449925375" y="435.8012404050637"/>
      <point x="454.52500133514405" y="615.0" type="curve"/>
      <point x="454.5250015258789" y="620" type="line"/>
      <point x="454.525" y="719.3447"/>
      <point x="373.8697" y="800.0"/>
      <point x="274.525" y="800.0" type="curve"/>
    </contour>
    <contour>
      <point x="274.5250015258789" y="0" type="line"/>
      <point x="340.12928326684505" y="0.0"/>
      <point x="454.52499449925375" y="35.80124040506374"/>
      <point x="454.52500133514405" y="215.0" type="curve"/>
      <point x="454.5250015258789" y="220" type="line"/>
      <point x="454.525" y="319.34470000000005"/>
      <point x="373.8697" y="400.0"/>
      <point x="274.525" y="400.0" type="curve"/>
    </contour>
  </outline>
</glyph>
<glyph name="a_with_smalltilde" format="2">
  <advance width="501.55"/>
  <unicode hex="00E3"/>
  <outline>
    <contour>
      <point x="209.6812515258789" y="636.1111137484327" type="line"/>
      <point x="406.0319946001743" y="636.1111174472902"/>
      <point x="429.68125" y="762.685976813794"/>
      <point x="429.68125" y="816.1111111111111" type="curve"/>
      <point x="289.6812515258789" y="816.1111137484327" type="line"/>
      <point x="93.33050845158351" y="816.1111174472902"/>
      <point x="69.68125" y="689.5362454084282"/>
      <point x="69.68125" y="636.1111111111111" type="curve"/>
    </contour>
    <contour>
      <point x="234.8375" y="510.0" type="curve" smooth="yes"/>
      <point x="234.8375" y="562.43193"/>
      <point x="192.26943" y="605.0"/>
      <point x="139.8375" y="605.0" type="curve" smooth="yes"/>
      <point x="87.40557" y="605.0"/>
      <point x="44.8375" y="562.43193"/>
      <point x="44.8375" y="510.0" type="curve" smooth="yes"/>
      <point x="44.8375" y="457.56807"/>
      <point x="87.40557" y="415.0"/>
      <point x="139.8375" y="415.0" type="curve" smooth="yes"/>
      <point x="192.26943" y="415.0"/>
      <point x="234.8375" y="457.56807"/>
    </contour>
    <contour>
      <point x="274.5250013831066" y="215.0" type="line"/>
      <point x="274.52500208394275" y="18.64925692570455"/>
      <point x="401.09986570268296" y="-4.999999999999994"/>
      <point x="454.525" y="-5.0" type="curve"/>
      <point x="454.5250013831066" y="382.5" type="line"/>
      <point x="454.52500208394275" y="578.8507430742955"/>
      <point x="327.950134297317" y="602.5"/>
      <point x="274.525" y="602.5" type="curve"/>
    </contour>
    <contour>
      <point x="47.025001525878906" y="177.5" type="line"/>
      <point x="47.025000000000006" y="78.15529999999997"/>
      <point x="127.68029999999996" y="-2.499999999999988"/>
      <point x="227.025" y="-2.5" type="curve"/>
      <point x="227.0250015258789" y="400" type="line"/>
      <point x="165.66746264133175" y="400.0"/>
      <point x="47.02499465671088" y="368.8255630193262"/>
      <point x="47.025001346363744" y="182.5" type="curve"/>
    </contour>
  </outline>
</glyph>
<glyph name="e_with_diaeresis" format="2">
  <advance width="501.55"/>
  <unicode hex="00EB"/>
  <outline>
    <contour>
      <point x="232.025" y="726.1111111111111" type="curve" smooth="yes"/>
      <point x="232.025" y="778.543041111111"/>
      <point x="189.45693" y="821.1111111111111"/>
      <point x="137.025" y="821.1111111111111" type="curve" smooth="yes"/>
      <point x="84.59307000000001" y="821.1111111111111"/>
      <point x="42.025000000000006" y="778.543041111111"/>
      <point x="42.025000000000006" y="726.1111111111111" type="curve" smooth="yes"/>
      <point x="42.025000000000006" y="673.6791811111111"/>
      <point x="84.59307000000001" y="631.1111111111111"/>
      <point x="137.025" y="631.1111111111111" type="curve" smooth="yes"/>
      <point x="189.45693" y="631.1111111111111"/>
      <point x="232.025" y="673.6791811111111"/>
    </contour>
    <contour>
      <point x="459.525" y="726.1111111111111" type="curve" smooth="yes"/>
      <point x="459.525" y="778.543041111111"/>
      <point x="416.95693000000006" y="821.1111111111111"/>
      <point x="364.525" y="821.1111111111111" type="curve" smooth="yes"/>
      <point x="312.09307" y="821.1111111111111"/>
      <point x="269.525" y="778.543041111111"/>
      <point x="269.525" y="726.1111111111111" type="curve" smooth="yes"/>
      <point x="269.525" y="673.6791811111111"/>
      <point x="312.09307" y="631.1111111111111"/>
      <point x="364.525" y="631.1111111111111" type="curve" smooth="yes"/>
      <point x="416.95693000000006" y="631.1111111111111"/>
      <point x="459.525" y="673.6791811111111"/>
    </contour>
    <contour>
      <point x="47.02500128173828" y="215.0" type="line"/>
      <point x="47.02500248016813" y="18.64925692570455"/>
      <point x="173.59986570268296" y="-4.999999999999994"/>
      <point x="227.025" y="-5.0" type="curve"/>
      <point x="227.0250015258789" y="605" type="line"/>
      <point x="173.5998672285619" y="605.0"/>
      <point x="47.02499904571079" y="581.3507430742955"/>
      <point x="47.02500024414062" y="385.0" type="curve"/>
    </contour>
    <contour>
      <point x="274.5250015258789" y="195" type="line"/>
      <point x="454.5250015258789" y="195" type="line"/>
      <point x="454.5250015258789" y="385.0" type="line"/>
      <point x="454.5250015258789" y="581.3507430742955"/>
      <point x="327.950134297317" y="605.0"/>
      <point x="274.525" y="605.0" type="curve"/>
    </contour>
  </outline>
</glyph>
<glyph name="i_with_circumflex" format="2">
  <advance width="274.05"/>
  <unicode hex="00EE"/>
  <outline>
    <contour>
      <point x="-48.599999999999994" y="636.1111111111111" type="line"/>
      <point x="50.74470000000001" y="636.1111111111111"/>
      <point x="131.4" y="716.7664111111111"/>
      <point x="131.4" y="816.1111111111111" type="curve"/>
      <point x="-48.599999999999994" y="816.1111111111111" type="line"/>
    </contour>
    <contour>
      <point x="142.65" y="816.1111111111111" type="line"/>
      <point x="142.65" y="716.7664111111111"/>
      <point x="223.30530000000002" y="636.1111111111111"/>
      <point x="322.65" y="636.1111111111111" type="curve"/>
      <point x="322.65" y="816.1111111111111" type="line"/>
    </contour>
    <contour>
      <point x="47.025001525878906" y="0" type="line"/>
      <point x="227.0250015258789" y="0" type="line"/>
      <point x="227.0250015258789" y="600" type="line"/>
      <point x="47.025001525878906" y="600" type="line"/>
    </contour>
  </outline>
</glyph>
<glyph name="eth" format="2">
  <advance width="501.55"/>
  <unicode hex="00F0"/>
  <outline>
    <contour>
      <point x="274.5250015258789" y="-5" type="line"/>
      <point x="327.9501358231959" y="-5.0"/>
      <point x="454.5249994698393" y="18.64925692570455"/>
      <point x="454.52500013563366" y="215.0" type="curve"/>
      <point x="454.5250013902452" y="585.0" type="line"/>
      <point x="454.52500205603957" y="781.3507430742955"/>
      <point x="327.950134297317" y="805.0"/>
      <point x="274.525" y="805.0" type="curve"/>
    </contour>
    <contour>
      <point x="47.025001276755816" y="215.0" type="line"/>
      <point x="47.025002499643406" y="18.64925692570455"/>
      <point x="173.59986570268296" y="-4.999999999999994"/>
      <point x="227.025" y="-5.0" type="curve"/>
      <point x="227.0250015258789" y="600" type="line"/>
      <point x="173.5998672285619" y="600.0"/>
      <point x="47.02499902623551" y="576.3507430742955"/>
      <point x="47.02500024912308" y="380.0" type="curve"/>
    </contour>
  </outline>
</glyph>
<glyph name="n_with_smalltilde" format="2">
  <advance width="501.55"/>
  <unicode hex="00F1"/>
  <outline>
    <contour>
      <point x="210.7750015258789" y="636.1111137484327" type="line"/>
      <point x="407.1257446001743" y="636.1111174472902"/>
      <point x="430.775" y="762.685976813794"/>
      <point x="430.775" y="816.1111111111111" type="curve"/>
      <point x="290.7750015258789" y="816.1111137484327" type="line"/>
      <point x="94.42425845158351" y="816.1111174472902"/>
      <point x="70.775" y="689.5362454084282"/>
      <point x="70.775" y="636.1111111111111" type="curve"/>
    </contour>
    <contour>
      <point x="47.025001525878906" y="0" type="line"/>
      <point x="227.0250015258789" y="0" type="line"/>
      <point x="227.0250015258789" y="600" type="line"/>
      <point x="47.025001525878906" y="600" type="line"/>
    </contour>
    <contour>
      <point x="274.5250015258789" y="0" type="line"/>
      <point x="454.5250015258789" y="0" type="line"/>
      <point x="454.5250015258789" y="380.0" type="line"/>
      <point x="454.5250015258789" y="576.3507430742955"/>
      <point x="327.950134297317" y="600.0"/>
      <point x="274.525" y="600.0" type="curve"/>
    </contour>
  </outline>
</glyph>
<glyph name="u_with_diaeresis" format="2">
  <advance width="501.55"/>
  <unicode hex="00FC"/>
  <outline>
    <contour>
      <point x="232.025" y="726.1111111111111" type="curve" smooth="yes"/>
      <point x="232.025" y="778.543041111111"/>
      <point x="189.45693" y="821.1111111111111"/>
      <point x="137.025" y="821.1111111111111" type="curve" smooth="yes"/>
      <point x="84.59307000000001" y="821.1111111111111"/>
      <point x="42.025000000000006" y="778.543041111111"/>
      <point x="42.025000000000006" y="726.1111111111111" type="curve" smooth="yes"/>
      <point x="42.025000000000006" y="673.6791811111111"/>
      <point x="84.59307000000001" y="631.1111111111111"/>
      <point x="137.025" y="631.1111111111111" type="curve" smooth="yes"/>
      <point x="189.45693" y="631.1111111111111"/>
      <point x="232.025" y="673.6791811111111"/>
    </contour>
    <contour>
      <point x="459.525" y="726.1111111111111" type="curve" smooth="yes"/>
      <point x="459.525" y="778.543041111111"/>
      <point x="416.95693000000006" y="821.1111111111111"/>
      <point x="364.525" y="821.1111111111111" type="curve" smooth="yes"/>
      <point x="312.09307" y="821.1111111111111"/>
      <point x="269.525" y="778.543041111111"/>
      <point x="269.525" y="726.1111111111111" type="curve" smooth="yes"/>
      <point x="269.525" y="673.6791811111111"/>
      <point x="312.09307" y="631.1111111111111"/>
      <point x="364.525" y="631.1111111111111" type="curve" smooth="yes"/>
      <point x="416.95693000000006" y="631.1111111111111"/>
      <point x="459.525" y="673.6791811111111"/>
    </contour>
    <contour>
      <point x="47.025001525878906" y="215.0" type="line"/>
      <point x="47.02500152587892" y="18.64925692570455"/>
      <point x="173.59986570268296" y="-4.999999999999994"/>
      <point x="227.025" y="-5.0" type="curve"/>
      <point x="227.0250015258789" y="600" type="line"/>
      <point x="47.025001525878906" y="600" type="line"/>
    </contour>
    <contour>
      <point x="274.5250015258789" y="-5" type="line"/>
      <point x="327.9501358231959" y="-5.0"/>
      <point x="454.52499943865337" y="18.64925692570455"/>
      <point x="454.5250001436121" y="215.0" type="curve"/>
      <point x="454.5250015258789" y="600" type="line"/>
      <point x="274.5250015258789" y="600" type="line"/>
    </contour>
  </outline>
</glyph>
<glyph name="A_with_ogonek" format="2">
  <advance width="501.55"/>
  <unicode hex="0104"/>
  <outline>
    <contour>
      <point x="47.025001525878906" y="0" type="line"/>
      <point x="227.0250015258789" y="0" type="line"/>
      <point x="227.0250015258789" y="805" type="line"/>
      <point x="173.5998672285619" y="805.0"/>
      <point x="47.024999618284305" y="781.3507430742955"/>
      <point x="47.02500009765625" y="585.0" type="curve"/>
    </contour>
    <contour>
      <point x="274.5250015258789" y="0" type="line"/>
      <point x="454.5250015258789" y="0" type="line"/>
      <point x="454.5250015258789" y="585.0" type="line"/>
      <point x="454.5250015258789" y="781.3507430742955"/>
      <point x="327.950134297317" y="805.0"/>
      <point x="274.525" y="805.0" type="curve"/>
    </contour>
    <contour>
      <point x="454.525" y="-25.0" type="line"/>
      <point x="355.1803" y="-25.0"/>
      <point x="274.525" y="-105.6553"/>
      <point x="274.525" y="-205.0" type="curve"/>
      <point x="454.525" y="-205.0" type="line"/>
    </contour>
  </outline>
</glyph>
<glyph name="c_with_dotabove" format="2">
  <advance width="501.55"/>
  <unicode hex="010B"/>
  <outline>
    <contour>
      <point x="348.275" y="726.1111111111111" type="curve" smooth="yes"/>
      <point x="348.275" y="778.543041111111"/>
      <point x="305.70693" y="821.1111111111111"/>
      <point x="253.275" y="821.1111111111111" type="curve" smooth="yes"/>
      <point x="200.84307" y="821.1111111111111"/>
      <point x="158.275" y="778.543041111111"/>
      <point x="158.275" y="726.1111111111111" type="curve" smooth="yes"/>
      <point x="158.275" y="673.6791811111111"/>
      <point x="200.84307" y="631.1111111111111"/>
      <point x="253.275" y="631.1111111111111" type="curve" smooth="yes"/>
      <point x="305.70693" y="631.1111111111111"/>
      <point x="348.275" y="673.6791811111111"/>
    </contour>
    <contour>
      <point x="47.025001276755816" y="220.0" type="line"/>
      <point x="47.025002499643406" y="23.64925692570455"/>
      <point x="173.59986570268296" y="6.542691971122679e-15"/>
      <point x="227.025" y="0.0" type="curve"/>
      <point x="227.0250015258789" y="605" type="line"/>
      <point x="173.5998672285619" y="605.0"/>
      <point x="47.02499902623551" y="581.3507430742955"/>
      <point x="47.02500024912308" y="385.0" type="curve"/>
    </contour>
    <contour>
      <point x="459.525" y="510.0" type="curve" smooth="yes"/>
      <point x="459.525" y="562.43193"/>
      <point x="416.95693" y="605.0"/>
      <point x="364.525" y="605.0" type="curve" smooth="yes"/>
      <point x="312.09306999999995" y="605.0"/>
      <point x="269.525" y="562.43193"/>
      <point x="269.525" y="510.0" type="curve" smooth="yes"/>
      <point x="269.525" y="457.56807"/>
      <point x="312.09306999999995" y="415.0"/>
      <point x="364.525" y="415.0" type="curve" smooth="yes"/>
      <point x="416.95693" y="415.0"/>
      <point x="459.525" y="457.56807"/>
    </contour>
    <contour>
      <point x="451.7125" y="180.0" type="line"/>
      <point x="352.3678" y="180.0"/>
      <point x="271.7125" y="99.3447"/>
      <point x="271.7125" y="0.0" type="curve"/>
      <point x="451.7125" y="0.0" type="line"/>
    </contour>
  </outline>
</glyph>
<glyph name="e_with_dotabove" format="2">
  <advance width="501.55"/>
  <unicode hex="0117"/>
  <outline>
    <contour>
      <point x="345.775" y="726.1111111111111" type="curve" smooth="yes"/>
      <point x="345.775" y="778.543041111111"/>
      <point x="303.20693" y="821.1111111111111"/>
      <point x="250.775" y="821.1111111111111" type="curve" smooth="yes"/>
      <point x="198.34307" y="821.1111111111111"/>
      <point x="155.775" y="778.543041111111"/>
      <point x="155.775" y="726.1111111111111" type="curve" smooth="yes"/>
      <point x="155.775" y="673.6791811111111"/>
      <point x="198.34307" y="631.1111111111111"/>
      <point x="250.775" y="631.1111111111111" type="curve" smooth="yes"/>
      <point x="303.20693" y="631.1111111111111"/>
      <point x="345.775" y="673.6791811111111"/>
    </contour>
    <contour>
      <point x="47.02500128173828" y="215.0" type="line"/>
      <point x="47.02500248016813" y="18.64925692570455"/>
      <point x="173.59986570268296" y="-4.999999999999994"/>
      <point x="227.025" y="-5.0" type="curve"/>
      <point x="227.0250015258789" y="605" type="line"/>
      <point x="173.5998672285619" y="605.0"/>
      <point x="47.02499904571079" y="581.3507430742955"/>
      <point x="47.02500024414062" y="385.0" type="curve"/>
    </contour>
    <contour>
      <point x="274.5250015258789" y="195" type="line"/>
      <point x="454.5250015258789" y="195" type="line"/>
      <point x="454.5250015258789" y="385.0" type="line"/>
      <point x="454.5250015258789" y="581.3507430742955"/>
      <point x="327.950134297317" y="605.0"/>
      <point x="274.525" y="605.0" type="curve"/>
    </contour>
  </outline>
</glyph>
<glyph name="E_with_caron" format="2">
  <advance width="501.55"/>
  <unicode hex="011A"/>
  <outline>
    <contour>
      <point x="245.15" y="836.1111111111111" type="line"/>
      <point x="245.15" y="935.4558111111111"/>
      <point x="164.49470000000002" y="1016.1111111111111"/>
      <point x="65.15" y="1016.1111111111111" type="curve"/>
      <point x="65.15" y="836.1111111111111" type="line"/>
    </contour>
    <contour>
      <point x="436.4" y="1016.1111111111111" type="line"/>
      <point x="337.0553" y="1016.1111111111111"/>
      <point x="256.4" y="935.4558111111111"/>
      <point x="256.4" y="836.1111111111111" type="curve"/>
      <point x="436.4" y="836.1111111111111" type="line"/>
    </contour>
    <contour>
      <point x="47.025001525878906" y="0" type="line"/>
      <point x="227.0250015258789" y="0" type="line"/>
      <point x="227.0250015258789" y="800" type="line"/>
      <point x="47.025001525878906" y="800" type="line"/>
    </contour>
    <contour>
      <point x="274.525" y="800.0" type="line"/>
      <point x="274.525" y="700.6553"/>
      <point x="355.1803" y="620.0"/>
      <point x="454.525" y="620.0" type="curve"/>
      <point x="454.525" y="800.0" type="line"/>
    </contour>
    <contour>
      <point x="274.525" y="490.0" type="line"/>
      <point x="274.525" y="390.6553"/>
      <point x="355.1803" y="310.0"/>
      <point x="454.525" y="310.0" type="curve"/>
      <point x="454.525" y="490.0" type="line"/>
    </contour>
    <contour>
      <point x="454.525" y="180.0" type="line"/>
      <point x="355.1803" y="180.0"/>
      <point x="274.525" y="99.3447"/>
      <point x="274.525" y="0.0" type="curve"/>
      <point x="454.525" y="0.0" type="line"/>
    </contour>
  </outline>
</glyph>
<glyph name="G_with_breve" format="2">
  <advance width="501.55"/>
  <unicode hex="011E"/>
  <outline>
    <contour>
      <point x="70.7750015258789" y="1016.1111145019531" type="line"/>
      <point x="70.775" y="916.7664111111111"/>
      <point x="151.4303" y="836.1111111111111"/>
      <point x="250.775" y="836.1111111111111" type="curve"/>
      <point x="350.11969999999997" y="836.1111111111111"/>
      <point x="430.775" y="916.7664111111111"/>
      <point x="430.775" y="1016.1111111111111" type="curve"/>
    </contour>
    <contour>
      <point x="47.02500138716264" y="220.0" type="line"/>
      <point x="47.025002068088696" y="23.64925692570455"/>
      <point x="173.59986570268296" y="6.542691971122679e-15"/>
      <point x="227.025" y="0.0" type="curve"/>
      <point x="227.0250015258789" y="800" type="line"/>
      <point x="173.5998672285619" y="800.0"/>
      <point x="47.02499945779023" y="776.3507430742955"/>
      <point x="47.02500013871626" y="580.0" type="curve"/>
    </contour>
    <contour>
      <point x="274.525" y="800.0" type="line"/>
      <point x="274.525" y="700.6553"/>
      <point x="355.1803" y="620.0"/>
      <point x="454.525" y="620.0" type="curve"/>
      <point x="454.525" y="800.0" type="line"/>
    </contour>
    <contour>
      <point x="274.5250015258789" y="220.0" type="line"/>
      <point x="274.5250015258789" y="23.64925692570455"/>
      <point x="401.09986570268296" y="6.542691971122679e-15"/>
      <point x="454.525" y="0.0" type="curve"/>
      <point x="454.5250015258789" y="400" type="line"/>
      <point x="274.5250015258789" y="400" type="line"/>
    </contour>
  </outline>
</glyph>
<glyph name="g_with_breve" format="2">
  <advance width="501.55"/>
  <unicode hex="011F"/>
  <outline>
    <contour>
      <point x="70.7750015258789" y="816.1111145019531" type="line"/>
      <point x="70.775" y="716.7664111111111"/>
      <point x="151.4303" y="636.1111111111111"/>
      <point x="250.775" y="636.1111111111111" type="curve"/>
      <point x="350.11969999999997" y="636.1111111111111"/>
      <point x="430.775" y="716.7664111111111"/>
      <point x="430.775" y="816.1111111111111" type="curve"/>
    </contour>
    <contour>
      <point x="47.025001271565756" y="220.0" type="line"/>
      <point x="47.02500251993016" y="23.64925692570455"/>
      <point x="173.59986570268296" y="6.542691971122679e-15"/>
      <point x="227.025" y="0.0" type="curve"/>
      <point x="227.0250015258789" y="600" type="line"/>
      <point x="173.5998672285619" y="600.0"/>
      <point x="47.024999005948736" y="576.3507430742955"/>
      <point x="47.025000254313156" y="380.0" type="curve"/>
    </contour>
    <contour>
      <point x="274.5250015258789" y="-210" type="line"/>
      <point x="327.9501358231959" y="-210.0"/>
      <point x="454.5249996213138" y="-186.35074307429545"/>
      <point x="454.5250000968812" y="10.0" type="curve"/>
      <point x="454.5250015258789" y="600" type="line"/>
      <point x="274.5250015258789" y="600" type="line"/>
    </contour>
    <contour>
      <point x="232.65" y="-120.0" type="curve" smooth="yes"/>
      <point x="232.65" y="-70.32765"/>
      <point x="192.32235" y="-30.0"/>
      <point x="142.65" y="-30.0" type="curve" smooth="yes"/>
      <point x="92.97765" y="-30.0"/>
      <point x="52.65" y="-70.32765"/>
      <point x="52.65" y="-120.0" type="curve" smooth="yes"/>
      <point x="52.65" y="-169.67235"/>
      <point x="92.97765" y="-210.0"/>
      <point x="142.65" y="-210.0" type="curve" smooth="yes"/>
      <point x="192.32235" y="-210.0"/>
      <point x="232.65" y="-169.67235"/>
    </contour>
  </outline>
</glyph>
<glyph name="I_with_smalltilde" format="2">
  <advance width="274.05"/>
  <unicode hex="0128"/>
  <outline>
    <contour>
      <point x="97.0250015258789" y="836.1111137484327" type="line"/>
      <point x="293.3757446001743" y="836.1111174472902"/>
      <point x="317.025" y="962.685976813794"/>
      <point x="317.025" y="1016.1111111111111" type="curve"/>
      <point x="177.0250015258789" y="1016.1111137484327" type="line"/>
      <point x="-19.325741548416488" y="1016.1111174472902"/>
      <point x="-42.974999999999994" y="889.5362454084282"/>
      <point x="-42.974999999999994" y="836.1111111111111" type="curve"/>
    </contour>
    <contour>
      <point x="47.025001525878906" y="0" type="line"/>
      <point x="227.0250015258789" y="0" type="line"/>
      <point x="227.0250015258789" y="800" type="line"/>
      <point x="47.025001525878906" y="800" type="line"/>
    </contour>
  </outline>
</glyph>
<glyph name="i_with_smalltilde" format="2">
  <advance width="274.05"/>
  <unicode hex="0129"/>
  <outline>
    <contour>
      <point x="97.0250015258789" y="636.1111137484327" type="line"/>
      <point x="293.3757446001743" y="636.1111174472902"/>
      <point x="317.025" y="762.685976813794"/>
      <point x="317.025" y="816.1111111111111" type="curve"/>
      <point x="177.0250015258789" y="816.1111137484327" type="line"/>
      <point x="-19.325741548416488" y="816.1111174472902"/>
      <point x="-42.974999999999994" y="689.5362454084282"/>
      <point x="-42.974999999999994" y="636.1111111111111" type="curve"/>
    </contour>
    <contour>
      <point x="47.025001525878906" y="0" type="line"/>
      <point x="227.0250015258789" y="0" type="line"/>
      <point x="227.0250015258789" y="600" type="line"/>
      <point x="47.025001525878906" y="600" type="line"/>
    </contour>
  </outline>
</glyph>
<glyph name="I_with_breve" format="2">
  <advance width="274.05"/>
  <unicode hex="012C"/>
  <outline>
    <contour>
      <point x="-42.974998474121094" y="1016.1111145019531" type="line"/>
      <point x="-42.974999999999994" y="916.7664111111111"/>
      <point x="37.6803" y="836.1111111111111"/>
      <point x="137.025" y="836.1111111111111" type="curve"/>
      <point x="236.3697" y="836.1111111111111"/>
      <point x="317.025" y="916.7664111111111"/>
      <point x="317.025" y="1016.1111111111111" type="curve"/>
    </contour>
    <contour>
      <point x="47.025001525878906" y="0" type="line"/>
      <point x="227.0250015258789" y="0" type="line"/>
      <point x="227.0250015258789" y="800" type="line"/>
      <point x="47.025001525878906" y="800" type="line"/>
    </contour>
  </outline>
</glyph>
<glyph name="i_with_breve" format="2">
  <advance width="274.05"/>
  <unicode hex="012D"/>
  <outline>
    <contour>
      <point x="-42.974998474121094" y="816.1111145019531" type="line"/>
      <point x="-42.974999999999994" y="716.7664111111111"/>
      <point x="37.6803" y="636.1111111111111"/>
      <point x="137.025" y="636.1111111111111" type="curve"/>
      <point x="236.3697" y="636.1111111111111"/>
      <point x="317.025" y="716.7664111111111"/>
      <point x="317.025" y="816.1111111111111" type="curve"/>
    </contour>
    <contour>
      <point x="47.025001525878906" y="0" type="line"/>
      <point x="227.0250015258789" y="0" type="line"/>
      <point x="227.0250015258789" y="600" type="line"/>
      <point x="47.025001525878906" y="600" type="line"/>
    </contour>
  </outline>
</glyph>
<glyph name="i_with_ogonek" format="2">
  <advance width="274.05"/>
  <unicode hex="012F"/>
  <outline>
    <contour>
      <point x="232.025" y="726.11111" type="curve" smooth="yes"/>
      <point x="232.025" y="778.54304"/>
      <point x="189.45693" y="821.11111"/>
      <point x="137.025" y="821.11111" type="curve" smooth="yes"/>
      <point x="84.59307" y="821.11111"/>
      <point x="42.025" y="778.54304"/>
      <point x="42.025" y="726.11111" type="curve" smooth="yes"/>
      <point x="42.025" y="673.67918"/>
      <point x="84.59307" y="631.11111"/>
      <point x="137.025" y="631.11111" type="curve" smooth="yes"/>
      <point x="189.45693" y="631.11111"/>
      <point x="232.025" y="673.67918"/>
    </contour>
    <contour>
      <point x="47.025001525878906" y="0" type="line"/>
      <point x="227.0250015258789" y="0" type="line"/>
      <point x="227.0250015258789" y="600" type="line"/>
      <point x="47.025001525878906" y="600" type="line"/>
    </contour>
    <contour>
      <point x="232.025" y="-25.0" type="line"/>
      <point x="132.68030000000002" y="-25.0"/>
      <point x="52.025000000000006" y="-105.6553"/>
      <point x="52.025000000000006" y="-205.0" type="curve"/>
      <point x="232.025" y="-205.0" type="line"/>
    </contour>
  </outline>
</glyph>
<glyph name="I_with_dotabove" format="2">
  <advance width="274.05"/>
  <unicode hex="0130"/>
  <outline>
    <contour>
      <point x="232.025" y="926.1111111111111" type="curve" smooth="yes"/>
      <point x="232.025" y="978.543041111111"/>
      <point x="189.45693" y="1021.1111111111111"/>
      <point x="137.025" y="1021.1111111111111" type="curve" smooth="yes"/>
      <point x="84.59307000000001" y="1021.1111111111111"/>
      <point x="42.025000000000006" y="978.543041111111"/>
      <point x="42.025000000000006" y="926.1111111111111" type="curve" smooth="yes"/>
      <point x="42.025000000000006" y="873.6791811111111"/>
      <point x="84.59307000000001" y="831.1111111111111"/>
      <point x="137.025" y="831.1111111111111" type="curve" smooth="yes"/>
      <point x="189.45693" y="831.1111111111111"/>
      <point x="232.025" y="873.6791811111111"/>
    </contour>
    <contour>
      <point x="47.025001525878906" y="0" type="line"/>
      <point x="227.0250015258789" y="0" type="line"/>
      <point x="227.0250015258789" y="800" type="line"/>
      <point x="47.025001525878906" y="800" type="line"/>
    </contour>
  </outline>
</glyph>
<glyph name="ij" format="2">
  <advance width="501.55"/>
  <unicode hex="0133"/>
  <outline>
    <contour>
      <point x="220.775" y="726.11111" type="curve" smooth="yes"/>
      <point x="220.775" y="778.54304"/>
      <point x="178.20693" y="821.11111"/>
      <point x="125.775" y="821.11111" type="curve" smooth="yes"/>
      <point x="73.34307" y="821.11111"/>
      <point x="30.775" y="778.54304"/>
      <point x="30.775" y="726.11111" type="curve" smooth="yes"/>
      <point x="30.775" y="673.67918"/>
      <point x="73.34307" y="631.11111"/>
      <point x="125.775" y="631.11111" type="curve" smooth="yes"/>
      <point x="178.20693" y="631.11111"/>
      <point x="220.775" y="673.67918"/>
    </contour>
    <contour>
      <point x="459.525" y="726.11111" type="curve" smooth="yes"/>
      <point x="459.525" y="778.54304"/>
      <point x="416.95693" y="821.11111"/>
      <point x="364.525" y="821.11111" type="curve" smooth="yes"/>
      <point x="312.09306999999995" y="821.11111"/>
      <point x="269.525" y="778.54304"/>
      <point x="269.525" y="726.11111" type="curve" smooth="yes"/>
      <point x="269.525" y="673.67918"/>
      <point x="312.09306999999995" y="631.11111"/>
      <point x="364.525" y="631.11111" type="curve" smooth="yes"/>
      <point x="416.95693" y="631.11111"/>
      <point x="459.525" y="673.67918"/>
    </contour>
    <contour>
      <point x="35.775001525878906" y="33.33332824707031" type="line"/>
      <point x="215.7750015258789" y="33.33332824707031" type="line"/>
      <point x="215.7750015258789" y="600" type="line"/>
      <point x="35.775001525878906" y="600" type="line"/>
    </contour>
    <contour>
      <point x="274.5250015258789" y="-210" type="line"/>
      <point x="327.9501358231959" y="-210.0"/>
      <point x="454.5249996213138" y="-186.35074307429545"/>
      <point x="454.5250000968812" y="10.0" type="curve"/>
      <point x="454.5250015258789" y="600" type="line"/>
      <point x="274.5250015258789" y="600" type="line"/>
    </contour>
    <contour>
      <point x="232.65" y="-120.0" type="curve" smooth="yes"/>
      <point x="232.65" y="-70.32765"/>
      <point x="192.32235" y="-30.0"/>
      <point x="142.65" y="-30.0" type="curve" smooth="yes"/>
      <point x="92.97765" y="-30.0"/>
      <point x="52.65" y="-70.32765"/>
      <point x="52.65" y="-120.0" type="curve" smooth="yes"/>
      <point x="52.65" y="-169.67235"/>
      <point x="92.97765" y="-210.0"/>
      <point x="142.65" y="-210.0" type="curve" smooth="yes"/>
      <point x="192.32235" y="-210.0"/>
      <point x="232.65" y="-169.67235"/>
    </contour>
  </outline>
</glyph>
<glyph name="j_with_circumflex" format="2">
  <advance width="501.55"/>
  <unicode hex="0135"/>
  <outline>
    <contour>
      <point x="179.2125" y="636.1111111111111" type="line"/>
      <point x="278.5572" y="636.1111111111111"/>
      <point x="359.2125" y="716.7664111111111"/>
      <point x="359.2125" y="816.1111111111111" type="curve"/>
      <point x="179.2125" y="816.1111111111111" type="line"/>
    </contour>
    <contour>
      <point x="370.4625" y="816.1111111111111" type="line"/>
      <point x="370.4625" y="716.7664111111111"/>
      <point x="451.1178" y="636.1111111111111"/>
      <point x="550.4625" y="636.1111111111111" type="curve"/>
      <point x="550.4625" y="816.1111111111111" type="line"/>
    </contour>
    <contour>
      <point x="274.5250015258789" y="-210" type="line"/>
      <point x="327.9501358231959" y="-210.0"/>
      <point x="454.5249996213138" y="-186.35074307429545"/>
      <point x="454.5250000968812" y="10.0" type="curve"/>
      <point x="454.5250015258789" y="600" type="line"/>
      <point x="274.5250015258789" y="600" type="line"/>
    </contour>
    <contour>
      <point x="232.65" y="-120.0" type="curve" smooth="yes"/>
      <point x="232.65" y="-70.32765"/>
      <point x="192.32235" y="-30.0"/>
      <point x="142.65" y="-30.0" type="curve" smooth="yes"/>
      <point x="92.97765" y="-30.0"/>
      <point x="52.65" y="-70.32765"/>
      <point x="52.65" y="-120.0" type="curve" smooth="yes"/>
      <point x="52.65" y="-169.67235"/>
      <point x="92.97765" y="-210.0"/>
      <point x="142.65" y="-210.0" type="curve" smooth="yes"/>
      <point x="192.32235" y="-210.0"/>
      <point x="232.65" y="-169.67235"/>
    </contour>
  </outline>
</glyph>
<glyph name="K_with_cedilla" format="2">
  <advance width="501.55"/>
  <unicode hex="0136"/>
  <outline>
    <contour>
      <point x="47.025001525878906" y="0" type="line"/>
      <point x="227.0250015258789" y="0" type="line"/>
      <point x="227.0250015258789" y="800" type="line"/>
      <point x="47.025001525878906" y="800" type="line"/>
    </contour>
    <contour>
      <point x="274.5250015258789" y="400" type="line"/>
      <point x="327.9501358231959" y="400.0"/>
      <point x="454.5249989155804" y="423.64925692570455"/>
      <point x="454.5250002774325" y="620.0" type="curve"/>
      <point x="454.5250015258789" y="800" type="line"/>
      <point x="274.5250015258789" y="800" type="line"/>
    </contour>
    <contour>
      <point x="274.5250015258789" y="0" type="line"/>
      <point x="454.5250015258789" y="0" type="line"/>
      <point x="454.5250015258789" y="180.0" type="line"/>
      <point x="454.5250015258789" y="376.35074307429545"/>
      <point x="327.950134297317" y="400.0"/>
      <point x="274.525" y="400.0" type="curve"/>
    </contour>
    <contour>
      <point x="419.525" y="-205.0" type="line"/>
      <point x="419.525" y="-105.6553"/>
      <point x="338.86969999999997" y="-25.0"/>
      <point x="239.525" y="-25.0" type="curve"/>
      <point x="239.525" y="-205.0" type="line"/>
    </contour>
  </outline>
</glyph>
<glyph name="k_with_cedilla" format="2">
  <advance width="501.55"/>
  <unicode hex="0137"/>
  <outline>
    <contour>
      <point x="47.025001525878906" y="0" type="line"/>
      <point x="227.0250015258789" y="0" type="line"/>
      <point x="227.0250015258789" y="800" type="line"/>
      <point x="47.025001525878906" y="800" type="line"/>
    </contour>
    <contour>
      <point x="274.5250015258789" y="300" type="line"/>
      <point x="327.9501358231959" y="300.0"/>
      <point x="454.5249980118974" y="323.64925692570455"/>
      <point x="454.5250005086263" y="520.0" type="curve"/>
      <point x="454.5250015258789" y="600" type="line"/>
      <point x="274.5250015258789" y="600" type="line"/>
    </contour>
    <contour>
      <point x="274.5250015258789" y="0" type="line"/>
      <point x="454.5250015258789" y="0" type="line"/>
      <point x="454.5250015258789" y="80.0" type="line"/>
      <point x="454.5250015258789" y="276.35074307429545"/>
      <point x="327.950134297317" y="300.0"/>
      <point x="274.525" y="300.0" type="curve"/>
    </contour>
    <contour>
      <point x="419.525" y="-205.0" type="line"/>
      <point x="419.525" y="-105.6553"/>
      <point x="338.86969999999997" y="-25.0"/>
      <point x="239.525" y="-25.0" type="curve"/>
      <point x="239.525" y="-205.0" type="line"/>
    </contour>
  </outline>
</glyph>
<glyph name="L_with_acute" format="2">
  <advance width="501.55"/>
  <unicode hex="0139"/>
  <outline>
    <contour>
      <point x="239.525" y="836.1111111111111" type="line"/>
      <point x="338.86969999999997" y="836.1111111111111"/>
      <point x="419.525" y="916.7664111111111"/>
      <point x="419.525" y="1016.1111111111111" type="curve"/>
      <point x="239.525" y="1016.1111111111111" type="line"/>
    </contour>
    <contour>
      <point x="47.025001525878906" y="0" type="line"/>
      <point x="227.0250015258789" y="0" type="line"/>
      <point x="227.0250015258789" y="800" type="line"/>
      <point x="47.025001525878906" y="800" type="line"/>
    </contour>
    <contour>
      <point x="454.525" y="180.0" type="line"/>
      <point x="355.1803" y="180.0"/>
      <point x="274.525" y="99.3447"/>
      <point x="274.525" y="0.0" type="curve"/>
      <point x="454.525" y="0.0" type="line"/>
    </contour>
  </outline>
</glyph>
<glyph name="l_with_acute" format="2">
  <advance width="274.05"/>
  <unicode hex="013A"/>
  <outline>
    <contour>
      <point x="125.775" y="836.1111111111111" type="line"/>
      <point x="225.1197" y="836.1111111111111"/>
      <point x="305.775" y="916.7664111111111"/>
      <point x="305.775" y="1016.1111111111111" type="curve"/>
      <point x="125.775" y="1016.1111111111111" type="line"/>
    </contour>
    <contour>
      <point x="47.025001525878906" y="215.0" type="line"/>
      <point x="47.02500152587892" y="18.64925692570455"/>
      <point x="173.59986570268296" y="-4.999999999999994"/>
      <point x="227.025" y="-5.0" type="curve"/>
      <point x="227.0250015258789" y="800" type="line"/>
      <point x="47.025001525878906" y="800" type="line"/>
    </contour>
  </outline>
</glyph>
<glyph name="l_with_cedilla" format="2">
  <advance width="274.05"/>
  <unicode hex="013C"/>
  <outline>
    <contour>
      <point x="47.025001525878906" y="215.0" type="line"/>
      <point x="47.02500152587892" y="18.64925692570455"/>
      <point x="173.59986570268296" y="-4.999999999999994"/>
      <point x="227.025" y="-5.0" type="curve"/>
      <point x="227.0250015258789" y="800" type="line"/>
      <point x="47.025001525878906" y="800" type="line"/>
    </contour>
    <contour>
      <point x="305.775" y="-210.0" type="line"/>
      <point x="305.775" y="-110.6553"/>
      <point x="225.1197" y="-30.0"/>
      <point x="125.775" y="-30.0" type="curve"/>
      <point x="125.775" y="-210.0" type="line"/>
    </contour>
  </outline>
</glyph>
<glyph name="l_with_stroke" format="2">
  <advance width="319.05"/>
  <unicode hex="0142"/>
  <outline>
    <contour>
      <point x="69.5250015258789" y="215.0" type="line"/>
      <point x="69.52500152587892" y="18.64925692570455"/>
      <point x="196.09986570268296" y="-4.999999999999994"/>
      <point x="249.525" y="-5.0" type="curve"/>
      <point x="249.5250015258789" y="433.1173400878906" type="line"/>
      <point x="315.4658336295806" y="459.82902714658115"/>
      <point x="362.025" y="524.5201818680999"/>
      <point x="362.02500000000003" y="600.0" type="curve"/>
      <point x="249.5250015258789" y="600" type="line"/>
      <point x="249.5250015258789" y="800" type="line"/>
      <point x="69.5250015258789" y="800" type="line"/>
      <point x="69.5250015258789" y="486.8826599121094" type="line"/>
      <point x="3.5841663704193962" y="460.17097285341885"/>
      <point x="-42.97500000000001" y="395.4798181319"/>
      <point x="-42.97499999999998" y="320.0" type="curve"/>
      <point x="69.5250015258789" y="320" type="line"/>
    </contour>
  </outline>
</glyph>
<glyph name="N_with_acute" format="2">
  <advance width="501.55"/>
  <unicode hex="0143"/>
  <outline>
    <contour>
      <point x="239.525" y="836.1111111111111" type="line"/>
      <point x="338.86969999999997" y="836.1111111111111"/>
      <point x="419.525" y="916.7664111111111"/>
      <point x="419.525" y="1016.1111111111111" type="curve"/>
      <point x="239.525" y="1016.1111111111111" type="line"/>
    </contour>
    <contour>
      <point x="47.025001525878906" y="0" type="line"/>
      <point x="227.0250015258789" y="0" type="line"/>
      <point x="227.0250015258789" y="800" type="line"/>
      <point x="47.025001525878906" y="800" type="line"/>
    </contour>
    <contour>
      <point x="274.5250015258789" y="0" type="line"/>
      <point x="454.5250015258789" y="0" type="line"/>
      <point x="454.5250015258789" y="580.0" type="line"/>
      <point x="454.5250015258789" y="776.3507430742955"/>
      <point x="327.950134297317" y="800.0"/>
      <point x="274.525" y="800.0" type="curve"/>
    </contour>
  </outline>
</glyph>
<glyph name="n_with_acute" format="2">
  <advance width="501.55"/>
  <unicode hex="0144"/>
  <outline>
    <contour>
      <point x="239.525" y="636.1111111111111" type="line"/>
      <point x="338.86969999999997" y="636.1111111111111"/>
      <point x="419.525" y="716.7664111111111"/>
      <point x="419.525" y="816.1111111111111" type="curve"/>
      <point x="239.525" y="816.1111111111111" type="line"/>
    </contour>
    <contour>
      <point x="47.025001525878906" y="0" type="line"/>
      <point x="227.0250015258789" y="0" type="line"/>
      <point x="227.0250015258789" y="600" type="line"/>
      <point x="47.025001525878906" y="600" type="line"/>
    </contour>
    <contour>
      <point x="274.5250015258789" y="0" type="line"/>
      <point x="454.5250015258789" y="0" type="line"/>
      <point x="454.5250015258789" y="380.0" type="line"/>
      <point x="454.5250015258789" y="576.3507430742955"/>
      <point x="327.950134297317" y="600.0"/>
      <point x="274.525" y="600.0" type="curve"/>
    </contour>
  </outline>
</glyph>
<glyph name="N_with_cedilla" format="2">
  <advance width="501.55"/>
  <unicode hex="0145"/>
  <outline>
    <contour>
      <point x="47.025001525878906" y="0" type="line"/>
      <point x="227.0250015258789" y="0" type="line"/>
      <point x="227.0250015258789" y="800" type="line"/>
      <point x="47.025001525878906" y="800" type="line"/>
    </contour>
    <contour>
      <point x="274.5250015258789" y="0" type="line"/>
      <point x="454.5250015258789" y="0" type="line"/>
      <point x="454.5250015258789" y="580.0" type="line"/>
      <point x="454.5250015258789" y="776.3507430742955"/>
      <point x="327.950134297317" y="800.0"/>
      <point x="274.525" y="800.0" type="curve"/>
    </contour>
    <contour>
      <point x="419.525" y="-205.0" type="line"/>
      <point x="419.525" y="-105.6553"/>
      <point x="338.86969999999997" y="-25.0"/>
      <point x="239.525" y="-25.0" type="curve"/>
      <point x="239.525" y="-205.0" type="line"/>
    </contour>
  </outline>
</glyph>
<glyph name="ENG" format="2">
  <advance width="501.55"/>
  <unicode hex="014A"/>
  <outline>
    <contour>
      <point x="47.025001525878906" y="0" type="line"/>
      <point x="227.0250015258789" y="0" type="line"/>
      <point x="227.0250015258789" y="800" type="line"/>
      <point x="47.025001525878906" y="800" type="line"/>
    </contour>
    <contour>
      <point x="274.5250015258789" y="-200" type="line"/>
      <point x="327.9501358231959" y="-200.0"/>
      <point x="454.5249996272307" y="-176.35074307429545"/>
      <point x="454.52500009536743" y="20.0" type="curve"/>
      <point x="454.52500143051145" y="580.0" type="line"/>
      <point x="454.5250018986481" y="776.3507430742955"/>
      <point x="327.950134297317" y="800.0"/>
      <point x="274.525" y="800.0" type="curve"/>
    </contour>
  </outline>
</glyph>
<glyph name="O_with_macron" format="2">
  <advance width="501.55"/>
  <unicode hex="014C"/>
  <outline>
    <contour>
      <point x="70.7750015258789" y="836.1111145019531" type="line"/>
      <point x="430.7750015258789" y="836.1111145019531" type="line"/>
      <point x="430.7750015258789" y="1016.1111145019531" type="line"/>
      <point x="70.7750015258789" y="1016.1111145019531" type="line"/>
    </contour>
    <contour>
      <point x="47.02500139024522" y="215.0" type="line"/>
      <point x="47.02500205603959" y="18.64925692570455"/>
      <point x="173.59986570268296" y="-4.999999999999994"/>
      <point x="227.025" y="-5.0" type="curve"/>
      <point x="227.0250015258789" y="805" type="line"/>
      <point x="173.5998672285619" y="805.0"/>
      <point x="47.02499946983933" y="781.3507430742955"/>
      <point x="47.025000135633675" y="585.0" type="curve"/>
    </contour>
    <contour>
      <point x="274.5250015258789" y="-5" type="line"/>
      <point x="327.9501358231959" y="-5.0"/>
      <point x="454.5249994698393" y="18.64925692570455"/>
      <point x="454.52500013563366" y="215.0" type="curve"/>
      <point x="454.5250013902452" y="585.0" type="line"/>
      <point x="454.52500205603957" y="781.3507430742955"/>
      <point x="327.950134297317" y="805.0"/>
      <point x="274.525" y="805.0" type="curve"/>
    </contour>
  </outline>
</glyph>
<glyph name="OE" format="2">
  <advance width="956.55"/>
  <unicode hex="0152"/>
  <outline>
    <contour>
      <point x="47.02500139024522" y="215.0" type="line"/>
      <point x="47.02500205603959" y="18.64925692570455"/>
      <point x="173.59986570268296" y="-4.999999999999994"/>
      <point x="227.025" y="-5.0" type="curve"/>
      <point x="227.0250015258789" y="805" type="line"/>
      <point x="173.5998672285619" y="805.0"/>
      <point x="47.02499946983933" y="781.3507430742955"/>
      <point x="47.025000135633675" y="585.0" type="curve"/>
    </contour>
    <contour>
      <point x="274.5250015258789" y="-5" type="line"/>
      <point x="327.9501358231959" y="-5.0"/>
      <point x="454.5249994698393" y="18.64925692570455"/>
      <point x="454.52500013563366" y="215.0" type="curve"/>
      <point x="454.5250013902452" y="585.0" type="line"/>
      <point x="454.52500205603957" y="781.3507430742955"/>
      <point x="327.950134297317" y="805.0"/>
      <point x="274.525" y="805.0" type="curve"/>
    </contour>
    <contour>
      <point x="502.0250015258789" y="0" type="line"/>
      <point x="682.0250015258789" y="0" type="line"/>
      <point x="682.0250015258789" y="800" type="line"/>
      <point x="502.0250015258789" y="800" type="line"/>
    </contour>
    <contour>
      <point x="729.525" y="800.0" type="line"/>
      <point x="729.525" y="700.6553"/>
      <point x="810.1803" y="620.0"/>
      <point x="909.525" y="620.0" type="curve"/>
      <point x="909.525" y="800.0" type="line"/>
    </contour>
    <contour>
      <point x="729.525" y="500.0" type="line"/>
      <point x="729.525" y="400.6553"/>
      <point x="810.1803" y="320.0"/>
      <point x="909.525" y="320.0" type="curve"/>
      <point x="909.525" y="500.0" type="line"/>
    </contour>
    <contour>
      <point x="909.525" y="180.0" type="line"/>
      <point x="810.1803" y="180.0"/>
      <point x="729.525" y="99.3447"/>
      <point x="729.525" y="0.0" type="curve"/>
      <point x="909.525" y="0.0" type="line"/>
    </contour>
  </outline>
</glyph>
<glyph name="oe" format="2">
  <advance width="956.55"/>
  <unicode hex="0153"/>
  <outline>
    <contour>
      <point x="47.02500128173828" y="215.0" type="line"/>
      <point x="47.02500248016813" y="18.64925692570455"/>
      <point x="173.59986570268296" y="-4.999999999999994"/>
      <point x="227.025" y="-5.0" type="curve"/>
      <point x="227.0250015258789" y="605" type="line"/>
      <point x="173.5998672285619" y="605.0"/>
      <point x="47.02499904571079" y="581.3507430742955"/>
      <point x="47.02500024414062" y="385.0" type="curve"/>
    </contour>
    <contour>
      <point x="274.5250015258789" y="-5" type="line"/>
      <point x="327.9501358231959" y="-5.0"/>
      <point x="454.5249990457108" y="18.64925692570455"/>
      <point x="454.5250002441406" y="215.0" type="curve"/>
      <point x="454.5250012817383" y="385.0" type="line"/>
      <point x="454.52500248016815" y="581.3507430742955"/>
      <point x="327.950134297317" y="605.0"/>
      <point x="274.525" y="605.0" type="curve"/>
    </contour>
    <contour>
      <point x="502.0250012817383" y="215.0" type="line"/>
      <point x="502.02500248016815" y="18.64925692570455"/>
      <point x="628.5998657026829" y="-4.999999999999994"/>
      <point x="682.025" y="-5.0" type="curve"/>
      <point x="682.0250015258789" y="605" type="line"/>
      <point x="628.599867228562" y="605.0"/>
      <point x="502.0249990457108" y="581.3507430742955"/>
      <point x="502.0250002441406" y="385.0" type="curve"/>
    </contour>
    <contour>
      <point x="729.5250015258789" y="195" type="line"/>
      <point x="909.5250015258789" y="195" type="line"/>
      <point x="909.5250015258789" y="385.0" type="line"/>
      <point x="909.5250015258789" y="581.3507430742955"/>
      <point x="782.950134297317" y="605.0"/>
      <point x="729.525" y="605.0" type="curve"/>
    </contour>
  </outline>
</glyph>
<glyph name="r_with_cedilla" format="2">
  <advance width="501.55"/>
  <unicode hex="0157"/>
  <outline>
    <contour>
      <point x="459.525" y="510.0" type="curve" smooth="yes"/>
      <point x="459.525" y="562.43193"/>
      <point x="416.95693" y="605.0"/>
      <point x="364.525" y="605.0" type="curve" smooth="yes"/>
      <point x="312.09306999999995" y="605.0"/>
      <point x="269.525" y="562.43193"/>
      <point x="269.525" y="510.0" type="curve" smooth="yes"/>
      <point x="269.525" y="457.56807"/>
      <point x="312.09306999999995" y="415.0"/>
      <point x="364.525" y="415.0" type="curve" smooth="yes"/>
      <point x="416.95693" y="415.0"/>
      <point x="459.525" y="457.56807"/>
    </contour>
    <contour>
      <point x="47.025001525878906" y="0" type="line"/>
      <point x="227.0250015258789" y="0" type="line"/>
      <point x="227.0250015258789" y="600" type="line"/>
      <point x="47.025001525878906" y="600" type="line"/>
    </contour>
    <contour>
      <point x="422.025" y="-205.0" type="line"/>
      <point x="422.025" y="-105.6553"/>
      <point x="341.36969999999997" y="-25.0"/>
      <point x="242.025" y="-25.0" type="curve"/>
      <point x="242.025" y="-205.0" type="line"/>
    </contour>
  </outline>
</glyph>
<glyph name="s_with_acute" format="2">
  <advance width="501.55"/>
  <unicode hex="015B"/>
  <outline>
    <contour>
      <point x="239.525" y="636.1111111111111" type="line"/>
      <point x="338.86969999999997" y="636.1111111111111"/>
      <point x="419.525" y="716.7664111111111"/>
      <point x="419.525" y="816.1111111111111" type="curve"/>
      <point x="239.525" y="816.1111111111111" type="line"/>
    </contour>
    <contour>
      <point x="47.025001525878906" y="390" type="line"/>
      <point x="47.025000000000006" y="290.65529999999995"/>
      <point x="127.68029999999996" y="210.0"/>
      <point x="227.025" y="210.0" type="curve"/>
      <point x="227.0250015258789" y="600" type="line"/>
      <point x="151.05565517134167" y="600.0"/>
      <point x="47.02499333449993" y="551.0490635893432"/>
      <point x="47.025001271565756" y="395.0" type="curve"/>
    </contour>
    <contour>
      <point x="268.9" y="600.0" type="line"/>
      <point x="268.9" y="500.6553"/>
      <point x="349.5553" y="420.0"/>
      <point x="448.9" y="420.0" type="curve"/>
      <point x="448.9" y="600.0" type="line"/>
    </contour>
    <contour>
      <point x="274.5250015258789" y="-5" type="line"/>
      <point x="350.49434788041617" y="-5.0"/>
      <point x="454.5249933344998" y="43.95093641065685"/>
      <point x="454.52500127156577" y="200.0" type="curve"/>
      <point x="454.5250015258789" y="205" type="line"/>
      <point x="454.525" y="304.34470000000005"/>
      <point x="373.8697" y="385.0"/>
      <point x="274.525" y="385.0" type="curve"/>
    </contour>
    <contour>
      <point x="229.8375" y="0" type="line"/>
      <point x="229.8375" y="99.3447"/>
      <point x="149.1822" y="180.0"/>
      <point x="49.8375" y="180.0" type="curve"/>
      <point x="49.8375" y="0" type="line"/>
    </contour>
  </outline>
</glyph>
<glyph name="u_with_breve" format="2">
  <advance width="501.55"/>
  <unicode hex="016D"/>
  <outline>
    <contour>
      <point x="70.7750015258789" y="816.1111145019531" type="line"/>
      <point x="70.775" y="716.7664111111111"/>
      <point x="151.4303" y="636.1111111111111"/>
      <point x="250.775" y="636.1111111111111" type="curve"/>
      <point x="350.11969999999997" y="636.1111111111111"/>
      <point x="430.775" y="716.7664111111111"/>
      <point x="430.775" y="816.1111111111111" type="curve"/>
    </contour>
    <contour>
      <point x="47.025001525878906" y="215.0" type="line"/>
      <point x="47.02500152587892" y="18.64925692570455"/>
      <point x="173.59986570268296" y="-4.999999999999994"/>
      <point x="227.025" y="-5.0" type="curve"/>
      <point x="227.0250015258789" y="600" type="line"/>
      <point x="47.025001525878906" y="600" type="line"/>
    </contour>
    <contour>
      <point x="274.5250015258789" y="-5" type="line"/>
      <point x="327.9501358231959" y="-5.0"/>
      <point x="454.52499943865337" y="18.64925692570455"/>
      <point x="454.5250001436121" y="215.0" type="curve"/>
      <point x="454.5250015258789" y="600" type="line"/>
      <point x="274.5250015258789" y="600" type="line"/>
    </contour>
  </outline>
</glyph>
<glyph name="U_with_ring" format="2">
  <advance width="501.55"/>
  <unicode hex="016E"/>
  <outline>
    <contour>
      <point x="227.025" y="1021.1111111111111" type="line"/>
      <point x="174.59307" y="1021.1111111111111"/>
      <point x="132.025" y="978.543041111111"/>
      <point x="132.025" y="926.1111111111111" type="curve" smooth="yes"/>
      <point x="132.025" y="873.6791811111111"/>
      <point x="174.59307" y="831.1111111111111"/>
      <point x="227.025" y="831.1111111111111" type="curve"/>
    </contour>
    <contour>
      <point x="274.525" y="831.1111111111111" type="line"/>
      <point x="326.95693000000006" y="831.1111111111111"/>
      <point x="369.525" y="873.6791811111111"/>
      <point x="369.525" y="926.1111111111111" type="curve" smooth="yes"/>
      <point x="369.525" y="978.543041111111"/>
      <point x="326.95693000000006" y="1021.1111111111111"/>
      <point x="274.525" y="1021.1111111111111" type="curve"/>
    </contour>
    <contour>
      <point x="47.025001525878906" y="215.0" type="line"/>
      <point x="47.02500152587892" y="18.64925692570455"/>
      <point x="173.59986570268296" y="-4.999999999999994"/>
      <point x="227.025" y="-5.0" type="curve"/>
      <point x="227.0250015258789" y="800" type="line"/>
      <point x="47.025001525878906" y="800" type="line"/>
    </contour>
    <contour>
      <point x="274.5250015258789" y="-5" type="line"/>
      <point x="327.9501358231959" y="-5.0"/>
      <point x="454.52499961828426" y="18.64925692570455"/>
      <point x="454.52500009765623" y="215.0" type="curve"/>
      <point x="454.5250015258789" y="800" type="line"/>
      <point x="274.5250015258789" y="800" type="line"/>
    </contour>
  </outline>
</glyph>
<glyph name="u_with_ring" format="2">
  <advance width="501.55"/>
  <unicode hex="016F"/>
  <outline>
    <contour>
      <point x="227.025" y="821.1111111111111" type="line"/>
      <point x="174.59307" y="821.1111111111111"/>
      <point x="132.025" y="778.543041111111"/>
      <point x="132.025" y="726.1111111111111" type="curve" smooth="yes"/>
      <point x="132.025" y="673.6791811111111"/>
      <point x="174.59307" y="631.1111111111111"/>
      <point x="227.025" y="631.1111111111111" type="curve"/>
    </contour>
    <contour>
      <point x="274.525" y="631.1111111111111" type="line"/>
      <point x="326.95693000000006" y="631.1111111111111"/>
      <point x="369.525" y="673.6791811111111"/>
      <point x="369.525" y="726.1111111111111" type="curve" smooth="yes"/>
      <point x="369.525" y="778.543041111111"/>
      <point x="326.95693000000006" y="821.1111111111111"/>
      <point x="274.525" y="821.1111111111111" type="curve"/>
    </contour>
    <contour>
      <point x="47.025001525878906" y="215.0" type="line"/>
      <point x="47.02500152587892" y="18.64925692570455"/>
      <point x="173.59986570268296" y="-4.999999999999994"/>
      <point x="227.025" y="-5.0" type="curve"/>
      <point x="227.0250015258789" y="600" type="line"/>
      <point x="47.025001525878906" y="600" type="line"/>
    </contour>
    <contour>
      <point x="274.5250015258789" y="-5" type="line"/>
      <point x="327.9501358231959" y="-5.0"/>
      <point x="454.52499943865337" y="18.64925692570455"/>
      <point x="454.5250001436121" y="215.0" type="curve"/>
      <point x="454.5250015258789" y="600" type="line"/>
      <point x="274.5250015258789" y="600" type="line"/>
    </contour>
  </outline>
</glyph>
<glyph name="w_with_circumflex" format="2">
  <advance width="729.05"/>
  <unicode hex="0175"/>
  <outline>
    <contour>
      <point x="178.89999999999998" y="636.1111111111111" type="line"/>
      <point x="278.24469999999997" y="636.1111111111111"/>
      <point x="358.9" y="716.7664111111111"/>
      <point x="358.9" y="816.1111111111111" type="curve"/>
      <point x="178.89999999999998" y="816.1111111111111" type="line"/>
    </contour>
    <contour>
      <point x="370.15" y="816.1111111111111" type="line"/>
      <point x="370.15" y="716.7664111111111"/>
      <point x="450.8053" y="636.1111111111111"/>
      <point x="550.15" y="636.1111111111111" type="curve"/>
      <point x="550.15" y="816.1111111111111" type="line"/>
    </contour>
    <contour>
      <point x="47.02500138055711" y="220.0" type="line"/>
      <point x="47.0250020939082" y="23.64925692570455"/>
      <point x="173.59986570268296" y="6.542691971122679e-15"/>
      <point x="227.025" y="0.0" type="curve"/>
      <point x="227.02500138055711" y="380.0" type="line"/>
      <point x="227.0250020939082" y="576.3507430742955"/>
      <point x="100.45013429731704" y="600.0"/>
      <point x="47.025" y="600.0" type="curve"/>
    </contour>
    <contour>
      <point x="274.5250015258789" y="0" type="line"/>
      <point x="454.5250015258789" y="0" type="line"/>
      <point x="454.5250015258789" y="380.0" type="line"/>
      <point x="454.5250015258789" y="576.3507430742955"/>
      <point x="327.950134297317" y="600.0"/>
      <point x="274.525" y="600.0" type="curve"/>
    </contour>
    <contour>
      <point x="502.0250015258789" y="0" type="line"/>
      <point x="555.4501358231959" y="0.0"/>
      <point x="682.0249994319706" y="23.64925692570455"/>
      <point x="682.0250001453218" y="220.0" type="curve"/>
      <point x="682.0250015258789" y="600" type="line"/>
      <point x="502.0250015258789" y="600" type="line"/>
    </contour>
  </outline>
</glyph>
<glyph name="Y_with_diaeresis" format="2">
  <advance width="501.55"/>
  <unicode hex="0178"/>
  <outline>
    <contour>
      <point x="232.025" y="926.1111111111111" type="curve" smooth="yes"/>
      <point x="232.025" y="978.543041111111"/>
      <point x="189.45693" y="1021.1111111111111"/>
      <point x="137.025" y="1021.1111111111111" type="curve" smooth="yes"/>
      <point x="84.59307000000001" y="1021.1111111111111"/>
      <point x="42.025000000000006" y="978.543041111111"/>
      <point x="42.025000000000006" y="926.1111111111111" type="curve" smooth="yes"/>
      <point x="42.025000000000006" y="873.6791811111111"/>
      <point x="84.59307000000001" y="831.1111111111111"/>
      <point x="137.025" y="831.1111111111111" type="curve" smooth="yes"/>
      <point x="189.45693" y="831.1111111111111"/>
      <point x="232.025" y="873.6791811111111"/>
    </contour>
    <contour>
      <point x="459.525" y="926.1111111111111" type="curve" smooth="yes"/>
      <point x="459.525" y="978.543041111111"/>
      <point x="416.95693000000006" y="1021.1111111111111"/>
      <point x="364.525" y="1021.1111111111111" type="curve" smooth="yes"/>
      <point x="312.09307" y="1021.1111111111111"/>
      <point x="269.525" y="978.543041111111"/>
      <point x="269.525" y="926.1111111111111" type="curve" smooth="yes"/>
      <point x="269.525" y="873.6791811111111"/>
      <point x="312.09307" y="831.1111111111111"/>
      <point x="364.525" y="831.1111111111111" type="curve" smooth="yes"/>
      <point x="416.95693000000006" y="831.1111111111111"/>
      <point x="459.525" y="873.6791811111111"/>
    </contour>
    <contour>
      <point x="47.02500138226678" y="420.0" type="line"/>
      <point x="47.02500208722549" y="223.64925692570455"/>
      <point x="173.59986570268296" y="200.0"/>
      <point x="227.025" y="200.0" type="curve"/>
      <point x="227.02500138226677" y="585.0" type="line"/>
      <point x="227.02500208722546" y="781.3507430742955"/>
      <point x="100.45013429731704" y="805.0"/>
      <point x="47.025" y="805.0" type="curve"/>
    </contour>
    <contour>
      <point x="274.5250015258789" y="-5" type="line"/>
      <point x="327.9501358231959" y="-5.0"/>
      <point x="454.52499961828426" y="18.64925692570455"/>
      <point x="454.52500009765623" y="215.0" type="curve"/>
      <point x="454.5250015258789" y="800" type="line"/>
      <point x="274.5250015258789" y="800" type="line"/>
    </contour>
    <contour>
      <point x="237.65" y="80.0" type="curve" smooth="yes"/>
      <point x="237.65" y="132.43193"/>
      <point x="195.08193" y="175.0"/>
      <point x="142.65" y="175.0" type="curve" smooth="yes"/>
      <point x="90.21807" y="175.0"/>
      <point x="47.65" y="132.43193"/>
      <point x="47.65" y="80.0" type="curve" smooth="yes"/>
      <point x="47.65" y="27.56807"/>
      <point x="90.21807" y="-15.0"/>
      <point x="142.65" y="-15.0" type="curve" smooth="yes"/>
      <point x="195.08193" y="-15.0"/>
      <point x="237.65" y="27.56807"/>
    </contour>
  </outline>
</glyph>
<glyph name="Z_with_dotabove" format="2">
  <advance width="501.55"/>
  <unicode hex="017B"/>
  <outline>
    <contour>
      <point x="345.775" y="926.1111111111111" type="curve" smooth="yes"/>
      <point x="345.775" y="978.543041111111"/>
      <point x="303.20693" y="1021.1111111111111"/>
      <point x="250.775" y="1021.1111111111111" type="curve" smooth="yes"/>
      <point x="198.34307" y="1021.1111111111111"/>
      <point x="155.775" y="978.543041111111"/>
      <point x="155.775" y="926.1111111111111" type="curve" smooth="yes"/>
      <point x="155.775" y="873.6791811111111"/>
      <point x="198.34307" y="831.1111111111111"/>
      <point x="250.775" y="831.1111111111111" type="curve" smooth="yes"/>
      <point x="303.20693" y="831.1111111111111"/>
      <point x="345.775" y="873.6791811111111"/>
    </contour>
    <contour>
      <point x="47.025" y="620.0" type="line"/>
      <point x="146.3697" y="620.0"/>
      <point x="227.025" y="700.6553"/>
      <point x="227.025" y="800.0" type="curve"/>
      <point x="47.025" y="800.0" type="line"/>
    </contour>
    <contour>
      <point x="274.5250015258789" y="310" type="line"/>
      <point x="327.9501358231959" y="310.0"/>
      <point x="454.5249992304119" y="333.64925692570455"/>
      <point x="454.52500019688756" y="530.0" type="curve"/>
      <point x="454.5250015258789" y="800" type="line"/>
      <point x="274.5250015258789" y="800" type="line"/>
    </contour>
    <contour>
      <point x="47.025001525878906" y="0" type="line"/>
      <point x="227.0250015258789" y="0" type="line"/>
      <point x="227.0250015258789" y="490" type="line"/>
      <point x="173.5998672285619" y="490.0"/>
      <point x="47.02499923041194" y="466.35074307429545"/>
      <point x="47.025000196887596" y="270.0" type="curve"/>
    </contour>
    <contour>
      <point x="454.525" y="180.0" type="line"/>
      <point x="355.1803" y="180.0"/>
      <point x="274.525" y="99.3447"/>
      <point x="274.525" y="0.0" type="curve"/>
      <point x="454.525" y="0.0" type="line"/>
    </contour>
  </outline>
</glyph>
<glyph name="z_with_dotabove" format="2">
  <advance width="501.55"/>
  <unicode hex="017C"/>
  <outline>
    <contour>
      <point x="345.775" y="726.1111111111111" type="curve" smooth="yes"/>
      <point x="345.775" y="778.543041111111"/>
      <point x="303.20693" y="821.1111111111111"/>
      <point x="250.775" y="821.1111111111111" type="curve" smooth="yes"/>
      <point x="198.34307" y="821.1111111111111"/>
      <point x="155.775" y="778.543041111111"/>
      <point x="155.775" y="726.1111111111111" type="curve" smooth="yes"/>
      <point x="155.775" y="673.6791811111111"/>
      <point x="198.34307" y="631.1111111111111"/>
      <point x="250.775" y="631.1111111111111" type="curve" smooth="yes"/>
      <point x="303.20693" y="631.1111111111111"/>
      <point x="345.775" y="673.6791811111111"/>
    </contour>
    <contour>
      <point x="47.025" y="420.0" type="line"/>
      <point x="146.3697" y="420.0"/>
      <point x="227.025" y="500.6553"/>
      <point x="227.025" y="600.0" type="curve"/>
      <point x="47.025" y="600.0" type="line"/>
    </contour>
    <contour>
      <point x="274.5250015258789" y="210" type="line"/>
      <point x="327.9501358231959" y="210.0"/>
      <point x="454.5249988639414" y="233.64925692570455"/>
      <point x="454.52500029064356" y="430.0" type="curve"/>
      <point x="454.5250015258789" y="600" type="line"/>
      <point x="274.5250015258789" y="600" type="line"/>
    </contour>
    <contour>
      <point x="47.025001525878906" y="0" type="line"/>
      <point x="227.0250015258789" y="0" type="line"/>
      <point x="227.0250015258789" y="390" type="line"/>
      <point x="173.5998672285619" y="390.0"/>
      <point x="47.02499886394141" y="366.35074307429545"/>
      <point x="47.025000290643604" y="170.0" type="curve"/>
    </contour>
    <contour>
      <point x="454.525" y="180.0" type="line"/>
      <point x="355.1803" y="180.0"/>
      <point x="274.525" y="99.3447"/>
      <point x="274.525" y="0.0" type="curve"/>
      <point x="454.525" y="0.0" type="line"/>
    </contour>
  </outline>
</glyph>
<glyph name="SCHWA" format="2">
  <advance width="501.55"/>
  <unicode hex="018F"/>
  <outline>
    <contour>
      <point x="274.5250015258789" y="-5" type="line"/>
      <point x="327.9501358231959" y="-5.0"/>
      <point x="454.5249994698393" y="18.64925692570455"/>
      <point x="454.52500013563366" y="215.0" type="curve"/>
      <point x="454.5250013902452" y="585.0" type="line"/>
      <point x="454.52500205603957" y="781.3507430742955"/>
      <point x="327.950134297317" y="805.0"/>
      <point x="274.525" y="805.0" type="curve"/>
    </contour>
    <contour>
      <point x="47.025001525878906" y="215.0" type="line"/>
      <point x="47.02500152587892" y="18.64925692570455"/>
      <point x="173.59986570268296" y="-4.999999999999994"/>
      <point x="227.025" y="-5.0" type="curve"/>
      <point x="227.0250015258789" y="500" type="line"/>
      <point x="47.025001525878906" y="500" type="line"/>
    </contour>
  </outline>
</glyph>
<glyph name="florin" format="2">
  <advance width="729.05"/>
  <unicode hex="0192"/>
  <outline>
    <contour>
      <point x="274.5250015258789" y="0" type="line"/>
      <point x="327.9501358231959" y="0.0"/>
      <point x="454.52499961828426" y="23.64925692570455"/>
      <point x="454.52500009765623" y="220.0" type="curve"/>
      <point x="454.5250015258789" y="805" type="line"/>
      <point x="401.0998672285619" y="805.0"/>
      <point x="274.52499961828426" y="781.3507430742955"/>
      <point x="274.52500009765623" y="585.0" type="curve"/>
    </contour>
    <contour>
      <point x="687.025" y="710.0" type="curve" smooth="yes"/>
      <point x="687.025" y="762.43193"/>
      <point x="644.4569299999999" y="805.0"/>
      <point x="592.025" y="805.0" type="curve" smooth="yes"/>
      <point x="539.59307" y="805.0"/>
      <point x="497.025" y="762.43193"/>
      <point x="497.025" y="710.0" type="curve" smooth="yes"/>
      <point x="497.025" y="657.56807"/>
      <point x="539.59307" y="615.0"/>
      <point x="592.025" y="615.0" type="curve" smooth="yes"/>
      <point x="644.4569299999999" y="615.0"/>
      <point x="687.025" y="657.56807"/>
    </contour>
    <contour>
      <point x="114.5250015258789" y="405" type="line"/>
      <point x="227.0250015258789" y="405" type="line"/>
      <point x="227.0250015258789" y="495" type="line"/>
      <point x="114.5250015258789" y="495" type="line"/>
    </contour>
    <contour>
      <point x="502.0250015258789" y="405" type="line"/>
      <point x="637.0250015258789" y="405" type="line"/>
      <point x="637.0250015258789" y="495" type="line"/>
      <point x="502.0250015258789" y="495" type="line"/>
    </contour>
    <contour>
      <point x="232.025" y="90.0" type="curve" smooth="yes"/>
      <point x="232.025" y="142.43193"/>
      <point x="189.45693" y="185.0"/>
      <point x="137.025" y="185.0" type="curve" smooth="yes"/>
      <point x="84.59307" y="185.0"/>
      <point x="42.025" y="142.43193"/>
      <point x="42.025" y="90.0" type="curve" smooth="yes"/>
      <point x="42.025" y="37.56807"/>
      <point x="84.59307" y="-5.0"/>
      <point x="137.025" y="-5.0" type="curve" smooth="yes"/>
      <point x="189.45693" y="-5.0"/>
      <point x="232.025" y="37.56807"/>
    </contour>
  </outline>
</glyph>
<glyph name="o_with_ogonek" format="2">
  <advance width="501.55"/>
  <unicode hex="01EB"/>
  <outline>
    <contour>
      <point x="47.02500128173828" y="215.0" type="line"/>
      <point x="47.02500248016813" y="18.64925692570455"/>
      <point x="173.59986570268296" y="-4.999999999999994"/>
      <point x="227.025" y="-5.0" type="curve"/>
      <point x="227.0250015258789" y="605" type="line"/>
      <point x="173.5998672285619" y="605.0"/>
      <point x="47.02499904571079" y="581.3507430742955"/>
      <point x="47.02500024414062" y="385.0" type="curve"/>
    </contour>
    <contour>
      <point x="274.5250015258789" y="-5" type="line"/>
      <point x="327.9501358231959" y="-5.0"/>
      <point x="454.5249990457108" y="18.64925692570455"/>
      <point x="454.5250002441406" y="215.0" type="curve"/>
      <point x="454.5250012817383" y="385.0" type="line"/>
      <point x="454.52500248016815" y="581.3507430742955"/>
      <point x="327.950134297317" y="605.0"/>
      <point x="274.525" y="605.0" type="curve"/>
    </contour>
    <contour>
      <point x="250.77499999999998" y="-30.0" type="line"/>
      <point x="151.4303" y="-30.0"/>
      <point x="70.77499999999998" y="-110.6553"/>
      <point x="70.77499999999998" y="-210.0" type="curve"/>
      <point x="250.77499999999998" y="-210.0" type="line"/>
    </contour>
  </outline>
</glyph>
<glyph name="AE_with_acute" format="2">
  <advance width="956.55"/>
  <unicode hex="01FC"/>
  <outline>
    <contour>
      <point x="467.025" y="836.1111111111111" type="line"/>
      <point x="566.3697" y="836.1111111111111"/>
      <point x="647.025" y="916.7664111111111"/>
      <point x="647.025" y="1016.1111111111111" type="curve"/>
      <point x="467.025" y="1016.1111111111111" type="line"/>
    </contour>
    <contour>
      <point x="47.025001525878906" y="0" type="line"/>
      <point x="227.0250015258789" y="0" type="line"/>
      <point x="227.0250015258789" y="805" type="line"/>
      <point x="173.5998672285619" y="805.0"/>
      <point x="47.024999618284305" y="781.3507430742955"/>
      <point x="47.02500009765625" y="585.0" type="curve"/>
    </contour>
    <contour>
      <point x="274.5250015258789" y="0" type="line"/>
      <point x="454.5250015258789" y="0" type="line"/>
      <point x="454.5250015258789" y="585.0" type="line"/>
      <point x="454.5250015258789" y="781.3507430742955"/>
      <point x="327.950134297317" y="805.0"/>
      <point x="274.525" y="805.0" type="curve"/>
    </contour>
    <contour>
      <point x="502.0250015258789" y="0" type="line"/>
      <point x="682.0250015258789" y="0" type="line"/>
      <point x="682.0250015258789" y="800" type="line"/>
      <point x="502.0250015258789" y="800" type="line"/>
    </contour>
    <contour>
      <point x="729.525" y="800.0" type="line"/>
      <point x="729.525" y="700.6553"/>
      <point x="810.1803" y="620.0"/>
      <point x="909.525" y="620.0" type="curve"/>
      <point x="909.525" y="800.0" type="line"/>
    </contour>
    <contour>
      <point x="729.525" y="500.0" type="line"/>
      <point x="729.525" y="400.6553"/>
      <point x="810.1803" y="320.0"/>
      <point x="909.525" y="320.0" type="curve"/>
      <point x="909.525" y="500.0" type="line"/>
    </contour>
    <contour>
      <point x="909.525" y="180.0" type="line"/>
      <point x="810.1803" y="180.0"/>
      <point x="729.525" y="99.3447"/>
      <point x="729.525" y="0.0" type="curve"/>
      <point x="909.525" y="0.0" type="line"/>
    </contour>
  </outline>
</glyph>
<glyph name="ae_with_acute" format="2">
  <advance width="956.55"/>
  <unicode hex="01FD"/>
  <outline>
    <contour>
      <point x="465.93125" y="636.1111111111111" type="line"/>
      <point x="565.27595" y="636.1111111111111"/>
      <point x="645.93125" y="716.7664111111111"/>
      <point x="645.93125" y="816.1111111111111" type="curve"/>
      <point x="465.93125" y="816.1111111111111" type="line"/>
    </contour>
    <contour>
      <point x="234.8375" y="510.0" type="curve" smooth="yes"/>
      <point x="234.8375" y="562.43193"/>
      <point x="192.26943" y="605.0"/>
      <point x="139.8375" y="605.0" type="curve" smooth="yes"/>
      <point x="87.40557" y="605.0"/>
      <point x="44.8375" y="562.43193"/>
      <point x="44.8375" y="510.0" type="curve" smooth="yes"/>
      <point x="44.8375" y="457.56807"/>
      <point x="87.40557" y="415.0"/>
      <point x="139.8375" y="415.0" type="curve" smooth="yes"/>
      <point x="192.26943" y="415.0"/>
      <point x="234.8375" y="457.56807"/>
    </contour>
    <contour>
      <point x="274.5250015258789" y="-5" type="line"/>
      <point x="327.9501358231959" y="-5.0"/>
      <point x="454.5249990457108" y="18.64925692570455"/>
      <point x="454.5250002441406" y="215.0" type="curve"/>
      <point x="454.5250012817383" y="385.0" type="line"/>
      <point x="454.52500248016815" y="581.3507430742955"/>
      <point x="327.950134297317" y="605.0"/>
      <point x="274.525" y="605.0" type="curve"/>
    </contour>
    <contour>
      <point x="502.0250012817383" y="215.0" type="line"/>
      <point x="502.02500248016815" y="18.64925692570455"/>
      <point x="628.5998657026829" y="-4.999999999999994"/>
      <point x="682.025" y="-5.0" type="curve"/>
      <point x="682.0250015258789" y="605" type="line"/>
      <point x="628.599867228562" y="605.0"/>
      <point x="502.0249990457108" y="581.3507430742955"/>
      <point x="502.0250002441406" y="385.0" type="curve"/>
    </contour>
    <contour>
      <point x="729.5250015258789" y="195" type="line"/>
      <point x="909.5250015258789" y="195" type="line"/>
      <point x="909.5250015258789" y="385.0" type="line"/>
      <point x="909.5250015258789" y="581.3507430742955"/>
      <point x="782.950134297317" y="605.0"/>
      <point x="729.525" y="605.0" type="curve"/>
    </contour>
    <contour>
      <point x="47.025001525878906" y="175" type="line"/>
      <point x="47.025000000000006" y="75.65529999999997"/>
      <point x="127.68029999999996" y="-4.999999999999988"/>
      <point x="227.025" y="-5.0" type="curve"/>
      <point x="227.0250015258789" y="395" type="line"/>
      <point x="161.42071978491273" y="395.0"/>
      <point x="47.024994499253864" y="359.1987595949363"/>
      <point x="47.02500133514404" y="180.0" type="curve"/>
    </contour>
  </outline>
</glyph>
<glyph name="A_with_gravedbl" format="2">
  <advance width="501.55"/>
  <unicode hex="0200"/>
  <outline>
    <contour>
      <point x="47.025000000000006" y="1016.1111111111111" type="line"/>
      <point x="47.025000000000006" y="916.7664111111111"/>
      <point x="127.6803" y="836.1111111111111"/>
      <point x="227.025" y="836.1111111111111" type="curve"/>
      <point x="227.025" y="1016.1111111111111" type="line"/>
    </contour>
    <contour>
      <point x="274.525" y="1016.1111111111111" type="line"/>
      <point x="274.525" y="916.7664111111111"/>
      <point x="355.1803" y="836.1111111111111"/>
      <point x="454.525" y="836.1111111111111" type="curve"/>
      <point x="454.525" y="1016.1111111111111" type="line"/>
    </contour>
    <contour>
      <point x="47.025001525878906" y="0" type="line"/>
      <point x="227.0250015258789" y="0" type="line"/>
      <point x="227.0250015258789" y="805" type="line"/>
      <point x="173.5998672285619" y="805.0"/>
      <point x="47.024999618284305" y="781.3507430742955"/>
      <point x="47.02500009765625" y="585.0" type="curve"/>
    </contour>
    <contour>
      <point x="274.5250015258789" y="0" type="line"/>
      <point x="454.5250015258789" y="0" type="line"/>
      <point x="454.5250015258789" y="585.0" type="line"/>
      <point x="454.5250015258789" y="781.3507430742955"/>
      <point x="327.950134297317" y="805.0"/>
      <point x="274.525" y="805.0" type="curve"/>
    </contour>
  </outline>
</glyph>
<glyph name="I_with_gravedbl" format="2">
  <advance width="274.05"/>
  <unicode hex="0208"/>
  <outline>
    <contour>
      <point x="-66.725" y="1016.1111111111111" type="line"/>
      <point x="-66.725" y="916.7664111111111"/>
      <point x="13.930300000000003" y="836.1111111111111"/>
      <point x="113.275" y="836.1111111111111" type="curve"/>
      <point x="113.275" y="1016.1111111111111" type="line"/>
    </contour>
    <contour>
      <point x="160.775" y="1016.1111111111111" type="line"/>
      <point x="160.775" y="916.7664111111111"/>
      <point x="241.43030000000002" y="836.1111111111111"/>
      <point x="340.775" y="836.1111111111111" type="curve"/>
      <point x="340.775" y="1016.1111111111111" type="line"/>
    </contour>
    <contour>
      <point x="47.025001525878906" y="0" type="line"/>
      <point x="227.0250015258789" y="0" type="line"/>
      <point x="227.0250015258789" y="800" type="line"/>
      <point x="47.025001525878906" y="800" type="line"/>
    </contour>
  </outline>
</glyph>
<glyph name="I_with_breveinv" format="2">
  <advance width="274.05"/>
  <unicode hex="020A"/>
  <outline>
    <contour>
      <point x="317.0250015258789" y="836.1111145019531" type="line"/>
      <point x="317.025" y="935.4558111111111"/>
      <point x="236.3697" y="1016.1111111111111"/>
      <point x="137.025" y="1016.1111111111111" type="curve"/>
      <point x="37.6803" y="1016.1111111111111"/>
      <point x="-42.974999999999994" y="935.4558111111111"/>
      <point x="-42.974999999999994" y="836.1111111111111" type="curve"/>
    </contour>
    <contour>
      <point x="47.025001525878906" y="0" type="line"/>
      <point x="227.0250015258789" y="0" type="line"/>
      <point x="227.0250015258789" y="800" type="line"/>
      <point x="47.025001525878906" y="800" type="line"/>
    </contour>
  </outline>
</glyph>
<glyph name="i_with_breveinv" format="2">
  <advance width="274.05"/>
  <unicode hex="020B"/>
  <outline>
    <contour>
      <point x="317.0250015258789" y="636.1111145019531" type="line"/>
      <point x="317.025" y="735.4558111111111"/>
      <point x="236.3697" y="816.1111111111111"/>
      <point x="137.025" y="816.1111111111111" type="curve"/>
      <point x="37.6803" y="816.1111111111111"/>
      <point x="-42.974999999999994" y="735.4558111111111"/>
      <point x="-42.974999999999994" y="636.1111111111111" type="curve"/>
    </contour>
    <contour>
      <point x="47.025001525878906" y="0" type="line"/>
      <point x="227.0250015258789" y="0" type="line"/>
      <point x="227.0250015258789" y="600" type="line"/>
      <point x="47.025001525878906" y="600" type="line"/>
    </contour>
  </outline>
</glyph>
<glyph name="R_with_gravedbl" format="2">
  <advance width="501.55"/>
  <unicode hex="0210"/>
  <outline>
    <contour>
      <point x="47.025000000000006" y="1016.1111111111111" type="line"/>
      <point x="47.025000000000006" y="916.7664111111111"/>
      <point x="127.6803" y="836.1111111111111"/>
      <point x="227.025" y="836.1111111111111" type="curve"/>
      <point x="227.025" y="1016.1111111111111" type="line"/>
    </contour>
    <contour>
      <point x="274.525" y="1016.1111111111111" type="line"/>
      <point x="274.525" y="916.7664111111111"/>
      <point x="355.1803" y="836.1111111111111"/>
      <point x="454.525" y="836.1111111111111" type="curve"/>
      <point x="454.525" y="1016.1111111111111" type="line"/>
    </contour>
    <contour>
      <point x="47.025001525878906" y="0" type="line"/>
      <point x="227.0250015258789" y="0" type="line"/>
      <point x="227.0250015258789" y="800" type="line"/>
      <point x="47.025001525878906" y="800" type="line"/>
    </contour>
    <contour>
      <point x="274.5250015258789" y="200" type="line"/>
      <point x="327.9501358231959" y="200.0"/>
      <point x="454.5249990059487" y="223.64925692570455"/>
      <point x="454.5250002543131" y="420.0" type="curve"/>
      <point x="454.52500127156577" y="580.0" type="line"/>
      <point x="454.5250025199302" y="776.3507430742955"/>
      <point x="327.950134297317" y="800.0"/>
      <point x="274.525" y="800.0" type="curve"/>
    </contour>
    <contour>
      <point x="274.5250015258789" y="0" type="line"/>
      <point x="454.5250015258789" y="0" type="line"/>
      <point x="454.5250015258789" y="5.0" type="line"/>
      <point x="454.5250015258789" y="140.05244671369658"/>
      <point x="358.20397226293227" y="200.0"/>
      <point x="274.525" y="200.0" type="curve"/>
    </contour>
  </outline>
</glyph>
<glyph name="R_with_breveinv" format="2">
  <advance width="501.55"/>
  <unicode hex="0212"/>
  <outline>
    <contour>
      <point x="430.7750015258789" y="836.1111145019531" type="line"/>
      <point x="430.775" y="935.4558111111111"/>
      <point x="350.11969999999997" y="1016.1111111111111"/>
      <point x="250.775" y="1016.1111111111111" type="curve"/>
      <point x="151.4303" y="1016.1111111111111"/>
      <point x="70.775" y="935.4558111111111"/>
      <point x="70.775" y="836.1111111111111" type="curve"/>
    </contour>
    <contour>
      <point x="47.025001525878906" y="0" type="line"/>
      <point x="227.0250015258789" y="0" type="line"/>
      <point x="227.0250015258789" y="800" type="line"/>
      <point x="47.025001525878906" y="800" type="line"/>
    </contour>
    <contour>
      <point x="274.5250015258789" y="200" type="line"/>
      <point x="327.9501358231959" y="200.0"/>
      <point x="454.5249990059487" y="223.64925692570455"/>
      <point x="454.5250002543131" y="420.0" type="curve"/>
      <point x="454.52500127156577" y="580.0" type="line"/>
      <point x="454.5250025199302" y="776.3507430742955"/>
      <point x="327.950134297317" y="800.0"/>
      <point x="274.525" y="800.0" type="curve"/>
    </contour>
    <contour>
      <point x="274.5250015258789" y="0" type="line"/>
      <point x="454.5250015258789" y="0" type="line"/>
      <point x="454.5250015258789" y="5.0" type="line"/>
      <point x="454.5250015258789" y="140.05244671369658"/>
      <point x="358.20397226293227" y="200.0"/>
      <point x="274.525" y="200.0" type="curve"/>
    </contour>
  </outline>
</glyph>
<glyph name="r_with_breveinv" format="2">
  <advance width="501.55"/>
  <unicode hex="0213"/>
  <outline>
    <contour>
      <point x="433.2750015258789" y="636.1111145019531" type="line"/>
      <point x="433.275" y="735.4558111111111"/>
      <point x="352.61969999999997" y="816.1111111111111"/>
      <point x="253.275" y="816.1111111111111" type="curve"/>
      <point x="153.9303" y="816.1111111111111"/>
      <point x="73.275" y="735.4558111111111"/>
      <point x="73.275" y="636.1111111111111" type="curve"/>
    </contour>
    <contour>
      <point x="459.525" y="510.0" type="curve" smooth="yes"/>
      <point x="459.525" y="562.43193"/>
      <point x="416.95693" y="605.0"/>
      <point x="364.525" y="605.0" type="curve" smooth="yes"/>
      <point x="312.09306999999995" y="605.0"/>
      <point x="269.525" y="562.43193"/>
      <point x="269.525" y="510.0" type="curve" smooth="yes"/>
      <point x="269.525" y="457.56807"/>
      <point x="312.09306999999995" y="415.0"/>
      <point x="364.525" y="415.0" type="curve" smooth="yes"/>
      <point x="416.95693" y="415.0"/>
      <point x="459.525" y="457.56807"/>
    </contour>
    <contour>
      <point x="47.025001525878906" y="0" type="line"/>
      <point x="227.0250015258789" y="0" type="line"/>
      <point x="227.0250015258789" y="600" type="line"/>
      <point x="47.025001525878906" y="600" type="line"/>
    </contour>
  </outline>
</glyph>
<glyph name="S_with_commabelow" format="2">
  <advance width="501.55"/>
  <unicode hex="0218"/>
  <outline>
    <contour>
      <point x="47.025001056377704" y="530.0" type="line"/>
      <point x="47.025003361050466" y="333.64925692570455"/>
      <point x="173.59986570268296" y="310.0"/>
      <point x="227.025" y="310.0" type="curve"/>
      <point x="227.0250015258789" y="800" type="line"/>
      <point x="173.5998672285619" y="800.0"/>
      <point x="47.02499816482847" y="776.3507430742955"/>
      <point x="47.0250004695012" y="580.0" type="curve"/>
    </contour>
    <contour>
      <point x="268.9" y="800.0" type="line"/>
      <point x="268.9" y="700.6553"/>
      <point x="349.5553" y="620.0"/>
      <point x="448.9" y="620.0" type="curve"/>
      <point x="448.9" y="800.0" type="line"/>
    </contour>
    <contour>
      <point x="274.5250015258789" y="0" type="line"/>
      <point x="327.9501358231959" y="0.0"/>
      <point x="454.5249981648284" y="23.649256925704577"/>
      <point x="454.5250004695012" y="220.0" type="curve"/>
      <point x="454.52500105637773" y="270.0" type="line"/>
      <point x="454.52500336105044" y="466.35074307429545"/>
      <point x="327.950134297317" y="490.0"/>
      <point x="274.525" y="490.0" type="curve"/>
    </contour>
    <contour>
      <point x="229.8375" y="0" type="line"/>
      <point x="229.8375" y="99.3447"/>
      <point x="149.1822" y="180.0"/>
      <point x="49.8375" y="180.0" type="curve"/>
      <point x="49.8375" y="0" type="line"/>
    </contour>
    <contour>
      <point x="160.775" y="-215.0" type="line"/>
      <point x="260.1197" y="-215.0"/>
      <point x="340.775" y="-134.3447"/>
      <point x="340.775" y="-35.0" type="curve"/>
      <point x="160.775" y="-35.0" type="line"/>
    </contour>
  </outline>
</glyph>
<glyph name="j_dotless" format="2">
  <advance width="501.55"/>
  <unicode hex="0237"/>
  <outline>
    <contour>
      <point x="274.5250015258789" y="-210" type="line"/>
      <point x="327.9501358231959" y="-210.0"/>
      <point x="454.5249996213138" y="-186.35074307429545"/>
      <point x="454.5250000968812" y="10.0" type="curve"/>
      <point x="454.5250015258789" y="600" type="line"/>
      <point x="274.5250015258789" y="600" type="line"/>
    </contour>
    <contour>
      <point x="232.65" y="-120.0" type="curve" smooth="yes"/>
      <point x="232.65" y="-70.32765"/>
      <point x="192.32235" y="-30.0"/>
      <point x="142.65" y="-30.0" type="curve" smooth="yes"/>
      <point x="92.97765" y="-30.0"/>
      <point x="52.65" y="-70.32765"/>
      <point x="52.65" y="-120.0" type="curve" smooth="yes"/>
      <point x="52.65" y="-169.67235"/>
      <point x="92.97765" y="-210.0"/>
      <point x="142.65" y="-210.0" type="curve" smooth="yes"/>
      <point x="192.32235" y="-210.0"/>
      <point x="232.65" y="-169.67235"/>
    </contour>
  </outline>
</glyph>
<glyph name="turnedcomma" format="2">
  <advance width="274.05"/>
  <unicode hex="02BB"/>
  <outline>
    <contour>
      <point x="47.025001525878906" y="600" type="line"/>
      <point x="227.0250015258789" y="600" type="line"/>
      <point x="227.0250015258789" y="800" type="line"/>
      <point x="143.34602926294662" y="800.0"/>
      <point x="47.024990840725195" y="740.0524467136963"/>
      <point x="47.02500114440918" y="605.0" type="curve"/>
    </contour>
  </outline>
</glyph>
<glyph name="apostrophe" format="2">
  <advance width="274.05"/>
  <unicode hex="02BC"/>
  <outline>
    <contour>
      <point x="47.025001525878906" y="600" type="line"/>
      <point x="130.7039737888112" y="600.0"/>
      <point x="227.02499084072522" y="659.9475532863037"/>
      <point x="227.02500114440917" y="795.0" type="curve"/>
      <point x="227.0250015258789" y="800" type="line"/>
      <point x="47.025001525878906" y="800" type="line"/>
    </contour>
  </outline>
</glyph>
<glyph name="caron" format="2">
  <advance width="501.55"/>
  <unicode hex="02C7"/>
  <outline>
    <contour>
      <point x="245.15" y="800" type="line"/>
      <point x="245.15" y="899.3447"/>
      <point x="164.4947" y="980.0"/>
      <point x="65.15" y="980.0" type="curve"/>
      <point x="65.15" y="800" type="line"/>
    </contour>
    <contour>
      <point x="436.4" y="980.0" type="line"/>
      <point x="337.0553" y="980.0"/>
      <point x="256.4" y="899.3447"/>
      <point x="256.4" y="800.0" type="curve"/>
      <point x="436.4" y="800.0" type="line"/>
    </contour>
  </outline>
</glyph>
<glyph name="breve" format="2">
  <advance width="501.55"/>
  <unicode hex="02D8"/>
  <outline>
    <contour>
      <point x="70.7750015258789" y="980" type="line"/>
      <point x="70.775" y="880.6553"/>
      <point x="151.4303" y="800.0"/>
      <point x="250.775" y="800.0" type="curve"/>
      <point x="350.11969999999997" y="800.0"/>
      <point x="430.775" y="880.6553"/>
      <point x="430.775" y="980.0" type="curve"/>
    </contour>
  </outline>
</glyph>
<glyph name="smalltilde" format="2">
  <advance width="501.55"/>
  <unicode hex="02DC"/>
  <outline>
    <contour>
      <point x="210.7750015258789" y="800.0" type="line"/>
      <point x="407.12574460017436" y="800.0"/>
      <point x="430.775" y="926.5748657026829"/>
      <point x="430.775" y="980.0" type="curve"/>
      <point x="290.7750015258789" y="980.0" type="line"/>
      <point x="94.42425845158346" y="980.0"/>
      <point x="70.775" y="853.4251342973171"/>
      <point x="70.775" y="800.0" type="curve"/>
    </contour>
  </outline>
</glyph>
<glyph name="combining_grave" format="2">
  <advance width="274.05"/>
  <unicode hex="0300"/>
  <outline>
    <contour>
      <point x="-533.275" y="816.11111" type="line"/>
      <point x="-533.275" y="716.76641"/>
      <point x="-452.6197" y="636.11111"/>
      <point x="-353.27500000000003" y="636.11111" type="curve"/>
      <point x="-353.27500000000003" y="816.11111" type="line"/>
    </contour>
  </outline>
</glyph>
<glyph name="combining_acute" format="2">
  <advance width="274.05"/>
  <unicode hex="0301"/>
  <outline>
    <contour>
      <point x="-375.77500000000003" y="636.11111" type="line"/>
      <point x="-276.43030000000005" y="636.11111"/>
      <point x="-195.775" y="716.76641"/>
      <point x="-195.775" y="816.11111" type="curve"/>
      <point x="-375.77500000000003" y="816.11111" type="line"/>
    </contour>
  </outline>
</glyph>
<glyph name="combining_smalltilde" format="2">
  <advance width="501.55"/>
  <unicode hex="0303"/>
  <outline>
    <contour>
      <point x="-290.7750015258789" y="636.1111075675456" type="line"/>
      <point x="-94.42425845158348" y="636.1111041560152"/>
      <point x="-70.775" y="762.685975702683"/>
      <point x="-70.775" y="816.11111" type="curve"/>
      <point x="-210.7750015258789" y="816.1111075675456" type="line"/>
      <point x="-407.12574460017436" y="816.1111041560152"/>
      <point x="-430.77500000000003" y="689.5362442973171"/>
      <point x="-430.77500000000003" y="636.11111" type="curve"/>
    </contour>
  </outline>
</glyph>
<glyph name="combining_diaeresis" format="2">
  <advance width="501.55"/>
  <unicode hex="0308"/>
  <outline>
    <contour>
      <point x="-269.52500000000003" y="726.11111" type="curve" smooth="yes"/>
      <point x="-269.52500000000003" y="778.54304"/>
      <point x="-312.09307" y="821.11111"/>
      <point x="-364.52500000000003" y="821.11111" type="curve" smooth="yes"/>
      <point x="-416.95693" y="821.11111"/>
      <point x="-459.52500000000003" y="778.54304"/>
      <point x="-459.52500000000003" y="726.11111" type="curve" smooth="yes"/>
      <point x="-459.52500000000003" y="673.67918"/>
      <point x="-416.95693" y="631.11111"/>
      <point x="-364.52500000000003" y="631.11111" type="curve" smooth="yes"/>
      <point x="-312.09307" y="631.11111"/>
      <point x="-269.52500000000003" y="673.67918"/>
    </contour>
    <contour>
      <point x="-42.025" y="726.11111" type="curve" smooth="yes"/>
      <point x="-42.025" y="778.54304"/>
      <point x="-84.59306999999998" y="821.11111"/>
      <point x="-137.025" y="821.11111" type="curve" smooth="yes"/>
      <point x="-189.45693" y="821.11111"/>
      <point x="-232.025" y="778.54304"/>
      <point x="-232.025" y="726.11111" type="curve" smooth="yes"/>
      <point x="-232.025" y="673.67918"/>
      <point x="-189.45693" y="631.11111"/>
      <point x="-137.025" y="631.11111" type="curve" smooth="yes"/>
      <point x="-84.59306999999998" y="631.11111"/>
      <point x="-42.025" y="673.67918"/>
    </contour>
  </outline>
</glyph>
<glyph name="combining_hook" format="2">
  <advance width="274.05"/>
  <unicode hex="0309"/>
  <outline>
    <contour>
      <point x="-195.775" y="636.11111" type="line"/>
      <point x="-195.775" y="735.45581"/>
      <point x="-276.43030000000005" y="816.11111"/>
      <point x="-375.77500000000003" y="816.11111" type="curve"/>
      <point x="-375.77500000000003" y="636.11111" type="line"/>
    </contour>
  </outline>
</glyph>
<glyph name="combining_ring" format="2">
  <advance width="501.55"/>
  <unicode hex="030A"/>
  <outline>
    <contour>
      <point x="-274.52500000000003" y="821.11111" type="line"/>
      <point x="-326.95693" y="821.11111"/>
      <point x="-369.52500000000003" y="778.54304"/>
      <point x="-369.52500000000003" y="726.11111" type="curve" smooth="yes"/>
      <point x="-369.52500000000003" y="673.67918"/>
      <point x="-326.95693" y="631.11111"/>
      <point x="-274.52500000000003" y="631.11111" type="curve"/>
    </contour>
    <contour>
      <point x="-227.025" y="631.11111" type="line"/>
      <point x="-174.59306999999998" y="631.11111"/>
      <point x="-132.025" y="673.67918"/>
      <point x="-132.025" y="726.11111" type="curve" smooth="yes"/>
      <point x="-132.025" y="778.54304"/>
      <point x="-174.59306999999998" y="821.11111"/>
      <point x="-227.025" y="821.11111" type="curve"/>
    </contour>
  </outline>
</glyph>
<glyph name="combining_acutedbl" format="2">
  <advance width="501.55"/>
  <unicode hex="030B"/>
  <outline>
    <contour>
      <point x="-454.52500000000003" y="636.11111" type="line"/>
      <point x="-355.18030000000005" y="636.11111"/>
      <point x="-274.52500000000003" y="716.76641"/>
      <point x="-274.52500000000003" y="816.11111" type="curve"/>
      <point x="-454.52500000000003" y="816.11111" type="line"/>
    </contour>
    <contour>
      <point x="-227.025" y="636.11111" type="line"/>
      <point x="-127.68029999999999" y="636.11111"/>
      <point x="-47.025" y="716.76641"/>
      <point x="-47.025" y="816.11111" type="curve"/>
      <point x="-227.025" y="816.11111" type="line"/>
    </contour>
  </outline>
</glyph>
<glyph name="combining_caron" format="2">
  <advance width="501.55"/>
  <unicode hex="030C"/>
  <outline>
    <contour>
      <point x="-256.40000000000003" y="636.11111" type="line"/>
      <point x="-256.40000000000003" y="735.45581"/>
      <point x="-337.05530000000005" y="816.11111"/>
      <point x="-436.40000000000003" y="816.11111" type="curve"/>
      <point x="-436.40000000000003" y="636.11111" type="line"/>
    </contour>
    <contour>
      <point x="-65.15" y="816.11111" type="line"/>
      <point x="-164.4947" y="816.11111"/>
      <point x="-245.15" y="735.45581"/>
      <point x="-245.15" y="636.11111" type="curve"/>
      <point x="-65.15" y="636.11111" type="line"/>
    </contour>
  </outline>
</glyph>
<glyph name="combining_breveinv" format="2">
  <advance width="501.55"/>
  <unicode hex="0311"/>
  <outline>
    <contour>
      <point x="-70.7750015258789" y="636.1111068725586" type="line"/>
      <point x="-70.775" y="735.45581"/>
      <point x="-151.4303" y="816.11111"/>
      <point x="-250.775" y="816.11111" type="curve"/>
      <point x="-350.1197" y="816.11111"/>
      <point x="-430.77500000000003" y="735.45581"/>
      <point x="-430.77500000000003" y="636.11111" type="curve"/>
    </contour>
  </outline>
</glyph>
<glyph name="combining_diaeresisbelow" format="2">
  <advance width="501.55"/>
  <unicode hex="0324"/>
  <outline>
    <contour>
      <point x="-269.52500000000003" y="-100.0" type="curve" smooth="yes"/>
      <point x="-269.52500000000003" y="-47.568070000000006"/>
      <point x="-312.09307" y="-5.0"/>
      <point x="-364.52500000000003" y="-5.0" type="curve" smooth="yes"/>
      <point x="-416.95693" y="-5.0"/>
      <point x="-459.52500000000003" y="-47.568070000000006"/>
      <point x="-459.52500000000003" y="-100.0" type="curve" smooth="yes"/>
      <point x="-459.52500000000003" y="-152.43193"/>
      <point x="-416.95693" y="-195.0"/>
      <point x="-364.52500000000003" y="-195.0" type="curve" smooth="yes"/>
      <point x="-312.09307" y="-195.0"/>
      <point x="-269.52500000000003" y="-152.43193"/>
    </contour>
    <contour>
      <point x="-42.025" y="-100.0" type="curve" smooth="yes"/>
      <point x="-42.025" y="-47.568070000000006"/>
      <point x="-84.59306999999998" y="-5.0"/>
      <point x="-137.025" y="-5.0" type="curve" smooth="yes"/>
      <point x="-189.45693" y="-5.0"/>
      <point x="-232.025" y="-47.568070000000006"/>
      <point x="-232.025" y="-100.0" type="curve" smooth="yes"/>
      <point x="-232.025" y="-152.43193"/>
      <point x="-189.45693" y="-195.0"/>
      <point x="-137.025" y="-195.0" type="curve" smooth="yes"/>
      <point x="-84.59306999999998" y="-195.0"/>
      <point x="-42.025" y="-152.43193"/>
    </contour>
  </outline>
</glyph>
<glyph name="combining_cedilla" format="2">
  <advance width="274.05"/>
  <unicode hex="0327"/>
  <outline>
    <contour>
      <point x="-195.775" y="-180.0" type="line"/>
      <point x="-195.775" y="-80.6553"/>
      <point x="-276.43030000000005" y="0.0"/>
      <point x="-375.77500000000003" y="0.0" type="curve"/>
      <point x="-375.77500000000003" y="-180.0" type="line"/>
    </contour>
  </outline>
</glyph>
